<?xml version="1.0" encoding="utf-8"?>
<!-- Generator: Adobe Illustrator 25.4.1, SVG Export Plug-In . SVG Version: 6.00 Build 0)  -->
<svg version="1.1" id="Layer_1" xmlns="http://www.w3.org/2000/svg" xmlns:xlink="http://www.w3.org/1999/xlink" x="0px" y="0px"
	 viewBox="0 0 256 256" style="enable-background:new 0 0 256 256;" xml:space="preserve">
<style type="text/css">
	.st0{fill:#1C2C59;}
</style>
<g>
	<g>
		<path class="st0" d="M47,44.9c-0.79,0-1.58-0.29-2.19-0.89c-1.25-1.21-1.28-3.2-0.07-4.45C67.04,16.5,96.99,3.8,129.07,3.8
			c30.61,0,59.59,11.72,81.58,33c1.25,1.21,1.28,3.2,0.07,4.45c-1.21,1.25-3.2,1.28-4.45,0.07c-20.81-20.14-48.23-31.23-77.2-31.23
			c-30.36,0-58.7,12.02-79.81,33.84C48.64,44.58,47.82,44.9,47,44.9z"/>
		<path class="st0" d="M129.07,238.47c-1.74,0-3.15-1.41-3.15-3.15c0-1.74,1.41-3.15,3.15-3.15c61.22,0,111.03-49.81,111.03-111.03
			c0-14.4-2.71-28.41-8.07-41.63c-0.65-1.61,0.13-3.45,1.74-4.1c1.61-0.65,3.45,0.12,4.1,1.74c5.66,13.98,8.53,28.78,8.53,43.99
			C246.4,185.83,193.76,238.47,129.07,238.47z"/>
		<path class="st0" d="M93.39,232.78c-0.33,0-0.66-0.05-0.98-0.16c-48.25-15.86-80.67-60.66-80.67-111.49
			c0-19.9,5.07-39.55,14.67-56.85c0.84-1.52,2.75-2.07,4.28-1.23c1.52,0.84,2.07,2.76,1.22,4.28
			c-9.08,16.36-13.88,34.96-13.88,53.79c0,48.1,30.68,90.5,76.34,105.51c1.65,0.54,2.55,2.32,2.01,3.98
			C95.95,231.94,94.71,232.78,93.39,232.78z"/>
		<path class="st0" d="M34.08,85.87c-1.43,0-2.72-0.98-3.06-2.43l-3.37-14.3l-14.3,3.37c-1.7,0.4-3.39-0.65-3.79-2.34
			c-0.4-1.69,0.65-3.39,2.34-3.79l17.36-4.09c1.69-0.41,3.39,0.65,3.79,2.34L37.15,82c0.4,1.69-0.65,3.39-2.34,3.79
			C34.57,85.85,34.32,85.87,34.08,85.87z"/>
		<path class="st0" d="M208.49,43.95c-0.05,0-0.1,0-0.15,0l-17.82-0.81c-1.74-0.08-3.08-1.55-3-3.29c0.08-1.74,1.6-3.04,3.29-3
			l14.68,0.67l0.67-14.67c0.08-1.74,1.59-3.05,3.29-3c1.74,0.08,3.08,1.55,3,3.29l-0.81,17.82
			C211.56,42.63,210.17,43.95,208.49,43.95z"/>
		<path class="st0" d="M141.67,250.87c-0.79,0-1.58-0.3-2.2-0.89l-12.79-12.44c-1.25-1.21-1.27-3.21-0.06-4.45l12.44-12.79
			c1.21-1.25,3.21-1.28,4.45-0.06c1.25,1.21,1.27,3.21,0.06,4.45l-10.24,10.53l10.53,10.24c1.25,1.21,1.27,3.21,0.06,4.45
			C143.31,250.55,142.49,250.87,141.67,250.87z"/>
	</g>
	<g>
		<path class="st0" d="M127.21,217.75c-15.8,0-19.36-58.09-20.08-75.9c-0.07-1.74,1.28-3.2,3.02-3.27c1.68-0.11,3.2,1.28,3.27,3.02
			c2,49.75,10.55,69.85,13.78,69.85c1.53,0,8.53-8.44,12.28-47.41c0.17-1.73,1.72-3,3.44-2.83c1.73,0.17,3,1.71,2.83,3.44
			C143.43,188.87,138.32,217.75,127.21,217.75z"/>
		<path class="st0" d="M143.48,157.15c-0.07,0-0.14,0-0.22-0.01c-1.74-0.12-3.05-1.62-2.93-3.36c0.69-10.06,1.04-20.67,1.04-31.53
			c0-57.71-9.35-89.2-14.16-89.2c-4.81,0-14.17,31.48-14.17,89.2c0,1.91,0.03,3.23,0.06,4.73l0.06,2.55
			c0.03,1.74-1.36,3.17-3.09,3.2c-1.7,0.06-3.17-1.36-3.21-3.1l-0.05-2.51c-0.04-1.54-0.07-2.91-0.07-4.88
			c0-33.03,4.28-95.5,20.47-95.5c16.19,0,20.46,62.46,20.46,95.5c0,11-0.36,21.75-1.06,31.96
			C146.5,155.88,145.12,157.15,143.48,157.15z"/>
		<path class="st0" d="M145.25,132.86c-0.93,0-1.86-0.41-2.48-1.21c-1.07-1.37-0.83-3.35,0.54-4.42
			c44.31-34.71,56.88-55.8,54.65-58.74c-0.87-1.14-11.13-1.73-42.36,17.03c-1.49,0.9-3.43,0.41-4.32-1.08
			c-0.9-1.49-0.41-3.43,1.08-4.32c19.54-11.74,44.19-23.94,50.63-15.43c10.97,14.53-48.93,62.12-55.79,67.5
			C146.61,132.64,145.93,132.86,145.25,132.86z"/>
		<path class="st0" d="M111.34,157.63c-1.03,0-2.04-0.5-2.65-1.43c-0.95-1.46-0.53-3.41,0.93-4.36c8.43-5.48,13.66-9.33,22.79-16.23
			c1.39-1.05,3.36-0.78,4.41,0.62c1.05,1.39,0.77,3.36-0.62,4.41c-9.25,6.99-14.55,10.89-23.15,16.48
			C112.53,157.47,111.93,157.63,111.34,157.63z"/>
		<path class="st0" d="M57.78,182.66c-3.2,0-5.7-0.86-7.2-2.86c-9.24-12.24,32.96-48.89,46.12-59.83c1.34-1.12,3.33-0.93,4.44,0.41
			c1.11,1.34,0.93,3.32-0.41,4.44C61.93,157.08,53.98,173.85,55.6,176c0.9,1.17,11.42,1.73,43.45-17.69
			c1.49-0.9,3.42-0.43,4.33,1.06c0.9,1.49,0.42,3.42-1.06,4.33C86.93,173.03,68.46,182.66,57.78,182.66z"/>
		<path class="st0" d="M110.38,116.15c-0.94,0-1.86-0.42-2.49-1.21c-1.07-1.37-0.83-3.35,0.54-4.42c2.19-1.71,3.74-2.88,6-4.6
			c9.05-6.83,18.11-13.2,26.91-18.92c1.45-0.95,3.41-0.53,4.36,0.92c0.95,1.46,0.53,3.41-0.93,4.36
			c-8.68,5.64-17.61,11.92-26.54,18.66c-2.24,1.69-3.76,2.85-5.92,4.54C111.74,115.93,111.06,116.15,110.38,116.15z"/>
		<path class="st0" d="M196.84,182.64c-17.93,0-59.02-27.18-81.37-44.06c-19.84-14.98-37.41-30.53-49.48-43.79
			C52.34,79.79,47.63,69.95,51.61,64.69c6.47-8.56,31.27,3.76,50.93,15.61c1.49,0.9,1.97,2.83,1.07,4.32
			c-0.9,1.49-2.84,1.97-4.32,1.07C67.84,66.75,57.5,67.32,56.63,68.49c-0.58,0.77,0.1,6.76,14.02,22.05
			c11.82,12.98,29.09,28.25,48.62,43.01c46.07,34.79,76.83,46.28,79.72,42.45c1.64-2.18-6.44-19.15-45.83-51.77
			c-1.34-1.11-1.53-3.09-0.42-4.43c1.11-1.34,3.1-1.53,4.44-0.42c13.34,11.05,56.16,48.07,46.83,60.42
			C202.53,181.76,200.06,182.64,196.84,182.64z"/>
		<path class="st0" d="M144.12,116.09c-0.68,0-1.36-0.22-1.93-0.66c-1.92-1.49-3.87-2.99-5.84-4.48
			c-9.86-7.45-18.16-13.53-26.6-18.99c-1.46-0.94-1.88-2.89-0.93-4.36c0.94-1.46,2.9-1.88,4.36-0.93c8.6,5.56,17,11.72,26.97,19.25
			c2,1.51,3.98,3.03,5.92,4.54c1.37,1.07,1.62,3.05,0.55,4.42C145.99,115.67,145.06,116.09,144.12,116.09z"/>
	</g>
</g>
</svg>
