<?xml version="1.0" encoding="utf-8"?>
<!-- Generator: Adobe Illustrator 25.4.1, SVG Export Plug-In . SVG Version: 6.00 Build 0)  -->
<svg version="1.1" id="Layer_1" xmlns="http://www.w3.org/2000/svg" xmlns:xlink="http://www.w3.org/1999/xlink" x="0px" y="0px"
	 viewBox="0 0 256 256" style="enable-background:new 0 0 256 256;" xml:space="preserve">
<style type="text/css">
	.st0{fill:#1C2C59;}
	.st1{fill:#1C2C59;stroke:#20211E;stroke-width:2;stroke-linecap:round;stroke-linejoin:round;stroke-miterlimit:10;}
</style>
<g>
	<path class="st0" d="M240.91,195.49h-60c-0.84,0-1.63-0.35-2.2-0.96c-0.57-0.62-0.85-1.44-0.79-2.27l1.58-20.4
		c0.13-1.65,1.56-2.89,3.22-2.76c1.65,0.13,2.89,1.57,2.76,3.22l-1.33,17.17h53.43l-2.77-26.65c-0.17-1.65,1.03-3.12,2.67-3.3
		c1.68-0.14,3.12,1.03,3.29,2.67l3.11,29.96c0.09,0.85-0.19,1.69-0.76,2.32C242.57,195.13,241.76,195.49,240.91,195.49z"/>
	<g>
		<g>
			<path class="st1" d="M129.06,106.37"/>
		</g>
		<g>
			<path class="st0" d="M52.36,80.78c-12.56,0-21-9.64-21-24s8.44-24,21-24s21,9.64,21,24S64.93,80.78,52.36,80.78z M52.36,38.78
				c-11.07,0-15,9.7-15,18s3.93,18,15,18s15-9.7,15-18S63.44,38.78,52.36,38.78z"/>
			<g>
				<path class="st0" d="M25.36,230.78c-1.66,0-3-1.34-3-3v-66c0-1.66,1.34-3,3-3c1.66,0,3,1.34,3,3v66
					C28.36,229.44,27.02,230.78,25.36,230.78z"/>
				<path class="st0" d="M52.36,230.78c-1.66,0-3-1.34-3-3v-48c0-1.66,1.34-3,3-3s3,1.34,3,3v48
					C55.36,229.44,54.02,230.78,52.36,230.78z"/>
				<g>
					<path class="st0" d="M16.56,164.78c-6.62,0-12-5.38-12-12v-33c0-18.2,14.8-33,33-33h89.81c1.66,0,3,1.34,3,3v15
						c0,1.66-1.34,3-3,3c-1.66,0-3-1.34-3-3v-12H37.56c-14.89,0-27,12.11-27,27v33c0,3.31,2.69,6,6,6l34.5,0
						c2.48,0,4.5-2.02,4.5-4.5c0-2.48-2.02-4.5-4.5-4.5h-25.5c-1.66,0-3-1.34-3-3v-24c0-1.66,1.34-3,3-3c1.66,0,3,1.34,3,3v21h22.5
						c5.79,0,10.5,4.71,10.5,10.5c0,5.79-4.71,10.5-10.5,10.5L16.56,164.78z"/>
					<path class="st0" d="M79.36,230.78c-1.66,0-3-1.34-3-3v-48.76c0-1.66,1.34-3,3-3c1.66,0,3,1.34,3,3v48.76
						C82.36,229.44,81.02,230.78,79.36,230.78z"/>
				</g>
			</g>
		</g>
		<g>
			<g>
				<g>
					<path class="st0" d="M238.36,164.78l-34.5,0c-5.79,0-10.5-4.71-10.5-10.5c0-5.79,4.71-10.5,10.5-10.5h22.5v-21
						c0-1.66,1.34-3,3-3s3,1.34,3,3v24c0,1.66-1.34,3-3,3h-25.5c-2.48,0-4.5,2.02-4.5,4.5c0,2.48,2.02,4.5,4.5,4.5l34.5,0
						c3.31,0,6-2.69,6-6v-33c0-14.89-12.11-27-27-27h-86.81v11.5c0,1.66-1.34,3-3,3c-1.66,0-3-1.34-3-3v-14.5c0-1.66,1.34-3,3-3
						h89.81c18.2,0,33,14.8,33,33v33C250.36,159.4,244.98,164.78,238.36,164.78z"/>
				</g>
			</g>
		</g>
		<g>
			<path class="st0" d="M131.26,173.34h-26.56c-0.81,0-1.58-0.33-2.15-0.9c-0.56-0.58-0.87-1.36-0.85-2.17l0.02-0.75
				c0.02-0.72,0.29-1.42,0.78-1.95c1.21-1.33,2.65-3.36,2.64-5.5c-0.01-2.44-2.55-4.52-5.67-4.65l-0.25,0c-0.01,0-0.01,0-0.02,0
				c-1.61,0-3.13,0.6-4.18,1.66c-0.84,0.84-1.3,1.88-1.29,2.93c0.01,2.15,1.46,4.2,2.68,5.54c0.48,0.52,0.76,1.2,0.78,1.91
				l0.03,0.77c0.03,0.81-0.27,1.61-0.84,2.19c-0.57,0.59-1.34,0.92-2.16,0.92H67.47c-1.66,0-3-1.34-3-3v-22.06
				c-1.97,1.05-3.99,1.59-6.02,1.6c-0.01,0-0.02,0-0.03,0c-5.77,0-10.52-4.91-10.83-11.19l0-0.5c0.19-6.41,4.88-11.38,10.69-11.4
				c2.05-0.14,4.16,0.54,6.2,1.64v-21.88c0-0.8,0.32-1.56,0.88-2.12s1.23-0.93,2.13-0.88l26.55,0.07c0.81,0,1.58,0.33,2.15,0.91
				c0.56,0.58,0.87,1.37,0.84,2.17l-0.03,1.12c-0.02,0.71-0.29,1.4-0.77,1.92c-1.21,1.33-2.64,3.37-2.63,5.52
				c0.01,2.44,2.56,4.52,5.69,4.64l0.23,0c3.01-0.11,5.52-2.18,5.5-4.6c-0.01-2.16-1.47-4.2-2.7-5.53
				c-0.48-0.53-0.76-1.21-0.79-1.92l-0.04-1.1c-0.03-0.81,0.27-1.6,0.83-2.19c0.56-0.59,1.34-0.92,2.15-0.92l26.78-0.1
				c0,0,0.01,0,0.01,0c0.79,0,1.55,0.31,2.12,0.87c0.57,0.56,0.88,1.33,0.88,2.13v22.14c2.14-1.11,4.28-1.65,6.46-1.56
				c5.78,0.2,10.36,5.29,10.42,11.58c0,0.05,0,0.1,0,0.15l-0.01,0.36c-0.43,6.38-5.27,11.29-11.12,10.96
				c-1.92-0.06-3.86-0.63-5.75-1.66v21.81C134.26,172,132.92,173.34,131.26,173.34z M109.9,167.34h18.37v-23.82
				c0-0.81,0.33-1.59,0.91-2.16c0.58-0.57,1.35-0.91,2.18-0.84l1.26,0.04c0.73,0.02,1.42,0.31,1.95,0.81
				c1.34,1.25,3.4,2.76,5.64,2.83c2.61-0.02,4.72-2.24,4.93-5.29l0.01-0.19c-0.06-3.05-2.08-5.5-4.63-5.59
				c-2.18-0.12-4.38,1.28-5.79,2.44c-0.53,0.44-1.21,0.68-1.9,0.68c0,0,0,0-0.01,0l-1.56,0c-1.65,0-2.99-1.34-2.99-3v-23.67
				l-18.74,0.07c0.97,1.86,1.48,3.77,1.49,5.64c0.03,5.72-4.96,10.39-11.37,10.63l-0.45,0c-6.53-0.24-11.56-4.9-11.6-10.6
				c-0.01-1.92,0.47-3.83,1.44-5.7l-18.55-0.05v23.61c0,0.8-0.32,1.57-0.9,2.14c-0.57,0.56-1.38,0.88-2.15,0.86l-1.46-0.02
				c-0.7-0.01-1.38-0.27-1.91-0.73c-1.39-1.2-3.51-2.62-5.74-2.62c-0.01,0-0.01,0-0.02,0c-2.55,0.01-4.62,2.41-4.71,5.47l0,0.26
				c0.15,2.94,2.27,5.35,4.83,5.35c0,0,0.01,0,0.01,0c2.23-0.01,4.33-1.45,5.69-2.65c0.53-0.47,1.21-0.74,1.92-0.75l1.37-0.03
				c0.79-0.02,1.59,0.29,2.17,0.85c0.58,0.57,0.9,1.34,0.9,2.15v23.9h18.55c-0.86-1.76-1.3-3.55-1.31-5.31
				c-0.01-2.66,1.08-5.21,3.05-7.19c2.17-2.17,5.24-3.42,8.42-3.42c0.01,0,0.02,0,0.04,0h0.37c6.51,0.26,11.53,4.93,11.55,10.63
				C111.15,163.84,110.73,165.6,109.9,167.34z"/>
			<path class="st0" d="M163.34,190.29c-6.43-0.18-11.39-4.88-11.41-10.68c-0.01-2.09,0.54-4.16,1.64-6.2h-21.88c-1.66,0-3-1.34-3-3
				c0-1.66,1.34-3,3-3h26.62c0.8,0,1.57,0.32,2.14,0.9c0.56,0.57,0.87,1.35,0.86,2.15l-0.02,1.46c-0.01,0.7-0.27,1.38-0.73,1.91
				c-1.2,1.39-2.63,3.52-2.62,5.75c0.01,2.55,2.41,4.62,5.47,4.71l0.25,0c2.96-0.15,5.37-2.27,5.36-4.84
				c-0.01-2.23-1.44-4.33-2.65-5.69c-0.47-0.53-0.73-1.21-0.75-1.91l-0.03-1.37c-0.02-0.81,0.29-1.59,0.85-2.17
				c0.57-0.58,1.34-0.91,2.15-0.91h23.9v-18.55c-1.76,0.86-3.55,1.3-5.31,1.31c-0.01,0-0.02,0-0.04,0c-2.64,0-5.18-1.08-7.15-3.05
				c-2.18-2.18-3.43-5.26-3.42-8.46l0-0.38c0.26-6.5,4.93-11.52,10.63-11.54c0.01,0,0.02,0,0.03,0c1.77,0,3.53,0.42,5.26,1.25
				v-18.37h-23.82c-0.81,0-1.59-0.33-2.16-0.91c-0.56-0.58-0.87-1.37-0.84-2.18l0.04-1.26c0.02-0.73,0.31-1.42,0.81-1.95
				c1.25-1.34,2.76-3.4,2.83-5.64c0.09-2.56-2.23-4.72-5.29-4.93l-0.27-0.01c-2.94,0.03-5.42,2.07-5.51,4.63
				c-0.07,2.23,1.28,4.38,2.44,5.79c0.44,0.54,0.68,1.21,0.68,1.9l0,1.57c0,1.66-1.34,3-3,3h-26.69c-1.66,0-3-1.34-3-3
				c0-1.66,1.34-3,3-3h22.14c-1.11-2.14-1.64-4.3-1.56-6.46c0.2-5.78,5.29-10.36,11.59-10.42l0.5,0.01
				c6.4,0.44,11.18,5.32,10.97,11.13c-0.06,1.92-0.63,3.86-1.66,5.75h21.81c1.66,0,3,1.34,3,3v26.56c0,0.81-0.33,1.58-0.9,2.15
				c-0.58,0.57-1.33,0.86-2.17,0.85l-0.75-0.02c-0.72-0.02-1.41-0.3-1.95-0.78c-1.33-1.21-3.29-2.64-5.5-2.64
				c-2.44,0.01-4.53,2.55-4.65,5.67l0,0.27c0,1.61,0.6,3.13,1.66,4.2c0.83,0.83,1.87,1.29,2.92,1.29c0,0,0.01,0,0.01,0
				c2.15-0.01,4.2-1.46,5.54-2.68c0.53-0.48,1.21-0.76,1.92-0.78l0.77-0.03c0.82-0.05,1.6,0.28,2.19,0.84
				c0.59,0.57,0.92,1.34,0.92,2.16v26.74c0,1.66-1.34,3-3,3h-22.06c1.05,1.97,1.59,3.99,1.6,6.02c0.02,5.78-4.9,10.55-11.19,10.86
				L163.34,190.29z"/>
		</g>
	</g>
	<path class="st0" d="M231.91,231.49c-1.66,0-3-1.34-3-3v-36c0-1.66,1.34-3,3-3c1.66,0,3,1.34,3,3v36
		C234.91,230.15,233.57,231.49,231.91,231.49z"/>
	<path class="st0" d="M210.91,231.49c-1.66,0-3-1.34-3-3v-36c0-1.66,1.34-3,3-3c1.66,0,3,1.34,3,3v36
		C213.91,230.15,212.57,231.49,210.91,231.49z"/>
	<path class="st0" d="M189.91,231.49c-1.66,0-3-1.34-3-3v-36c0-1.66,1.34-3,3-3c1.66,0,3,1.34,3,3v36
		C192.91,230.15,191.57,231.49,189.91,231.49z"/>
	<g>
		<g>
			<path class="st0" d="M210.85,80.13c-11.48,0-19.5-9.25-19.5-22.5c0-13.25,8.02-22.5,19.5-22.5c1.66,0,3,1.34,3,3
				c0,1.66-1.34,3-3,3c-9.96,0-13.5,8.89-13.5,16.5s3.54,16.5,13.5,16.5c9.96,0,13.5-8.89,13.5-16.5c0-2.95-0.48-5.66-1.42-8.05
				c-0.61-1.54,0.15-3.28,1.69-3.89c1.55-0.62,3.28,0.15,3.89,1.69c1.22,3.1,1.84,6.54,1.84,10.25
				C230.35,70.88,222.33,80.13,210.85,80.13z"/>
			<path class="st0" d="M225.69,51.44c-7.86,0-15.11-5.07-17.64-12.33c-0.54-1.56,0.28-3.27,1.85-3.82
				c1.56-0.55,3.27,0.28,3.82,1.85c1.68,4.81,6.71,8.3,11.98,8.3c1.66,0,3,1.34,3,3C228.69,50.1,227.35,51.44,225.69,51.44z"/>
		</g>
		<path class="st0" d="M247.91,79.71c-2.55,0-4.83-0.91-6.61-2.65c-5.18-5.04-5.23-15.8-5.27-23.66c0-1.09-0.01-2.09-0.03-2.96
			c-0.33-13.34-6.8-20.46-19.2-21.17l-8.11-0.09c-8.66-0.19-22.45,5.62-22.99,21.29c-0.03,0.96-0.04,2.07-0.05,3.3
			c-0.07,7.75-0.16,18.37-5.28,23.32c-1.83,1.78-4.2,2.69-6.83,2.62c-1.66-0.04-2.97-1.41-2.93-3.07c0.04-1.66,1.33-3.05,3.07-2.93
			c1.05-0.01,1.83-0.26,2.52-0.93c3.31-3.21,3.4-13.14,3.45-19.07c0.01-1.28,0.02-2.45,0.06-3.45
			c0.68-19.79,17.93-27.09,28.82-27.09c0.08,0,0.16,0,0.23,0l8.25,0.09c9.18,0.52,24.44,4.72,25,27.02c0.02,0.9,0.03,1.95,0.03,3.08
			c0.03,6.02,0.08,16.11,3.45,19.39c0.7,0.68,1.51,0.97,2.54,0.95c1.77-0.12,3.03,1.27,3.07,2.93c0.04,1.66-1.27,3.03-2.93,3.07
			C248.08,79.71,247.99,79.71,247.91,79.71z"/>
	</g>
</g>
</svg>
