<?xml version="1.0" encoding="utf-8"?>
<!-- Generator: Adobe Illustrator 25.4.1, SVG Export Plug-In . SVG Version: 6.00 Build 0)  -->
<svg version="1.1" id="Layer_1" xmlns="http://www.w3.org/2000/svg" xmlns:xlink="http://www.w3.org/1999/xlink" x="0px" y="0px"
	 viewBox="0 0 256 256" style="enable-background:new 0 0 256 256;" xml:space="preserve">
<style type="text/css">
	.st0{fill:#1C2C59;}
</style>
<g>
	<path class="st0" d="M233.49,249.43H9.09c-1.82,0-3.3-1.48-3.3-3.3c0-1.82,1.48-3.3,3.3-3.3h221.1v-135.3c0-1.82,1.48-3.3,3.3-3.3
		c1.82,0,3.3,1.48,3.3,3.3v138.6C236.79,247.96,235.31,249.43,233.49,249.43z"/>
	<g>
		<path class="st0" d="M233.49,133.93c-0.77,0-1.54-0.27-2.16-0.81c-9.11-7.91-14.34-19.64-14.34-32.19s5.23-24.28,14.34-32.19
			c1.24-1.08,3.08-1.08,4.32,0c9.11,7.91,14.34,19.64,14.34,32.19s-5.23,24.28-14.34,32.19
			C235.03,133.66,234.26,133.93,233.49,133.93z M233.49,75.78c-6.32,6.56-9.9,15.56-9.9,25.16s3.58,18.6,9.9,25.16
			c6.32-6.56,9.9-15.56,9.9-25.16S239.81,82.33,233.49,75.78z"/>
	</g>
	<g>
		<g>
			<path class="st0" d="M218.12,171.74c-11.21,0-22.15-4.67-30.35-13.04c-8.78-8.96-13.26-21-12.29-33.03
				c0.13-1.64,1.45-2.93,3.09-3.03c12.01-0.74,23.99,4,32.77,12.96c8.78,8.97,13.26,21.01,12.29,33.03
				c-0.13,1.64-1.45,2.93-3.09,3.03C219.73,171.72,218.92,171.74,218.12,171.74z M181.95,129.19c0.07,9.11,3.82,18.05,10.53,24.9
				l0,0c6.71,6.85,15.57,10.78,24.68,11.04c-0.07-9.11-3.82-18.05-10.53-24.9C199.91,133.38,191.06,129.45,181.95,129.19z"/>
		</g>
		<path class="st0" d="M233.49,186.73c-0.88,0-1.76-0.35-2.41-1.05l-31.62-33.92c-1.24-1.33-1.17-3.42,0.16-4.66
			c1.33-1.24,3.42-1.17,4.66,0.16l31.62,33.92c1.24,1.33,1.17,3.42-0.16,4.66C235.1,186.44,234.3,186.73,233.49,186.73z"/>
	</g>
	<g>
		<path class="st0" d="M183.99,219.76H86.48c-1,0-1.95-0.46-2.58-1.24c-0.63-0.78-0.86-1.81-0.64-2.79l10.6-46.64
			c0.34-1.5,1.68-2.57,3.22-2.57h76.31c1.54,0,2.88,1.07,3.22,2.57l10.6,46.64c0.22,0.98-0.01,2.01-0.64,2.79
			C185.94,219.3,184.99,219.76,183.99,219.76z M90.61,213.16h89.24l-9.1-40.03H99.71L90.61,213.16z"/>
		<path class="st0" d="M178.25,195.73H92.4c-1.82,0-3.3-1.48-3.3-3.3c0-1.82,1.48-3.3,3.3-3.3h85.85c1.82,0,3.3,1.48,3.3,3.3
			C181.55,194.26,180.07,195.73,178.25,195.73z"/>
		
			<rect x="91.59" y="189.49" transform="matrix(0.0918 -0.9958 0.9958 0.0918 -87.8448 289.2538)" class="st0" width="46.12" height="6.6"/>
		
			<rect x="151.63" y="169.72" transform="matrix(0.9958 -0.0919 0.0919 0.9958 -17.0626 15.0551)" class="st0" width="6.6" height="46.12"/>
		<path class="st0" d="M141.09,249.02h-13.2c-1.82,0-3.3-1.48-3.3-3.3v-19.8h6.6v16.5h6.6v-16.5h6.6v19.8
			C144.39,247.54,142.91,249.02,141.09,249.02z"/>
		<path class="st0" d="M145.83,249.43h-21.2c-1.82,0-3.3-1.48-3.3-3.3c0-1.82,1.48-3.3,3.3-3.3h21.2c1.82,0,3.3,1.48,3.3,3.3
			C149.13,247.96,147.65,249.43,145.83,249.43z"/>
	</g>
	<g>
		<g>
			<path class="st0" d="M48.44,28.53c-1.82,0-3.3-1.48-3.3-3.3V8.53c0-1.82,1.48-3.3,3.3-3.3c1.82,0,3.3,1.48,3.3,3.3v16.7
				C51.74,27.06,50.26,28.53,48.44,28.53z"/>
		</g>
		<g>
			<path class="st0" d="M20.16,58.72c-1.12,0-2.22-0.57-2.84-1.61c-0.93-1.56-0.42-3.59,1.14-4.52l17.33-10.33
				c1.57-0.93,3.59-0.42,4.52,1.14c0.93,1.56,0.42,3.59-1.14,4.52L21.85,58.26C21.32,58.57,20.74,58.72,20.16,58.72z"/>
		</g>
		<g>
			<path class="st0" d="M75.7,58.72c-0.58,0-1.16-0.15-1.69-0.47L56.69,47.92c-1.57-0.93-2.08-2.96-1.14-4.52
				c0.93-1.57,2.96-2.08,4.52-1.14L77.4,52.59c1.57,0.93,2.08,2.96,1.14,4.52C77.92,58.15,76.83,58.72,75.7,58.72z"/>
		</g>
		<rect x="45.14" y="45.25" class="st0" width="6.6" height="29.08"/>
		<path class="st0" d="M48.4,41.33c-0.03,0-0.05,0-0.08,0c-1.82-0.04-3.26-1.55-3.22-3.38l0.08-3.3c0.04-1.82,1.58-3.3,3.38-3.22
			c1.82,0.04,3.26,1.55,3.22,3.38l-0.08,3.3C51.65,39.9,50.18,41.33,48.4,41.33z"/>
	</g>
	<path class="st0" d="M134.49,249.43h-79.2c-1.82,0-3.3-1.48-3.3-3.3v-112.2c0-1.82,1.48-3.3,3.3-3.3h79.2c1.82,0,3.3,1.48,3.3,3.3
		v26.4h-6.6v-23.1h-72.6v105.6h75.9V249.43z"/>
	<path class="st0" d="M114.69,249.43H9.09c-1.82,0-3.3-1.48-3.3-3.3V74.53c0-1.82,1.48-3.3,3.3-3.3h105.6c1.82,0,3.3,1.48,3.3,3.3
		v42.9h-6.6v-39.6h-99v165h102.3V249.43z"/>
	<rect x="25.59" y="91.03" class="st0" width="19.8" height="6.6"/>
	<rect x="78.39" y="91.03" class="st0" width="19.8" height="6.6"/>
	<rect x="25.59" y="110.83" class="st0" width="19.8" height="6.6"/>
	<rect x="25.59" y="130.63" class="st0" width="19.8" height="6.6"/>
	<g>
		<rect x="25.59" y="166.93" class="st0" width="19.8" height="6.6"/>
		<rect x="25.59" y="186.73" class="st0" width="19.8" height="6.6"/>
		<rect x="25.59" y="206.53" class="st0" width="19.8" height="6.6"/>
	</g>
	<rect x="78.39" y="110.83" class="st0" width="19.8" height="6.6"/>
	<rect x="71.79" y="147.13" class="st0" width="46.2" height="6.6"/>
	<rect x="71.79" y="166.93" class="st0" width="16.5" height="6.6"/>
	<rect x="71.79" y="186.73" class="st0" width="13.2" height="6.6"/>
	<rect x="71.79" y="206.53" class="st0" width="6.6" height="6.6"/>
</g>
</svg>
