<?xml version="1.0" encoding="utf-8"?>
<!-- Generator: Adobe Illustrator 25.4.1, SVG Export Plug-In . SVG Version: 6.00 Build 0)  -->
<svg version="1.1" id="Layer_1" xmlns="http://www.w3.org/2000/svg" xmlns:xlink="http://www.w3.org/1999/xlink" x="0px" y="0px"
	 viewBox="0 0 256 256" style="enable-background:new 0 0 256 256;" xml:space="preserve">
<style type="text/css">
	.st0{fill:#1C2C59;}
</style>
<g>
	<g>
		<g>
			<path class="st0" d="M209.01,174.06h-5.5c-1.52,0-2.75-1.23-2.75-2.75c0-1.52,1.23-2.75,2.75-2.75h2.75v-50.33
				c0-13.19-10.94-23.92-24.39-23.92h-14.11c-1.52,0-2.75-1.23-2.75-2.75c0-1.52,1.23-2.75,2.75-2.75h14.11
				c16.48,0,29.89,13.2,29.89,29.42v53.08C211.76,172.83,210.53,174.06,209.01,174.06z"/>
			<path class="st0" d="M195.26,229.06c-1.52,0-2.75-1.23-2.75-2.75v-99c0-1.52,1.23-2.75,2.75-2.75h2.58
				c1.52,0,2.75,1.23,2.75,2.75c0,1.46-1.14,2.66-2.58,2.74v96.26C198.01,227.83,196.78,229.06,195.26,229.06z"/>
			<path class="st0" d="M175.95,229.06c-1.52,0-2.75-1.23-2.75-2.75v-52.25c0-1.52,1.23-2.75,2.75-2.75c1.52,0,2.75,1.23,2.75,2.75
				v52.25C178.7,227.83,177.47,229.06,175.95,229.06z"/>
			<path class="st0" d="M175.95,83.31c-9.87,0-16.5-7.74-16.5-19.25c0-11.51,6.63-19.25,16.5-19.25c9.87,0,16.5,7.74,16.5,19.25
				C192.45,75.57,185.82,83.31,175.95,83.31z M175.95,50.31c-8.11,0-11,7.1-11,13.75c0,6.65,2.89,13.75,11,13.75s11-7.1,11-13.75
				C186.95,57.41,184.06,50.31,175.95,50.31z"/>
		</g>
		<path class="st0" d="M247.51,176.81h-5.5c-1.52,0-2.75-1.23-2.75-2.75c0-1.52,1.23-2.75,2.75-2.75h2.75v-49.5
			c0-11.51-8.84-19.25-22-19.25h-8.25c-1.52,0-2.75-1.23-2.75-2.75c0-1.52,1.23-2.75,2.75-2.75h8.25c16.19,0,27.5,10.18,27.5,24.75
			v52.25C250.26,175.58,249.03,176.81,247.51,176.81z"/>
		<path class="st0" d="M233.76,229.06c-1.52,0-2.75-1.23-2.75-2.75v-88c0-1.52,1.23-2.75,2.75-2.75h2.75c1.52,0,2.75,1.23,2.75,2.75
			c0,1.52-1.23,2.75-2.75,2.75v85.25C236.51,227.83,235.28,229.06,233.76,229.06z"/>
		<path class="st0" d="M214.51,229.06c-1.52,0-2.75-1.23-2.75-2.75v-44c0-1.52,1.23-2.75,2.75-2.75c1.52,0,2.75,1.23,2.75,2.75v44
			C217.26,227.83,216.03,229.06,214.51,229.06z"/>
		<path class="st0" d="M217.26,91.56c-8.22,0-13.75-6.63-13.75-16.5c0-9.87,5.53-16.5,13.75-16.5s13.75,6.63,13.75,16.5
			C231.01,84.93,225.49,91.56,217.26,91.56z M217.26,64.06c-6.08,0-8.25,5.68-8.25,11c0,5.32,2.17,11,8.25,11
			c6.08,0,8.25-5.68,8.25-11C225.51,69.74,223.35,64.06,217.26,64.06z"/>
	</g>
	<g>
		<g>
			<path class="st0" d="M52.26,174.06h-5.5c-1.52,0-2.75-1.23-2.75-2.75v-53.08c0-16.22,13.41-29.42,29.89-29.42h14.11
				c1.52,0,2.75,1.23,2.75,2.75c0,1.52-1.23,2.75-2.75,2.75H73.91c-13.45,0-24.39,10.73-24.39,23.92v50.33h2.75
				c1.52,0,2.75,1.23,2.75,2.75C55.01,172.83,53.78,174.06,52.26,174.06z"/>
			<path class="st0" d="M60.51,229.06c-1.52,0-2.75-1.23-2.75-2.75v-96.25c-1.52,0-2.75-1.23-2.75-2.75c0-1.52,1.23-2.75,2.75-2.75
				h2.75c1.52,0,2.75,1.23,2.75,2.75v99C63.26,227.83,62.03,229.06,60.51,229.06z"/>
			<path class="st0" d="M79.83,229.06c-1.52,0-2.75-1.23-2.75-2.75v-52.25c0-1.52,1.23-2.75,2.75-2.75c1.52,0,2.75,1.23,2.75,2.75
				v52.25C82.58,227.83,81.35,229.06,79.83,229.06z"/>
			<path class="st0" d="M79.83,83.31c-9.87,0-16.5-7.74-16.5-19.25c0-11.51,6.63-19.25,16.5-19.25s16.5,7.74,16.5,19.25
				C96.33,75.57,89.7,83.31,79.83,83.31z M79.83,50.31c-8.11,0-11,7.1-11,13.75c0,6.65,2.89,13.75,11,13.75s11-7.1,11-13.75
				C90.83,57.41,87.94,50.31,79.83,50.31z"/>
		</g>
		<path class="st0" d="M13.76,176.81h-5.5c-1.52,0-2.75-1.23-2.75-2.75v-52.25c0-14.57,11.31-24.75,27.5-24.75h8.25
			c1.52,0,2.75,1.23,2.75,2.75c0,1.52-1.23,2.75-2.75,2.75h-8.25c-13.16,0-22,7.74-22,19.25v49.5h2.75c1.52,0,2.75,1.23,2.75,2.75
			C16.51,175.58,15.28,176.81,13.76,176.81z"/>
		<path class="st0" d="M22.01,229.06c-1.52,0-2.75-1.23-2.75-2.75v-85.25c-1.52,0-2.75-1.23-2.75-2.75c0-1.52,1.23-2.75,2.75-2.75
			h2.75c1.52,0,2.75,1.23,2.75,2.75v88C24.76,227.83,23.53,229.06,22.01,229.06z"/>
		<path class="st0" d="M41.26,229.06c-1.52,0-2.75-1.23-2.75-2.75v-44c0-1.52,1.23-2.75,2.75-2.75c1.52,0,2.75,1.23,2.75,2.75v44
			C44.01,227.83,42.78,229.06,41.26,229.06z"/>
		<path class="st0" d="M38.51,91.56c-8.22,0-13.75-6.63-13.75-16.5c0-9.87,5.53-16.5,13.75-16.5s13.75,6.63,13.75,16.5
			C52.26,84.93,46.74,91.56,38.51,91.56z M38.51,64.06c-6.08,0-8.25,5.68-8.25,11c0,5.32,2.17,11,8.25,11s8.25-5.68,8.25-11
			C46.76,69.74,44.6,64.06,38.51,64.06z"/>
	</g>
	<g>
		<path class="st0" d="M129.26,69.56c-11.51,0-19.25-8.84-19.25-22c0-13.16,7.74-22,19.25-22s19.25,8.84,19.25,22
			C148.51,60.72,140.78,69.56,129.26,69.56z M129.26,31.06c-10.15,0-13.75,8.89-13.75,16.5c0,7.61,3.6,16.5,13.75,16.5
			c10.15,0,13.75-8.89,13.75-16.5C143.01,39.95,139.41,31.06,129.26,31.06z"/>
		<path class="st0" d="M154.01,229.06c-1.52,0-2.75-1.23-2.75-2.75v-90.75c0-1.52,1.23-2.75,2.75-2.75c1.52,0,2.75,1.23,2.75,2.75
			v90.75C156.76,227.83,155.53,229.06,154.01,229.06z"/>
		<path class="st0" d="M137.51,229.06c-1.41,0-2.61-1.08-2.74-2.51l-5.28-60.74h-0.46l-5.28,60.74c-0.13,1.51-1.46,2.64-2.98,2.5
			c-1.51-0.13-2.63-1.46-2.5-2.98l5.5-63.25c0.12-1.42,1.31-2.51,2.74-2.51h5.5c1.43,0,2.62,1.09,2.74,2.51l5.5,63.25
			c0.13,1.51-0.99,2.85-2.5,2.98C137.67,229.06,137.59,229.06,137.51,229.06z"/>
		<path class="st0" d="M104.51,229.06c-1.52,0-2.75-1.23-2.75-2.75v-90.75c0-1.52,1.23-2.75,2.75-2.75c1.52,0,2.75,1.23,2.75,2.75
			v90.75C107.26,227.83,106.03,229.06,104.51,229.06z"/>
		<path class="st0" d="M132.01,80.56h-5.5c-1.52,0-2.75-1.23-2.75-2.75c0-1.52,1.23-2.75,2.75-2.75h5.5c1.52,0,2.75,1.23,2.75,2.75
			C134.76,79.33,133.53,80.56,132.01,80.56z"/>
		<path class="st0" d="M129.26,110.81c-1.52,0-2.75-1.23-2.75-2.75V77.81c0-1.52,1.23-2.75,2.75-2.75c1.52,0,2.75,1.23,2.75,2.75
			v30.25C132.01,109.58,130.78,110.81,129.26,110.81z"/>
		<path class="st0" d="M161.89,135.78h-20.44c-1.98,0-4.92-0.6-7.4-1.36c-0.12,0.03-0.23,0.04-0.36,0.05l-15.82,1.29l-26.76,0.01
			c-3.59,0-7.13-1.52-9.24-3.96c-1.66-1.92-2.38-4.35-2.01-6.84l5.71-31.89c2-9.81,12.9-18.03,23.82-18.03h3.37
			c1.08,0,2.06,0.63,2.51,1.62l14.08,31.25l13.91-31.25c0.44-0.99,1.42-1.62,2.51-1.62h1.97c10.1,0,18.98,7.56,21.1,17.97
			l4.31,31.99c0.44,2.17-0.19,4.54-1.8,6.49C169.21,134.1,165.5,135.78,161.89,135.78z M133.27,128.3c2,0.93,6.3,1.98,8.18,1.98
			h20.44c1.97,0,4.11-0.93,5.21-2.27c0.84-1.02,0.68-1.83,0.62-2.1l-4.31-31.97c-1.57-7.68-8.18-13.38-15.68-13.38h-0.19
			l-13.35,29.63c-1.05,1.96-2.9,3.07-4.93,3.07c-2.03,0-3.88-1.11-4.84-2.89l-13.43-29.81h-1.59c-8.34,0-16.95,6.34-18.42,13.57
			l-5.69,31.74c-0.12,0.84,0.12,1.64,0.75,2.36c1.06,1.23,3.1,2.05,5.08,2.05h26.54l7.79-0.64c-6.14-3.88-17.04-9.78-25.61-8.94
			c-0.87,0.08-1.74-0.25-2.32-0.91c-0.59-0.66-0.82-1.56-0.63-2.42l3.03-13.84c0.33-1.49,1.8-2.42,3.27-2.1
			c1.48,0.33,2.42,1.79,2.1,3.27l-2.29,10.46C116.22,115.96,131.15,126.73,133.27,128.3z"/>
		<path class="st0" d="M100.08,119.92c-0.56,0-1.12-0.17-1.61-0.52c-1.23-0.89-1.51-2.61-0.62-3.84l3.33-4.61
			c1.48-2.05,4.28-3.97,7.46-2.79l10.81,2.02c2.95-0.33,19.19-1.95,30.54,1.62l-0.81-8.16c-0.15-1.51,0.95-2.86,2.47-3.01
			c1.51-0.14,2.86,0.96,3.01,2.47l1.25,12.71c0.1,1.01-0.37,2-1.21,2.56c-0.84,0.56-1.93,0.62-2.83,0.13
			c-10.16-5.47-31.96-2.83-32.17-2.8c-0.28,0.03-0.57,0.03-0.85-0.03l-11.49-2.15c-0.2-0.04-0.4-0.1-0.59-0.18
			c-0.19-0.08-0.77,0.33-1.13,0.83l-3.33,4.61C101.77,119.52,100.93,119.92,100.08,119.92z"/>
	</g>
</g>
</svg>
