<?xml version="1.0" encoding="utf-8"?>
<!-- Generator: Adobe Illustrator 25.4.1, SVG Export Plug-In . SVG Version: 6.00 Build 0)  -->
<svg version="1.1" id="Layer_1" xmlns="http://www.w3.org/2000/svg" xmlns:xlink="http://www.w3.org/1999/xlink" x="0px" y="0px"
	 viewBox="0 0 256 256" style="enable-background:new 0 0 256 256;" xml:space="preserve">
<style type="text/css">
	.st0{fill:#1C2C59;}
</style>
<g>
	<g>
		<g>
			<path class="st0" d="M227.79,175.43H27.99c-12.24,0-22.2-9.96-22.2-22.2V31.13c0-12.24,9.96-22.2,22.2-22.2h199.8
				c12.24,0,22.2,9.96,22.2,22.2v122.1C249.99,165.48,240.03,175.43,227.79,175.43z M27.99,16.33c-8.16,0-14.8,6.64-14.8,14.8v122.1
				c0,8.16,6.64,14.8,14.8,14.8h199.8c8.16,0,14.8-6.64,14.8-14.8V31.13c0-8.16-6.64-14.8-14.8-14.8H27.99z"/>
			<path class="st0" d="M246.29,153.23H9.49c-2.05,0-3.7-1.65-3.7-3.7c0-2.05,1.65-3.7,3.7-3.7h236.8c2.05,0,3.7,1.65,3.7,3.7
				C249.99,151.58,248.33,153.23,246.29,153.23z"/>
		</g>
		<path class="st0" d="M175.99,245.73h-96.2c-2.05,0-3.7-1.65-3.7-3.7v-4.47c0-9.78,7.95-17.73,17.73-17.73h68.14
			c9.78,0,17.73,7.95,17.73,17.73v4.47C179.69,244.08,178.03,245.73,175.99,245.73z M83.49,238.33h88.8v-0.77
			c0-5.69-4.64-10.33-10.33-10.33H93.82c-5.69,0-10.33,4.64-10.33,10.33V238.33z"/>
		<path class="st0" d="M161.18,227.23c-0.97,0-1.93-0.38-2.66-1.13c-0.63-0.66-15.52-16.6-15.83-54.33
			c-0.02-2.05,1.63-3.71,3.67-3.73c0.01,0,0.02,0,0.03,0c2.03,0,3.68,1.64,3.7,3.67c0.29,34.51,13.65,49.14,13.78,49.29
			c1.39,1.49,1.33,3.82-0.14,5.22C163.01,226.89,162.09,227.23,161.18,227.23z"/>
		<path class="st0" d="M94.59,227.23c-0.92,0-1.84-0.34-2.56-1.03c-1.47-1.41-1.52-3.74-0.12-5.22
			c0.22-0.23,13.49-14.88,13.78-49.29c0.02-2.03,1.67-3.67,3.7-3.67c0.01,0,0.02,0,0.03,0c2.04,0.02,3.69,1.69,3.67,3.73
			c-0.31,37.73-15.2,53.67-15.83,54.33C96.53,226.85,95.56,227.23,94.59,227.23z"/>
	</g>
	<g>
		<g>
			<path class="st0" d="M31.69,134.73c-2.05,0-3.7-1.65-3.7-3.7v-96.2c0-2.05,1.65-3.7,3.7-3.7s3.7,1.65,3.7,3.7v96.2
				C35.39,133.08,33.73,134.73,31.69,134.73z"/>
			<path class="st0" d="M101.99,60.73h-70.3c-2.05,0-3.7-1.65-3.7-3.7v-14.8c0-2.05,1.65-3.7,3.7-3.7h70.3c2.05,0,3.7,1.65,3.7,3.7
				v14.8C105.69,59.08,104.03,60.73,101.99,60.73z M35.39,53.33h62.9v-7.4h-62.9V53.33z"/>
			<path class="st0" d="M76.09,94.03h-44.4c-2.05,0-3.7-1.65-3.7-3.7v-14.8c0-2.05,1.65-3.7,3.7-3.7h44.4c2.05,0,3.7,1.65,3.7,3.7
				v14.8C79.79,92.38,78.13,94.03,76.09,94.03z M35.39,86.63h37v-7.4h-37V86.63z"/>
		</g>
		<path class="st0" d="M61.29,127.33h-29.6c-2.05,0-3.7-1.65-3.7-3.7v-14.8c0-2.05,1.65-3.7,3.7-3.7h29.6c2.05,0,3.7,1.65,3.7,3.7
			v14.8C64.99,125.68,63.33,127.33,61.29,127.33z M35.39,119.93h22.2v-7.4h-22.2V119.93z"/>
	</g>
	<path class="st0" d="M187.09,97.73h-22.2c-1.16,0-2.26-0.55-2.96-1.48l-21.09-28.12h-20.35c-2.05,0-3.7-1.65-3.7-3.7
		c0-2.05,1.65-3.7,3.7-3.7h22.2c1.16,0,2.26,0.55,2.96,1.48l21.09,28.12h19.01l21.17-17.64c0.66-0.55,1.5-0.86,2.37-0.86h7.4
		c2.05,0,3.7,1.65,3.7,3.7c0,2.05-1.65,3.7-3.7,3.7h-6.06l-21.17,17.64C188.79,97.43,187.96,97.73,187.09,97.73z"/>
	<g>
		<path class="st0" d="M120.49,134.73c-2.05,0-3.7-1.65-3.7-3.7v-40.7c0-2.05,1.65-3.7,3.7-3.7c2.05,0,3.7,1.65,3.7,3.7v40.7
			C124.19,133.08,122.53,134.73,120.49,134.73z"/>
		<path class="st0" d="M164.89,134.73c-2.05,0-3.7-1.65-3.7-3.7v-18.5c0-2.05,1.65-3.7,3.7-3.7s3.7,1.65,3.7,3.7v18.5
			C168.59,133.08,166.93,134.73,164.89,134.73z"/>
		<path class="st0" d="M187.09,134.73c-2.05,0-3.7-1.65-3.7-3.7v-18.5c0-2.05,1.65-3.7,3.7-3.7c2.05,0,3.7,1.65,3.7,3.7v18.5
			C190.79,133.08,189.13,134.73,187.09,134.73z"/>
		<path class="st0" d="M209.29,134.73c-2.05,0-3.7-1.65-3.7-3.7v-29.6c0-2.05,1.65-3.7,3.7-3.7c2.05,0,3.7,1.65,3.7,3.7v29.6
			C212.99,133.08,211.33,134.73,209.29,134.73z"/>
		<path class="st0" d="M142.69,134.73c-2.05,0-3.7-1.65-3.7-3.7v-40.7c0-2.05,1.65-3.7,3.7-3.7s3.7,1.65,3.7,3.7v40.7
			C146.39,133.08,144.73,134.73,142.69,134.73z"/>
		<path class="st0" d="M220.39,134.73h-111c-2.05,0-3.7-1.65-3.7-3.7c0-2.05,1.65-3.7,3.7-3.7h111c2.05,0,3.7,1.65,3.7,3.7
			C224.09,133.08,222.43,134.73,220.39,134.73z"/>
	</g>
</g>
</svg>
