<?xml version="1.0" encoding="utf-8"?>
<!-- Generator: Adobe Illustrator 25.4.1, SVG Export Plug-In . SVG Version: 6.00 Build 0)  -->
<svg version="1.1" id="Layer_1" xmlns="http://www.w3.org/2000/svg" xmlns:xlink="http://www.w3.org/1999/xlink" x="0px" y="0px"
	 viewBox="0 0 256 256" style="enable-background:new 0 0 256 256;" xml:space="preserve">
<style type="text/css">
	.st0{fill:#1C2C59;}
</style>
<g>
	<g>
		<path class="st0" d="M128.59,225.85c-0.07,0-0.15,0-0.19,0c-0.72-0.03-1.66-0.16-2.8-0.95c-42.76-29.11-54.73-75.19-57.88-93.65
			l-0.04-0.23c-0.13-0.57-0.09-1.16,0.12-1.73c0.38-1.01,1.28-1.74,2.35-1.9c0.68-0.11,8.06-1.45,14.71-2.67l4.64-8.17
			c0.34-0.6,0.88-1.07,1.52-1.32l36.57-14.2c0.7-0.27,1.48-0.27,2.18,0l36.28,14.2c0.64,0.25,1.17,0.71,1.51,1.32l4.64,8.17
			c4.66,0.86,13.36,2.45,14.6,2.66c1.5,0.17,2.66,1.44,2.66,2.98c0,0.18-0.02,0.37-0.05,0.55l-0.07,0.38
			c-3.16,18.44-15.14,64.51-57.91,93.62c-0.84,0.58-1.75,0.9-2.69,0.94C128.71,225.85,128.65,225.85,128.59,225.85z M74.09,132.78
			c3.65,19.03,15.77,60.26,54.44,86.85c38.67-26.6,50.8-67.83,54.45-86.84c-4-0.72-10.77-1.97-13.24-2.42
			c-0.87-0.16-1.63-0.7-2.06-1.47l-4.8-8.46l-34.2-13.39l-34.49,13.39l-4.8,8.46c-0.44,0.77-1.19,1.31-2.07,1.47
			C84.77,130.83,78.07,132.06,74.09,132.78z"/>
		<path class="st0" d="M128.6,205.21c-0.1,0-0.21-0.01-0.31-0.02c-0.42,0-1.28-0.11-2.28-0.79c-29.12-19.83-37.27-51.19-39.43-63.75
			c0-0.03-0.04-0.3-0.05-0.32l0,0c-0.09-0.62,0.01-1.25,0.3-1.82c0.44-0.85,1.26-1.45,2.21-1.59c0.56-0.09,6.09-1.1,9.25-1.68
			c1.14-2.57,2.22-5.05,2.37-5.44c0.08-0.21,0.2-0.45,0.33-0.64c0.53-0.8,0.53-0.8,26.54-10.92c0.7-0.28,1.48-0.27,2.18,0
			c0,0,24.1,9.45,24.85,9.73l0,0c0.75,0.28,1.37,0.85,1.71,1.61l2.5,5.66c2.86,0.52,8.7,1.6,9.24,1.68
			c0.96,0.15,1.79,0.76,2.23,1.62l0.01,0.01c0.28,0.56,0.38,1.2,0.28,1.81c-2.2,12.85-10.35,44.2-39.48,64.03
			c-0.72,0.49-1.48,0.76-2.27,0.8C128.71,205.21,128.66,205.21,128.6,205.21z M129.39,199.45
			C129.39,199.45,129.39,199.45,129.39,199.45C129.39,199.45,129.39,199.45,129.39,199.45z M93.01,142.31
			c2.68,13.16,10.92,39.32,35.52,56.54c24.69-17.28,32.9-43.57,35.53-56.54c-3.26-0.59-7.94-1.45-7.94-1.45
			c-0.98-0.18-1.8-0.83-2.2-1.74c0,0-1.78-4.03-2.66-6.04c-2.6-0.97-8.52-3.29-22.63-8.82c-4.11,1.6-18.62,7.25-22.85,8.9
			c-0.74,1.71-2,4.55-2.63,5.98c-0.4,0.9-1.23,1.55-2.2,1.73l-1.23,0.23C97.9,141.42,95.14,141.92,93.01,142.31z"/>
	</g>
	<g>
		<g>
			<rect x="100.89" y="202.82" class="st0" width="6" height="18"/>
			<rect x="148.89" y="202.82" class="st0" width="6" height="18"/>
			<path class="st0" d="M164.7,108.86c-4.4-12.32-14.91-20.04-27.81-20.04h-18c-12.9,0-23.44,7.75-27.83,20.1l-7.08,2.94
				c3.96-17.64,17.67-29.04,34.91-29.04h18c17.36,0,31.09,11.5,34.97,29.31L164.7,108.86z"/>
			<path class="st0" d="M127.89,76.82c-12.56,0-21-9.64-21-24s8.44-24,21-24s21,9.64,21,24S140.45,76.82,127.89,76.82z
				 M127.89,34.82c-11.07,0-15,9.7-15,18s3.93,18,15,18s15-9.7,15-18S138.96,34.82,127.89,34.82z"/>
		</g>
		<g>
			<polygon class="st0" points="184.89,220.82 178.89,220.82 178.89,178.82 184.89,169.82 			"/>
			<path class="st0" d="M232.89,220.82h-6v-90c0-1.66,1.34-3,3-3h6v6h-3V220.82z"/>
			<rect x="202.89" y="175.82" class="st0" width="6" height="45"/>
			<path class="st0" d="M247.89,181.82h-9v-6h6v-54c0-19.12-12.62-33-30-33h-18c-8.68,0-16.2,3.33-21.75,9.64l-4.51-3.96
				c6.62-7.53,15.95-11.68,26.25-11.68h18c20.52,0,36,16.77,36,39v57C250.89,180.48,249.55,181.82,247.89,181.82z"/>
			<path class="st0" d="M205.89,76.82c-12.56,0-21-9.64-21-24s8.44-24,21-24c12.56,0,21,9.64,21,24S218.45,76.82,205.89,76.82z
				 M205.89,34.82c-11.07,0-15,9.7-15,18s3.93,18,15,18c11.07,0,15-9.7,15-18S216.96,34.82,205.89,34.82z"/>
			<g>
				<rect x="202.89" y="109.82" class="st0" width="6" height="6"/>
				<rect x="202.89" y="127.82" class="st0" width="6" height="6"/>
				<rect x="202.89" y="145.82" class="st0" width="6" height="6"/>
			</g>
		</g>
		<g>
			<polygon class="st0" points="76.89,220.82 70.89,220.82 70.89,166.82 76.89,175.82 			"/>
			<path class="st0" d="M28.89,220.82h-6v-87h-3v-6h6c1.66,0,3,1.34,3,3V220.82z"/>
			<rect x="46.89" y="175.82" class="st0" width="6" height="45"/>
			<path class="st0" d="M16.89,181.82h-9c-1.66,0-3-1.34-3-3v-57c0-22.23,15.48-39,36-39h18c10.31,0,19.63,4.15,26.25,11.68
				l-4.51,3.96c-5.54-6.31-13.07-9.64-21.75-9.64h-18c-17.38,0-30,13.88-30,33v54h6V181.82z"/>
			<path class="st0" d="M49.89,76.82c-12.56,0-21-9.64-21-24s8.44-24,21-24s21,9.64,21,24S62.45,76.82,49.89,76.82z M49.89,34.82
				c-11.07,0-15,9.7-15,18s3.93,18,15,18s15-9.7,15-18S60.96,34.82,49.89,34.82z"/>
			<g>
				<rect x="46.89" y="109.82" class="st0" width="6" height="6"/>
				<rect x="46.89" y="127.82" class="st0" width="6" height="6"/>
				<rect x="46.89" y="145.82" class="st0" width="6" height="6"/>
			</g>
		</g>
	</g>
</g>
</svg>
