<?xml version="1.0" encoding="utf-8"?>
<!-- Generator: Adobe Illustrator 25.4.1, SVG Export Plug-In . SVG Version: 6.00 Build 0)  -->
<svg version="1.1" id="Layer_1" xmlns="http://www.w3.org/2000/svg" xmlns:xlink="http://www.w3.org/1999/xlink" x="0px" y="0px"
	 viewBox="0 0 256 256" style="enable-background:new 0 0 256 256;" xml:space="preserve">
<style type="text/css">
	.st0{fill:#1C2C59;}
</style>
<g>
	<path class="st0" d="M108.09,157.64h-29.7c-1.82,0-3.3-1.48-3.3-3.3s1.48-3.3,3.3-3.3h29.7c1.82,0,3.3,1.48,3.3,3.3
		S109.91,157.64,108.09,157.64z"/>
	<path class="st0" d="M177.39,157.64h-29.7c-1.82,0-3.3-1.48-3.3-3.3s1.48-3.3,3.3-3.3h29.7c1.82,0,3.3,1.48,3.3,3.3
		S179.21,157.64,177.39,157.64z"/>
	<path class="st0" d="M207.09,147.74c-1.82,0-3.3-1.48-3.3-3.3v-89.1c0-1.82-1.48-3.3-3.3-3.3H55.29c-1.82,0-3.3,1.48-3.3,3.3v89.1
		c0,1.82-1.48,3.3-3.3,3.3s-3.3-1.48-3.3-3.3v-89.1c0-5.46,4.44-9.9,9.9-9.9h145.2c5.46,0,9.9,4.44,9.9,9.9v89.1
		C210.39,146.26,208.91,147.74,207.09,147.74z"/>
	<path class="st0" d="M110.04,51.27c-0.27,0-0.55-0.03-0.83-0.1c-1.76-0.45-2.83-2.26-2.37-4.02c2.49-9.69,11.23-16.46,21.25-16.46
		c10.01,0,18.75,6.76,21.24,16.44c0.46,1.77-0.61,3.56-2.37,4.02c-1.76,0.45-3.56-0.61-4.02-2.37c-1.75-6.77-7.85-11.49-14.85-11.49
		c-7,0-13.11,4.73-14.86,11.5C112.85,50.28,111.51,51.27,110.04,51.27z"/>
	<path class="st0" d="M118.77,39.62c-0.84,0-1.69-0.32-2.33-0.97l-13.98-13.98c-1.29-1.29-1.29-3.38,0-4.67
		c1.29-1.29,3.38-1.29,4.67,0l13.98,13.98c1.29,1.29,1.29,3.38,0,4.67C120.46,39.3,119.62,39.62,118.77,39.62z"/>
	<path class="st0" d="M137.41,39.62c-0.74,0-1.49-0.25-2.11-0.76c-1.4-1.17-1.59-3.25-0.42-4.65l11.65-13.98
		c1.16-1.4,3.24-1.59,4.65-0.43c1.4,1.17,1.59,3.25,0.42,4.65l-11.65,13.98C139.29,39.22,138.35,39.62,137.41,39.62z"/>
	<g>
		<path class="st0" d="M246.69,236.84H9.09c-1.82,0-3.3-1.48-3.3-3.3c0-18.2,14.8-33,33-33h19.8c17.08,0,31.17,13.05,32.84,29.7
			h155.26c1.82,0,3.3,1.48,3.3,3.3S248.51,236.84,246.69,236.84z M12.59,230.24h72.19c-1.63-13-12.76-23.1-26.2-23.1h-19.8
			C25.35,207.14,14.22,217.24,12.59,230.24z"/>
		<path class="st0" d="M246.69,236.84c-1.82,0-3.3-1.48-3.3-3.3c0-14.56-11.84-26.4-26.4-26.4h-19.8c-14.56,0-26.4,11.84-26.4,26.4
			c0,1.82-1.48,3.3-3.3,3.3c-1.82,0-3.3-1.48-3.3-3.3c0-18.2,14.8-33,33-33h19.8c18.2,0,33,14.8,33,33
			C249.99,235.36,248.51,236.84,246.69,236.84z"/>
		<path class="st0" d="M167.49,236.84c-1.82,0-3.3-1.48-3.3-3.3c0-14.56-11.84-26.4-26.4-26.4h-19.8c-14.56,0-26.4,11.84-26.4,26.4
			c0,1.82-1.48,3.3-3.3,3.3s-3.3-1.48-3.3-3.3c0-18.2,14.8-33,33-33h19.8c18.2,0,33,14.8,33,33
			C170.79,235.36,169.31,236.84,167.49,236.84z"/>
		<path class="st0" d="M207.09,193.94c-13.82,0-23.1-10.61-23.1-26.4s9.28-26.4,23.1-26.4c13.82,0,23.1,10.61,23.1,26.4
			S220.91,193.94,207.09,193.94z M207.09,147.74c-12.18,0-16.5,10.67-16.5,19.8s4.32,19.8,16.5,19.8c12.18,0,16.5-10.67,16.5-19.8
			S219.27,147.74,207.09,147.74z"/>
		<path class="st0" d="M127.89,193.94c-13.82,0-23.1-10.61-23.1-26.4s9.28-26.4,23.1-26.4s23.1,10.61,23.1,26.4
			S141.71,193.94,127.89,193.94z M127.89,147.74c-12.18,0-16.5,10.67-16.5,19.8s4.32,19.8,16.5,19.8s16.5-10.67,16.5-19.8
			S140.07,147.74,127.89,147.74z"/>
		<path class="st0" d="M48.69,193.94c-13.82,0-23.1-10.61-23.1-26.4s9.28-26.4,23.1-26.4s23.1,10.61,23.1,26.4
			S62.51,193.94,48.69,193.94z M48.69,147.74c-12.18,0-16.5,10.67-16.5,19.8s4.32,19.8,16.5,19.8s16.5-10.67,16.5-19.8
			S60.87,147.74,48.69,147.74z"/>
	</g>
	<path class="st0" d="M115.35,134.82c-1.41,0-2.8-0.44-3.99-1.31c-2.11-1.53-3.15-4.08-2.7-6.65l1.83-10.68l-7.76-7.56
		c-1.87-1.82-2.53-4.49-1.72-6.97c0.81-2.48,2.91-4.25,5.49-4.63l10.73-1.56l4.79-9.72c1.16-2.34,3.49-3.79,6.1-3.79c0,0,0,0,0,0
		c2.61,0,4.95,1.45,6.1,3.79l4.8,9.72l10.72,1.56c2.58,0.37,4.69,2.15,5.49,4.63c0.81,2.48,0.15,5.15-1.72,6.97l-7.76,7.56
		l1.83,10.68c0.44,2.57-0.6,5.12-2.71,6.65c-2.11,1.53-4.85,1.73-7.16,0.52l-9.59-5.04l-9.59,5.04
		C117.52,134.56,116.43,134.82,115.35,134.82z M128.11,88.55l-5.74,11.39c-0.48,0.97-1.41,1.65-2.48,1.8l-12.44,1.81
		c0,0-0.11,0.35-0.11,0.35l9,8.78c0.78,0.76,1.13,1.85,0.95,2.92l-2.13,12.39l1.83,3.14l-1.54-2.92l11.13-5.85
		c0.96-0.51,2.11-0.51,3.07,0l11.13,5.85l3.55-0.77l-3.25,0.56l-2.13-12.39c-0.18-1.07,0.17-2.16,0.95-2.92l9-8.78l0.36-3.61
		l-0.48,3.26l-12.44-1.81c-1.07-0.15-2-0.83-2.48-1.8l-5.56-11.27c0,0,0,0,0,0C128.27,88.6,128.24,88.55,128.11,88.55z"/>
	<path class="st0" d="M152.92,85.04c-0.84,0-1.69-0.32-2.33-0.97c-1.29-1.29-1.29-3.38,0-4.67l4.67-4.67c1.29-1.29,3.38-1.29,4.67,0
		c1.29,1.29,1.29,3.38,0,4.67l-4.67,4.67C154.61,84.72,153.77,85.04,152.92,85.04z"/>
	<path class="st0" d="M104.79,85.04c-0.84,0-1.69-0.32-2.33-0.97l-4.67-4.67c-1.29-1.29-1.29-3.38,0-4.67
		c1.29-1.29,3.38-1.29,4.67,0l4.67,4.67c1.29,1.29,1.29,3.38,0,4.67C106.48,84.72,105.63,85.04,104.79,85.04z"/>
	<path class="st0" d="M177.39,111.44h-6.6c-1.82,0-3.3-1.48-3.3-3.3c0-1.82,1.48-3.3,3.3-3.3h6.6c1.82,0,3.3,1.48,3.3,3.3
		C180.69,109.96,179.21,111.44,177.39,111.44z"/>
	<path class="st0" d="M88.29,111.44h-6.6c-1.82,0-3.3-1.48-3.3-3.3c0-1.82,1.48-3.3,3.3-3.3h6.6c1.82,0,3.3,1.48,3.3,3.3
		C91.59,109.96,90.11,111.44,88.29,111.44z"/>
	<path class="st0" d="M127.89,71.84c-1.82,0-3.3-1.48-3.3-3.3v-6.6c0-1.82,1.48-3.3,3.3-3.3c1.82,0,3.3,1.48,3.3,3.3v6.6
		C131.19,70.36,129.71,71.84,127.89,71.84z"/>
</g>
</svg>
