<?xml version="1.0" encoding="utf-8"?>
<!-- Generator: Adobe Illustrator 25.4.1, SVG Export Plug-In . SVG Version: 6.00 Build 0)  -->
<svg version="1.1" id="Layer_1" xmlns="http://www.w3.org/2000/svg" xmlns:xlink="http://www.w3.org/1999/xlink" x="0px" y="0px"
	 viewBox="0 0 256 256" style="enable-background:new 0 0 256 256;" xml:space="preserve">
<style type="text/css">
	.st0{fill:#1C2C59;}
</style>
<g>
	<path class="st0" d="M200.72,203.08c-14.59,0-26.47-11.87-26.47-26.47c0-14.59,11.87-26.47,26.47-26.47
		c14.59,0,26.47,11.87,26.47,26.47C227.19,191.2,215.32,203.08,200.72,203.08z M200.72,157.54c-10.51,0-19.07,8.55-19.07,19.07
		c0,10.51,8.55,19.07,19.07,19.07c10.51,0,19.07-8.56,19.07-19.07C219.79,166.09,211.24,157.54,200.72,157.54z"/>
	<path class="st0" d="M59.58,203.08c-14.6,0-26.47-11.87-26.47-26.47c0-14.59,11.87-26.47,26.47-26.47
		c14.59,0,26.47,11.87,26.47,26.47C86.04,191.2,74.17,203.08,59.58,203.08z M59.58,157.54c-10.51,0-19.07,8.55-19.07,19.07
		c0,10.51,8.55,19.07,19.07,19.07c10.51,0,19.07-8.56,19.07-19.07C78.64,166.09,70.09,157.54,59.58,157.54z"/>
	<path class="st0" d="M196.22,139.94h-7.04c-2.05,0-3.7-1.66-3.7-3.7c0-2.04,1.65-3.7,3.7-3.7h7.04c2.05,0,3.7,1.66,3.7,3.7
		C199.92,138.28,198.26,139.94,196.22,139.94z"/>
	<g>
		<path class="st0" d="M238.45,175.14h-5.27c-2.05,0-3.7-1.65-3.7-3.7s1.65-3.7,3.7-3.7h2.05l7.11-51.91l-23.54-42.76h-40.05
			l-13.46,94.67h13.33c2.05,0,3.7,1.65,3.7,3.7s-1.65,3.7-3.7,3.7h-17.6c-1.07,0-2.09-0.47-2.79-1.28c-0.7-0.81-1.02-1.88-0.87-2.94
			l14.51-102.07c0.26-1.82,1.82-3.18,3.66-3.18h45.45c1.35,0,2.59,0.73,3.24,1.92l25.19,45.75c0.38,0.7,0.53,1.5,0.43,2.29
			l-7.72,56.32C241.87,173.77,240.3,175.14,238.45,175.14z"/>
		<path class="st0" d="M246.17,118.82h-59.61c-1.07,0-2.09-0.46-2.79-1.27c-0.7-0.81-1.02-1.88-0.87-2.94l4.47-31.68
			c0.29-2.02,2.11-3.45,4.18-3.15c2.02,0.29,3.43,2.16,3.15,4.18l-3.87,27.46h55.36c2.05,0,3.7,1.66,3.7,3.7
			C249.87,117.17,248.22,118.82,246.17,118.82z"/>
		<path class="st0" d="M36.52,175.14H11.43c-1.08,0-2.11-0.47-2.81-1.29c-0.7-0.82-1.01-1.91-0.85-2.98l5.11-32.81
			c0.31-2.02,2.19-3.39,4.23-3.09c2.02,0.31,3.4,2.21,3.09,4.23l-4.44,28.54h20.76c2.04,0,3.7,1.65,3.7,3.7
			S38.56,175.14,36.52,175.14z"/>
		<path class="st0" d="M161.02,175.14H93.27c-2.04,0-3.7-1.65-3.7-3.7s1.66-3.7,3.7-3.7h64.54l15.46-108.75H62.39
			c-2.04,0-3.7-1.66-3.7-3.7c0-2.04,1.66-3.7,3.7-3.7h115.14c1.07,0,2.09,0.46,2.79,1.28c0.7,0.81,1.02,1.88,0.87,2.94
			l-16.51,116.15C164.42,173.78,162.86,175.14,161.02,175.14z"/>
	</g>
</g>
<path class="st0" d="M102.11,79.43h-74c-2.04,0-3.7-1.66-3.7-3.7c0-2.04,1.66-3.7,3.7-3.7h74c2.04,0,3.7,1.66,3.7,3.7
	C105.81,77.77,104.15,79.43,102.11,79.43z"/>
<path class="st0" d="M83.61,101.63h-74c-2.04,0-3.7-1.66-3.7-3.7c0-2.04,1.66-3.7,3.7-3.7h74c2.04,0,3.7,1.66,3.7,3.7
	C87.31,99.97,85.65,101.63,83.61,101.63z"/>
<path class="st0" d="M72.51,123.83h-33.3c-2.04,0-3.7-1.66-3.7-3.7c0-2.04,1.66-3.7,3.7-3.7h33.3c2.04,0,3.7,1.66,3.7,3.7
	C76.21,122.17,74.55,123.83,72.51,123.83z"/>
</svg>
