<?xml version="1.0" encoding="utf-8"?>
<!-- Generator: Adobe Illustrator 25.4.1, SVG Export Plug-In . SVG Version: 6.00 Build 0)  -->
<svg version="1.1" id="Layer_1" xmlns="http://www.w3.org/2000/svg" xmlns:xlink="http://www.w3.org/1999/xlink" x="0px" y="0px"
	 viewBox="0 0 256 256" style="enable-background:new 0 0 256 256;" xml:space="preserve">
<style type="text/css">
	.st0{fill:#1C2C59;}
</style>
<g>
	<g>
		<path class="st0" d="M224.55,242.83c-1.82,0-3.3-1.48-3.3-3.3v-39.6c0-1.82,1.48-3.3,3.3-3.3c1.82,0,3.3,1.48,3.3,3.3v39.6
			C227.85,241.35,226.38,242.83,224.55,242.83z"/>
		<g>
			<path class="st0" d="M234.45,203.23h-66c-0.93,0-1.82-0.39-2.44-1.08c-0.63-0.69-0.93-1.61-0.84-2.53l6.26-65.7
				c-1.67-0.16-2.97-1.57-2.97-3.28c0-1.82,1.48-3.3,3.3-3.3h3.3c0.93,0,1.82,0.39,2.44,1.08c0.63,0.69,0.93,1.61,0.84,2.53
				l-6.26,65.69h58.74l-6.26-65.69c-0.09-0.92,0.22-1.85,0.84-2.53c0.63-0.69,1.51-1.08,2.44-1.08h3.3c1.82,0,3.3,1.48,3.3,3.3
				c0,1.71-1.31,3.12-2.97,3.28l6.26,65.7c0.09,0.92-0.22,1.84-0.84,2.53C236.27,202.84,235.38,203.23,234.45,203.23z"/>
			<path class="st0" d="M201.45,242.83c-1.82,0-3.3-1.48-3.3-3.3v-39.6c0-1.82,1.48-3.3,3.3-3.3c1.82,0,3.3,1.48,3.3,3.3v39.6
				C204.75,241.35,203.28,242.83,201.45,242.83z"/>
			<path class="st0" d="M178.35,242.83c-1.82,0-3.3-1.48-3.3-3.3v-39.6c0-1.82,1.48-3.3,3.3-3.3c1.82,0,3.3,1.48,3.3,3.3v39.6
				C181.65,241.35,180.18,242.83,178.35,242.83z"/>
			<path class="st0" d="M161.85,180.13h-6.6c-0.92,0-1.8-0.39-2.43-1.07c-0.63-0.68-0.94-1.59-0.86-2.51l4.75-56.17
				c4.12-23.62,18.44-35.95,41.44-35.95h6.6c9.8,0,18.1,2.24,24.64,6.65c1.51,1.02,1.91,3.07,0.89,4.58
				c-1.02,1.51-3.07,1.91-4.58,0.89c-5.44-3.67-12.49-5.53-20.95-5.53h-6.6c-19.92,0-31.34,9.88-34.9,30.2l-4.41,52.3h3.01
				c1.82,0,3.3,1.48,3.3,3.3C165.15,178.65,163.68,180.13,161.85,180.13z"/>
			<path class="st0" d="M247.65,180.13h-6.6c-1.82,0-3.3-1.48-3.3-3.3c0-1.82,1.48-3.3,3.3-3.3h3.01l-4.45-52.59
				c-0.53-2.98-1.34-6.04-2.35-8.81c-0.63-1.71,0.25-3.61,1.97-4.23c1.71-0.62,3.61,0.26,4.23,1.97c1.14,3.13,2.05,6.57,2.69,10.23
				l4.79,56.46c0.08,0.92-0.23,1.83-0.86,2.51C249.46,179.75,248.58,180.13,247.65,180.13z"/>
			<g>
				<g>
					<path class="st0" d="M201.38,76.34c-12.63,0-21.45-10.18-21.45-24.75c0-14.57,8.82-24.75,21.45-24.75c1.82,0,3.3,1.48,3.3,3.3
						c0,1.82-1.48,3.3-3.3,3.3c-10.96,0-14.85,9.78-14.85,18.15s3.89,18.15,14.85,18.15c10.96,0,14.85-9.78,14.85-18.15
						c0-3.25-0.53-6.23-1.56-8.86c-0.67-1.7,0.16-3.61,1.86-4.28c1.69-0.68,3.61,0.16,4.28,1.86c1.34,3.4,2.02,7.2,2.02,11.28
						C222.83,66.16,214.01,76.34,201.38,76.34z"/>
					<path class="st0" d="M217.71,44.78c-8.64,0-16.62-5.58-19.41-13.56c-0.6-1.72,0.31-3.6,2.03-4.2c1.71-0.6,3.6,0.31,4.2,2.03
						c1.84,5.29,7.39,9.13,13.17,9.13c1.82,0,3.3,1.48,3.3,3.3C221.01,43.3,219.53,44.78,217.71,44.78z"/>
				</g>
				<path class="st0" d="M242.15,75.87c-2.8,0-5.31-1-7.27-2.91c-5.7-5.54-5.76-17.39-5.79-26.04c-0.01-1.2-0.01-2.3-0.04-3.25
					c-0.37-14.67-7.48-22.51-21.12-23.29l-8.93-0.1c-0.07,0-0.14,0-0.2,0c-9.47,0-24.5,6.31-25.09,23.42
					c-0.04,1.05-0.05,2.27-0.06,3.62c-0.07,7.62-0.16,18.05-4.35,23.96c-1.05,1.49-3.11,1.84-4.6,0.78
					c-1.49-1.05-1.84-3.11-0.79-4.6c3-4.23,3.08-13.84,3.14-20.21c0.01-1.4,0.03-2.68,0.06-3.78c0.74-21.77,19.72-29.8,31.69-29.8
					c0.09,0,0.17,0,0.26,0l9.08,0.1c10.1,0.57,26.88,5.19,27.5,29.72c0.02,0.99,0.03,2.14,0.04,3.39c0.03,6.63,0.08,17.73,3.8,21.34
					c0.77,0.74,1.57,1.06,2.79,1.04c1.79-0.2,3.34,1.4,3.38,3.22c0.04,1.82-1.4,3.33-3.22,3.38
					C242.33,75.87,242.24,75.87,242.15,75.87z"/>
			</g>
		</g>
	</g>
	<g>
		<g>
			<path class="st0" d="M97.45,242.83c-1.82,0-3.3-1.48-3.3-3.3v-39.6c0-1.82,1.48-3.3,3.3-3.3c1.82,0,3.3,1.48,3.3,3.3v39.6
				C100.75,241.35,99.27,242.83,97.45,242.83z"/>
			<g>
				<path class="st0" d="M156.85,242.83c-1.82,0-3.3-1.48-3.3-3.3v-39.6c0-1.82,1.48-3.3,3.3-3.3c1.82,0,3.3,1.48,3.3,3.3v39.6
					C160.15,241.35,158.68,242.83,156.85,242.83z"/>
				<path class="st0" d="M127.15,242.83c-1.82,0-3.3-1.48-3.3-3.3v-66c0-1.82,1.48-3.3,3.3-3.3c1.82,0,3.3,1.48,3.3,3.3v66
					C130.45,241.35,128.97,242.83,127.15,242.83z"/>
				<path class="st0" d="M166.82,89.64c-0.92,0-1.83-0.38-2.48-1.13c-6.1-6.98-14.39-10.67-23.98-10.67h-33c0,0-0.01,0-0.02,0
					c-14.95,0-17.85,2.02-25.6,7.43l-1.14,0.79c-1.5,1.04-3.56,0.67-4.59-0.83c-1.04-1.5-0.67-3.55,0.83-4.59l1.13-0.79
					c8.23-5.73,12.36-8.61,29.38-8.61c0.01,0,0.01,0,0.01,0h33c11.38,0,21.66,4.59,28.95,12.93c1.2,1.37,1.06,3.46-0.31,4.66
					C168.36,89.37,167.59,89.64,166.82,89.64z"/>
				<path class="st0" d="M127.15,64.63c-13.82,0-23.1-10.61-23.1-26.4c0-15.79,9.28-26.4,23.1-26.4c13.82,0,23.1,10.61,23.1,26.4
					C150.25,54.03,140.97,64.63,127.15,64.63z M127.15,18.43c-12.18,0-16.5,10.67-16.5,19.8c0,9.13,4.32,19.8,16.5,19.8
					s16.5-10.67,16.5-19.8C143.65,29.1,139.33,18.43,127.15,18.43z"/>
			</g>
		</g>
		<path class="st0" d="M97.45,190.03h-3.3c-1.82,0-3.3-1.48-3.3-3.3s1.48-3.3,3.3-3.3v-60.4c0-15.83-13.13-28.7-29.27-28.7l-20.66,0
			c-2.05,0-4.1,0.21-6.08,0.62c-1.79,0.36-3.53-0.78-3.9-2.56c-0.37-1.78,0.78-3.53,2.56-3.9c2.42-0.5,4.92-0.76,7.42-0.76l20.66,0
			c19.78,0,35.87,15.84,35.87,35.3v63.7C100.75,188.55,99.27,190.03,97.45,190.03z"/>
		<path class="st0" d="M14.95,190.03h-3.3c-1.82,0-3.3-1.48-3.3-3.3v-67c0-1.82,1.48-3.3,3.3-3.3c1.82,0,3.3,1.48,3.3,3.3v63.7
			c1.82,0,3.3,1.48,3.3,3.3C18.25,188.56,16.77,190.03,14.95,190.03z"/>
		<path class="st0" d="M28.15,242.83c-1.82,0-3.3-1.48-3.3-3.3v-102.3c-1.82,0-3.3-1.48-3.3-3.3c0-1.82,1.48-3.3,3.3-3.3h3.3
			c1.82,0,3.3,1.48,3.3,3.3v105.6C31.45,241.35,29.97,242.83,28.15,242.83z"/>
		<path class="st0" d="M54.55,242.83c-1.82,0-3.3-1.48-3.3-3.3v-59.4c0-1.82,1.48-3.3,3.3-3.3s3.3,1.48,3.3,3.3v59.4
			C57.85,241.35,56.37,242.83,54.55,242.83z"/>
		<path class="st0" d="M54.55,81.13c-11.84,0-19.8-9.28-19.8-23.1s7.96-23.1,19.8-23.1s19.8,9.28,19.8,23.1S66.39,81.13,54.55,81.13
			z M54.55,41.53c-9.73,0-13.2,8.52-13.2,16.5s3.47,16.5,13.2,16.5s13.2-8.52,13.2-16.5S64.28,41.53,54.55,41.53z"/>
		<path class="st0" d="M80.95,242.83c-1.82,0-3.3-1.48-3.3-3.3v-105.6c0-1.82,1.48-3.3,3.3-3.3h3.3c1.82,0,3.3,1.48,3.3,3.3
			c0,1.82-1.48,3.3-3.3,3.3v102.3C84.25,241.35,82.77,242.83,80.95,242.83z"/>
		<path class="st0" d="M17.38,114.35c-2.6,0-5.18-1.09-6.99-3.22l-3.07-3.6c-1.59-1.87-2.36-4.24-2.17-6.69
			c0.19-2.45,1.33-4.67,3.2-6.26l6.11-5.21c1.87-1.59,4.25-2.36,6.69-2.17c2.44,0.19,4.67,1.33,6.26,3.2l3.07,3.6
			c3.29,3.85,2.83,9.66-1.03,12.95l-6.11,5.21C21.6,113.63,19.49,114.35,17.38,114.35z M20.41,93.77c-0.61,0-1.2,0.22-1.67,0.62l0,0
			l-6.11,5.21c-0.53,0.45-0.84,1.07-0.9,1.76c-0.05,0.69,0.16,1.36,0.61,1.88l3.07,3.6c0.92,1.08,2.56,1.21,3.64,0.29l6.11-5.21
			c1.08-0.92,1.21-2.56,0.29-3.64l-3.07-3.6c-0.45-0.53-1.07-0.84-1.76-0.9C20.55,93.77,20.48,93.77,20.41,93.77z M16.6,91.88h0.03
			H16.6z"/>
	</g>
	<path class="st0" d="M236.98,114.35c-2.18,0-4.27-0.77-5.94-2.2l-6.12-5.21c-3.85-3.29-4.31-9.09-1.02-12.95l3.07-3.6
		c1.59-1.87,3.81-3,6.26-3.2c2.47-0.19,4.82,0.58,6.69,2.17l6.11,5.21c1.87,1.59,3,3.81,3.19,6.26c0.19,2.44-0.58,4.82-2.17,6.69
		l-3.07,3.6c-1.59,1.87-3.82,3-6.26,3.2C237.47,114.35,237.23,114.35,236.98,114.35z M233.96,93.77c-0.07,0-0.14,0-0.21,0.01
		c-0.69,0.05-1.31,0.37-1.76,0.9l-3.07,3.6c-0.92,1.08-0.79,2.72,0.29,3.64l6.11,5.21c1.08,0.93,2.72,0.8,3.64-0.29l3.07-3.6
		c0.45-0.53,0.66-1.19,0.61-1.88c-0.05-0.69-0.37-1.31-0.9-1.76l-6.12-5.21l0,0C235.16,93.99,234.57,93.77,233.96,93.77z"/>
</g>
</svg>
