<?xml version="1.0" encoding="utf-8"?>
<!-- Generator: Adobe Illustrator 25.4.1, SVG Export Plug-In . SVG Version: 6.00 Build 0)  -->
<svg version="1.1" id="Layer_1" xmlns="http://www.w3.org/2000/svg" xmlns:xlink="http://www.w3.org/1999/xlink" x="0px" y="0px"
	 viewBox="0 0 256 256" style="enable-background:new 0 0 256 256;" xml:space="preserve">
<style type="text/css">
	.st0{fill:#1C2C59;}
</style>
<g>
	<path class="st0" d="M23.11,105.88h-1.64c-8.65,0-15.68-7.03-15.68-15.68V76.18c0-1.82,1.48-3.3,3.3-3.3h26.4
		c1.82,0,3.3,1.48,3.3,3.3V90.2C38.79,98.85,31.75,105.88,23.11,105.88z M12.39,79.48V90.2c0,5.01,4.07,9.08,9.08,9.08h1.64
		c5.01,0,9.08-4.08,9.08-9.08V79.48H12.39z"/>
	<path class="st0" d="M12.39,79.48L12.39,79.48c-1.82,0-3.3-1.48-3.3-3.3l0-16.5c0-1.82,1.48-3.3,3.3-3.3l0,0
		c1.82,0,3.3,1.48,3.3,3.3l0,16.5C15.69,78.01,14.21,79.48,12.39,79.48z"/>
	<path class="st0" d="M32.19,79.48L32.19,79.48c-1.82,0-3.3-1.48-3.3-3.3l0-16.5c0-1.82,1.48-3.3,3.3-3.3l0,0
		c1.82,0,3.3,1.48,3.3,3.3l0,16.5C35.49,78.01,34.01,79.48,32.19,79.48z"/>
	<path class="st0" d="M58.59,171.88H31.64c-6.98,0-12.65-5.68-12.65-12.65v-56.65h6.6v56.65c0,3.34,2.71,6.05,6.05,6.05h26.95
		V171.88z"/>
	<path class="st0" d="M101.49,198.28c-10.92,0-19.8-8.88-19.8-19.8s8.88-19.8,19.8-19.8c10.92,0,19.8,8.88,19.8,19.8
		S112.41,198.28,101.49,198.28z M101.49,165.28c-7.28,0-13.2,5.92-13.2,13.2c0,7.28,5.92,13.2,13.2,13.2c7.28,0,13.2-5.92,13.2-13.2
		C114.69,171.2,108.77,165.28,101.49,165.28z"/>
	<path class="st0" d="M200.49,198.28c-10.92,0-19.8-8.88-19.8-19.8s8.88-19.8,19.8-19.8c10.92,0,19.8,8.88,19.8,19.8
		S211.41,198.28,200.49,198.28z M200.49,165.28c-7.28,0-13.2,5.92-13.2,13.2c0,7.28,5.92,13.2,13.2,13.2c7.28,0,13.2-5.92,13.2-13.2
		C213.69,171.2,207.77,165.28,200.49,165.28z"/>
	<path class="st0" d="M246.69,181.78h-29.7v-6.6h26.4v-19.75c0-4.4-2.95-8.31-7.18-9.52l-13.53-3.86c-0.69-0.2-1.3-0.62-1.73-1.19
		l-21.09-28.12c-4.77-6.36-12.37-10.16-20.32-10.16H79.13c-2.92,0-5.45,1.88-6.28,4.68l-7.79,25.97l-3.16,9.49v32.47h13.2v6.6h-16.5
		c-1.82,0-3.3-1.48-3.3-3.3v-36.3c0-0.35,0.06-0.71,0.17-1.04l3.3-9.9l7.76-25.88c1.68-5.61,6.75-9.38,12.61-9.38h100.41
		c10.02,0,19.59,4.79,25.6,12.8l20.42,27.23l12.46,3.56c7.05,2.01,11.97,8.54,11.97,15.87v23.05
		C249.99,180.31,248.51,181.78,246.69,181.78z"/>
	<rect x="117.99" y="175.18" class="st0" width="56.1" height="6.6"/>
	<path class="st0" d="M223.59,142.18h-49.5c-1.82,0-3.3-1.48-3.3-3.3v-39.6h6.6v36.3h46.2V142.18z"/>
	<polygon class="st0" points="177.39,142.18 75.09,142.18 78.39,135.58 177.39,135.58 	"/>
	<polygon class="st0" points="117.99,155.38 111.39,152.08 111.39,99.28 117.99,99.28 	"/>
	<rect x="230.19" y="158.68" class="st0" width="6.6" height="6.6"/>
</g>
</svg>
