<?xml version="1.0" encoding="utf-8"?>
<!-- Generator: Adobe Illustrator 25.4.1, SVG Export Plug-In . SVG Version: 6.00 Build 0)  -->
<svg version="1.1" id="Layer_1" xmlns="http://www.w3.org/2000/svg" xmlns:xlink="http://www.w3.org/1999/xlink" x="0px" y="0px"
	 viewBox="0 0 256 256" style="enable-background:new 0 0 256 256;" xml:space="preserve">
<style type="text/css">
	.st0{fill:#1C2C59;}
</style>
<g>
	<g>
		<g>
			<path class="st0" d="M156.76,157.71c-2.36,0-5.12-0.37-8.26-1.12c-7.64-1.82-16.87-5.72-25.99-10.98
				c-17.36-10.03-33.73-24.83-28.65-33.64c4.15-7.19,18.04-3.32,25.94-0.37c1.76,0.66,2.65,2.61,2,4.37c-0.66,1.76-2.61,2.65-4.37,2
				c-11.91-4.43-17.19-3.44-17.68-2.6c-1.16,2.01,6.57,13.04,26.16,24.35c8.56,4.95,17.15,8.59,24.17,10.26
				c7.36,1.75,9.82,0.53,10,0.22c0.84-1.46-3.96-9.94-19.78-20.4c-1.57-1.04-2-3.15-0.96-4.71c1.04-1.57,3.14-2,4.71-0.96
				c13.62,9.01,26.52,21.49,21.91,29.47C164.37,156.34,161.29,157.71,156.76,157.71z"/>
			<path class="st0" d="M103.1,157.69c-4.03,0-7.49-1.07-9.24-4.1c-5.09-8.81,11.28-23.61,28.65-33.63
				c9.12-5.26,18.35-9.17,25.99-10.98c9.18-2.18,15.05-1.18,17.46,2.99c4.72,8.18-8.7,20.81-22.83,29.9
				c-1.58,1.02-3.68,0.56-4.7-1.02c-1.02-1.58-0.56-3.68,1.02-4.7c16.71-10.75,21.52-19.23,20.62-20.78
				c-0.18-0.31-2.64-1.53-10,0.22c-7.02,1.67-15.6,5.31-24.17,10.26c-19.59,11.31-27.32,22.33-26.16,24.34
				c0.5,0.86,5.94,1.85,18.19-2.8c1.75-0.66,3.72,0.22,4.39,1.97c0.67,1.76-0.22,3.72-1.97,4.39
				C115.61,155.56,108.79,157.69,103.1,157.69z"/>
			<path class="st0" d="M129.9,174.41c-10.17,0-14.81-21.58-14.81-41.62c0-20.05,4.63-41.62,14.81-41.62s14.81,21.58,14.81,41.62
				C144.71,152.83,140.08,174.41,129.9,174.41z M129.9,97.96c-2.32,0-8.01,12.2-8.01,34.82c0,22.62,5.68,34.82,8.01,34.82
				c2.32,0,8.01-12.2,8.01-34.82C137.91,110.16,132.23,97.96,129.9,97.96z"/>
		</g>
	</g>
	<g>
		<g>
			<path class="st0" d="M217.59,106.8c-0.03,0-0.05,0-0.08,0c-17.79-0.42-53.87-12.13-67.71-28.85l0,0
				c-11.67-14.1-4.63-32.2,0.03-44.17c0.97-2.51,1.81-4.67,2.35-6.43c0.35-1.16,1.29-2.05,2.47-2.33
				c13.32-3.17,33.44-7.96,47.79,9.36c6.69,8.08,7.43,19.12,8.23,30.81c0.84,12.47,1.72,25.37,9.67,36.2
				c0.77,1.05,0.87,2.44,0.27,3.58C220.01,106.1,218.85,106.8,217.59,106.8z M155.04,73.61c10.57,12.77,38.41,23.22,56.08,25.79
				c-5.7-10.95-6.51-22.96-7.24-33.76c-0.75-11.02-1.39-20.54-6.68-26.93c-10.35-12.51-23.84-11.04-39.12-7.52
				c-0.53,1.53-1.19,3.2-1.9,5.05C151.84,47.36,145.91,62.59,155.04,73.61L155.04,73.61z"/>
		</g>
		<path class="st0" d="M182.47,68.31c-1.06,0-2.1-0.49-2.77-1.42l-37.8-52.71c-2.66-3.71-6.81-5.84-11.37-5.84
			c-4.57,0-8.71,2.13-11.37,5.84l-15.2,21.2c-1.09,1.52-3.22,1.88-4.74,0.78c-1.53-1.09-1.88-3.22-0.78-4.74l15.2-21.2
			c3.95-5.52,10.11-8.68,16.9-8.68c6.79,0,12.94,3.16,16.9,8.68l37.8,52.71c1.09,1.53,0.75,3.65-0.78,4.74
			C183.85,68.11,183.15,68.31,182.47,68.31z"/>
	</g>
	<g>
		<g>
			<path class="st0" d="M163.75,253.12c-0.31,0-0.63,0-0.95-0.01c-10.48-0.25-19.31-6.92-28.66-13.99
				c-9.97-7.54-20.28-15.34-33.68-16.44c-1.29-0.11-2.41-0.94-2.89-2.14c-0.47-1.21-0.22-2.58,0.65-3.53
				c11.98-13.16,44.44-32.78,66.18-32.2c18.3,0.43,27.35,17.61,33.33,28.98c1.25,2.38,2.33,4.43,3.32,5.99
				c0.65,1.02,0.7,2.31,0.14,3.39C194.95,235.13,185.56,253.12,163.75,253.12z M108,217.03c12,2.88,21.61,10.14,30.24,16.67
				c8.81,6.66,16.42,12.42,24.71,12.62c16.37,0.31,23.98-10.76,31.33-24.61c-0.81-1.41-1.64-2.99-2.56-4.75
				c-5.56-10.56-13.17-25.02-27.48-25.36l0,0C147.74,191.3,121.53,205.38,108,217.03z"/>
		</g>
		<path class="st0" d="M233.59,225.51h-84.1c-1.88,0-3.4-1.52-3.4-3.4c0-1.88,1.52-3.4,3.4-3.4h84.1c5.35,0,10-2.84,12.45-7.6
			c2.44-4.76,2.04-10.2-1.08-14.54l-15.33-21.38c-1.09-1.53-0.75-3.65,0.78-4.74c1.52-1.1,3.65-0.74,4.74,0.78l15.33,21.38
			c4.56,6.36,5.18,14.64,1.6,21.61C248.51,221.18,241.42,225.51,233.59,225.51z"/>
	</g>
	<g>
		<g>
			<path class="st0" d="M32.17,185.13c-1.81,0-3.55-0.03-5.18-0.06c-2.69-0.05-5-0.09-6.84,0.02c-1.21,0.08-2.36-0.5-3.03-1.51
				c-7.58-11.4-19.04-28.62-7.73-48.08c5.27-9.07,15.37-13.59,26.06-18.37c11.41-5.1,23.21-10.38,30.63-21.59
				c0.72-1.08,1.96-1.68,3.27-1.5c1.29,0.16,2.36,1.05,2.78,2.27c5.76,16.84,7.23,54.74-3.67,73.51l0,0
				C60.42,183.64,44.6,185.13,32.17,185.13z M23.02,178.22c1.26,0,2.62,0.02,4.09,0.05c11.92,0.22,28.28,0.51,35.46-11.86
				c8.33-14.34,8.51-44.07,4.82-61.54c-8.31,9.13-19.3,14.05-29.17,18.47c-10.09,4.51-18.8,8.41-22.96,15.58
				c-8.16,14.05-2.13,26.19,6.47,39.31C22.14,178.22,22.58,178.22,23.02,178.22z M65.51,168.12h0.03H65.51z"/>
		</g>
		<path class="st0" d="M50.04,228.06h-27c-7.83,0-14.92-4.33-18.49-11.29c-3.58-6.97-2.97-15.25,1.6-21.61l42.23-58.9
			c1.09-1.53,3.22-1.88,4.74-0.78c1.53,1.09,1.88,3.22,0.78,4.74l-42.23,58.9c-3.12,4.35-3.52,9.78-1.07,14.54
			c2.44,4.76,7.1,7.6,12.44,7.6h27c1.88,0,3.4,1.52,3.4,3.4C53.44,226.54,51.92,228.06,50.04,228.06z"/>
	</g>
</g>
</svg>
