<?xml version="1.0" encoding="utf-8"?>
<!-- Generator: Adobe Illustrator 26.0.1, SVG Export Plug-In . SVG Version: 6.00 Build 0)  -->
<svg version="1.1" id="Layer_1" xmlns="http://www.w3.org/2000/svg" xmlns:xlink="http://www.w3.org/1999/xlink" x="0px" y="0px"
	 viewBox="0 0 256 256" style="enable-background:new 0 0 256 256;" xml:space="preserve">
<style type="text/css">
	.st0{clip-path:url(#SVGID_00000138548407196350766700000003650229157280895886_);}
	.st1{fill-rule:evenodd;clip-rule:evenodd;fill:#B0D0ED;}
	.st2{clip-path:url(#SVGID_00000128465830516601878810000009036183312205074875_);}
	.st3{fill-rule:evenodd;clip-rule:evenodd;fill:#85B5E1;}
	.st4{clip-path:url(#SVGID_00000050649124846227135570000013516587425955498927_);}
	.st5{fill-rule:evenodd;clip-rule:evenodd;fill:#4F7FC1;}
	.st6{clip-path:url(#SVGID_00000177457258258075864790000013577588984883433379_);}
	.st7{fill-rule:evenodd;clip-rule:evenodd;fill:#2C4A8C;}
	.st8{clip-path:url(#SVGID_00000111869561627213640270000005549972735628548024_);}
	.st9{fill-rule:evenodd;clip-rule:evenodd;fill:#273D7B;}
	.st10{clip-path:url(#SVGID_00000165204505286228365390000008964553615995546504_);}
	.st11{clip-path:url(#SVGID_00000023244163451446910550000006242562573157084845_);}
	.st12{clip-path:url(#SVGID_00000021841039221496209120000007483305421452315538_);}
	.st13{clip-path:url(#SVGID_00000113354415975135653190000017067766338974208420_);}
</style>
<g>
	<g>
		<defs>
			<rect id="SVGID_1_" x="31.6" y="30.9" width="97.9" height="97.9"/>
		</defs>
		<clipPath id="SVGID_00000031195506664105929130000015708170947691149716_">
			<use xlink:href="#SVGID_1_"  style="overflow:visible;"/>
		</clipPath>
		<g style="clip-path:url(#SVGID_00000031195506664105929130000015708170947691149716_);">
			
				<image style="overflow:visible;enable-background:new    ;" width="440" height="440" xlink:href="4576A0A5B73FA944.png"  transform="matrix(0.2224 0 0 0.2224 31.5889 30.9208)">
			</image>
		</g>
	</g>
</g>
<path class="st1" d="M33.2,126.6c0-52.3,42.4-94.7,94.7-94.7v8.8C80.4,40.6,42,79.1,42,126.6H33.2z"/>
<g>
	<g>
		<defs>
			<rect id="SVGID_00000079485034779073056660000014169555292049791131_" x="31.6" y="125.7" width="97.9" height="97.9"/>
		</defs>
		<clipPath id="SVGID_00000181058646111948825940000013946449689732809644_">
			<use xlink:href="#SVGID_00000079485034779073056660000014169555292049791131_"  style="overflow:visible;"/>
		</clipPath>
		<g style="clip-path:url(#SVGID_00000181058646111948825940000013946449689732809644_);">
			
				<image style="overflow:visible;enable-background:new    ;" width="440" height="440" xlink:href="4576A0A5B73FA945.png"  transform="matrix(0.2224 0 0 0.2224 31.5889 125.6458)">
			</image>
		</g>
	</g>
</g>
<path class="st3" d="M127.9,221.3c-52.3,0-94.7-42.4-94.7-94.7H42c0,47.5,38.5,85.9,85.9,85.9V221.3z"/>
<g>
	<g>
		<defs>
			<rect id="SVGID_00000120535553170875642740000002538210691272952237_" x="126.3" y="125.7" width="97.9" height="97.9"/>
		</defs>
		<clipPath id="SVGID_00000113344597870436124380000007627731333516052900_">
			<use xlink:href="#SVGID_00000120535553170875642740000002538210691272952237_"  style="overflow:visible;"/>
		</clipPath>
		<g style="clip-path:url(#SVGID_00000113344597870436124380000007627731333516052900_);">
			
				<image style="overflow:visible;enable-background:new    ;" width="440" height="440" xlink:href="4576A0A5B73FA943.png"  transform="matrix(0.2224 0 0 0.2224 126.3139 125.6458)">
			</image>
		</g>
	</g>
</g>
<path class="st5" d="M222.6,126.6c0,52.3-42.4,94.7-94.7,94.7v-8.8c47.5,0,85.9-38.5,85.9-85.9L222.6,126.6L222.6,126.6z"/>
<g>
	<g>
		<defs>
			<rect id="SVGID_00000111162844453216770740000013673209174894543524_" x="126.3" y="30.9" width="97.9" height="97.9"/>
		</defs>
		<clipPath id="SVGID_00000178166101261174687390000016421853169888509604_">
			<use xlink:href="#SVGID_00000111162844453216770740000013673209174894543524_"  style="overflow:visible;"/>
		</clipPath>
		<g style="clip-path:url(#SVGID_00000178166101261174687390000016421853169888509604_);">
			
				<image style="overflow:visible;enable-background:new    ;" width="440" height="440" xlink:href="4576A0A5B73FA94C.png"  transform="matrix(0.2224 0 0 0.2224 126.3139 30.9208)">
			</image>
		</g>
	</g>
</g>
<path class="st7" d="M127.9,31.8c52.3,0,94.7,42.4,94.7,94.7h-8.8c0-47.5-38.5-85.9-85.9-85.9L127.9,31.8L127.9,31.8z"/>
<g>
	<g>
		<defs>
			<rect id="SVGID_00000036245850512106916170000000687282972873777793_" x="82.7" y="82" width="90.4" height="90.4"/>
		</defs>
		<clipPath id="SVGID_00000157999587766461577080000002286724596257027972_">
			<use xlink:href="#SVGID_00000036245850512106916170000000687282972873777793_"  style="overflow:visible;"/>
		</clipPath>
		<g style="clip-path:url(#SVGID_00000157999587766461577080000002286724596257027972_);">
			
				<image style="overflow:visible;enable-background:new    ;" width="409" height="409" xlink:href="4576A0A5B73FA94F.png"  transform="matrix(0.2211 0 0 0.2211 82.6639 81.9958)">
			</image>
		</g>
	</g>
</g>
<circle class="st9" cx="127.9" cy="126.6" r="43.7"/>
<g>
	<g>
		<defs>
			<rect id="SVGID_00000085948503479494036230000006199791633528151969_" x="93.9" y="0.8" width="67.9" height="67.9"/>
		</defs>
		<clipPath id="SVGID_00000078031956709097090750000000572690312778916026_">
			<use xlink:href="#SVGID_00000085948503479494036230000006199791633528151969_"  style="overflow:visible;"/>
		</clipPath>
		<g style="clip-path:url(#SVGID_00000078031956709097090750000000572690312778916026_);">
			
				<image style="overflow:visible;enable-background:new    ;" width="307" height="307" xlink:href="4576A0A5B73FA94D.png"  transform="matrix(0.2213 0 0 0.2213 93.9139 0.7708)">
			</image>
		</g>
	</g>
</g>
<circle class="st7" cx="127.9" cy="34.1" r="32.4"/>
<g>
	<g>
		<defs>
			<rect id="SVGID_00000000222458548211231800000006226936581960699015_" x="186.6" y="93.2" width="67.9" height="67.9"/>
		</defs>
		<clipPath id="SVGID_00000015323665578193222770000006026452834080553870_">
			<use xlink:href="#SVGID_00000000222458548211231800000006226936581960699015_"  style="overflow:visible;"/>
		</clipPath>
		<g style="clip-path:url(#SVGID_00000015323665578193222770000006026452834080553870_);">
			
				<image style="overflow:visible;enable-background:new    ;" width="307" height="307" xlink:href="4576A0A5B73FA942.png"  transform="matrix(0.2213 0 0 0.2213 186.6139 93.2458)">
			</image>
		</g>
	</g>
</g>
<circle class="st5" cx="220.6" cy="126.6" r="32.4"/>
<g>
	<g>
		<defs>
			<rect id="SVGID_00000089556585349740893240000010174698198545456257_" x="93.9" y="185.9" width="67.9" height="67.9"/>
		</defs>
		<clipPath id="SVGID_00000061457673460516002830000007755777777189328267_">
			<use xlink:href="#SVGID_00000089556585349740893240000010174698198545456257_"  style="overflow:visible;"/>
		</clipPath>
		<g style="clip-path:url(#SVGID_00000061457673460516002830000007755777777189328267_);">
			
				<image style="overflow:visible;enable-background:new    ;" width="307" height="307" xlink:href="4576A0A5B73FA946.png"  transform="matrix(0.2213 0 0 0.2213 93.9139 185.9458)">
			</image>
		</g>
	</g>
</g>
<ellipse transform="matrix(7.088900e-02 -0.9975 0.9975 7.088900e-02 -99.8744 331.2758)" class="st3" cx="127.9" cy="219.2" rx="32.4" ry="32.4"/>
<g>
	<g>
		<defs>
			<rect id="SVGID_00000124148783515489139920000012129890128172980654_" x="1.2" y="93.2" width="67.9" height="67.9"/>
		</defs>
		<clipPath id="SVGID_00000029766639018029034710000013430138882689424531_">
			<use xlink:href="#SVGID_00000124148783515489139920000012129890128172980654_"  style="overflow:visible;"/>
		</clipPath>
		<g style="clip-path:url(#SVGID_00000029766639018029034710000013430138882689424531_);">
			
				<image style="overflow:visible;enable-background:new    ;" width="307" height="307" xlink:href="4576A0A5B73FA947.png"  transform="matrix(0.2213 0 0 0.2213 1.2139 93.2458)">
			</image>
		</g>
	</g>
</g>
<ellipse transform="matrix(5.530040e-02 -0.9985 0.9985 5.530040e-02 -93.1124 154.6879)" class="st1" cx="35.2" cy="126.6" rx="32.4" ry="32.4"/>
</svg>
