<?xml version="1.0" encoding="utf-8"?>
<!-- Generator: Adobe Illustrator 25.3.1, SVG Export Plug-In . SVG Version: 6.00 Build 0)  -->
<svg version="1.1" id="Layer_1" xmlns="http://www.w3.org/2000/svg" xmlns:xlink="http://www.w3.org/1999/xlink" x="0px" y="0px"
	 viewBox="0 0 65.83 74" style="enable-background:new 0 0 65.83 74;" xml:space="preserve">
<style type="text/css">
	.st0{fill:#1D2C56;}
</style>
<g>
	<g>
		<g>
			<g>
				<g>
					<path class="st0" d="M5,35.68c-0.55,0-1-0.45-1-1v-3c0-0.55,0.45-1,1-1c0.55,0,1,0.45,1,1v3C6,35.23,5.55,35.68,5,35.68z"/>
					<path class="st0" d="M19,46.68H5c-0.55,0-1-0.45-1-1v-4c0-0.55,0.45-1,1-1c0.55,0,1,0.45,1,1v3h12v-15c0-0.55-0.45-1-1-1h-2
						c-0.55,0-1-0.45-1-1c0-0.55,0.45-1,1-1h2c1.65,0,3,1.35,3,3v16C20,46.23,19.55,46.68,19,46.68z"/>
					<g>
						<path class="st0" d="M15,32.68H1c-0.55,0-1-0.45-1-1v-2c0-1.65,1.35-3,3-3h14c0.55,0,1,0.45,1,1c0,0.55-0.45,1-1,1
							c-0.55,0-1,0.45-1,1v2C16,32.23,15.55,32.68,15,32.68z M2,30.68h12v-1c0-0.35,0.06-0.69,0.17-1H3c-0.55,0-1,0.45-1,1V30.68z"
							/>
					</g>
				</g>
				<path class="st0" d="M5.85,42.68H4.15C2.97,42.68,2,41.71,2,40.53v-3.69c0-1.19,0.97-2.15,2.15-2.15h1.69
					c1.19,0,2.15,0.97,2.15,2.15v3.69C8,41.71,7.03,42.68,5.85,42.68z M4.15,36.68C4.07,36.68,4,36.75,4,36.83v3.69
					c0,0.08,0.07,0.15,0.15,0.15h1.69c0.08,0,0.15-0.07,0.15-0.15v-3.69c0-0.08-0.07-0.15-0.15-0.15H4.15z"/>
			</g>
			<g>
				<path class="st0" d="M25.39,16c-4.19,0-7-3.21-7-8c0-4.79,2.81-8,7-8c4.19,0,7,3.21,7,8C32.39,12.79,29.57,16,25.39,16z
					 M25.39,2c-3.69,0-5,3.23-5,6s1.31,6,5,6c3.69,0,5-3.23,5-6S29.08,2,25.39,2z"/>
				<path class="st0" d="M34.39,74c-0.55,0-1-0.45-1-1V51c0-0.55,0.45-1,1-1c0.55,0,1,0.45,1,1v22C35.39,73.55,34.94,74,34.39,74z"
					/>
				<path class="st0" d="M28.38,74c-0.51,0-0.95-0.39-1-0.91L25.47,51H25.3l-1.92,22.09c-0.05,0.55-0.53,0.97-1.08,0.91
					c-0.55-0.05-0.96-0.53-0.91-1.08l2-23c0.04-0.52,0.48-0.91,1-0.91h2c0.52,0,0.95,0.4,1,0.91l2,23c0.05,0.55-0.36,1.03-0.91,1.08
					C28.44,74,28.41,74,28.38,74z"/>
				<path class="st0" d="M16.39,74L16.39,74c-0.55,0-1-0.45-1-1l0.03-27.28c0-0.55,0.45-1,1-1h0c0.55,0,1,0.45,1,1L17.39,73
					C17.38,73.55,16.94,74,16.39,74z"/>
				<path class="st0" d="M25.39,32c-0.38,0-0.72-0.21-0.89-0.55l-5.71-11.42c-3.6,0.3-6.39,3.29-6.39,6.91c0,0.55-0.45,1-1,1
					c-0.55,0-1-0.45-1-1c0-4.93,4.01-8.93,8.93-8.93c0.38,0,0.79,0.21,0.96,0.55l5.11,10.21l5.11-10.21
					c0.17-0.34,0.52-0.55,0.89-0.55c3.04,0,5.81,1.47,7.47,3.94c0.31,0.46,0.19,1.08-0.27,1.39c-0.46,0.31-1.08,0.19-1.39-0.27
					c-1.19-1.76-3.11-2.87-5.21-3.04l-5.71,11.43C26.11,31.79,25.76,32,25.39,32z"/>
				<path class="st0" d="M26.39,20h-2c-0.55,0-1-0.45-1-1c0-0.55,0.45-1,1-1h2c0.55,0,1,0.45,1,1C27.39,19.55,26.94,20,26.39,20z"/>
				<path class="st0" d="M25.39,31c-0.55,0-1-0.45-1-1V19c0-0.55,0.45-1,1-1c0.55,0,1,0.45,1,1v11C26.39,30.55,25.94,31,25.39,31z"
					/>
			</g>
		</g>
	</g>
	<g>
		<path class="st0" d="M43.06,47.28c-0.2,0-0.41-0.06-0.58-0.19l-6.36-4.55c-0.45-0.32-0.55-0.95-0.23-1.4
			c0.32-0.45,0.95-0.55,1.39-0.23l5.68,4.05l9.08-9.05c0.36-0.35,0.91-0.39,1.31-0.09l6.42,4.88l4.3-5.18
			c0.35-0.42,0.98-0.48,1.41-0.13c0.42,0.35,0.48,0.98,0.13,1.41l-4.91,5.92c-0.34,0.41-0.95,0.48-1.37,0.16l-6.49-4.93l-9.06,9.03
			C43.57,47.18,43.31,47.28,43.06,47.28z"/>
		<path class="st0" d="M64.83,40.76c-0.55,0-1-0.45-1-1v-2.6h-2.6c-0.55,0-1-0.45-1-1c0-0.55,0.45-1,1-1h3.6c0.55,0,1,0.45,1,1v3.6
			C65.83,40.32,65.39,40.76,64.83,40.76z"/>
		<path class="st0" d="M44.58,52.15c-2.36,0-4.69-0.59-6.76-1.7c-0.49-0.26-0.67-0.87-0.41-1.35c0.26-0.49,0.87-0.67,1.35-0.41
			c1.77,0.96,3.78,1.46,5.81,1.46c6.75,0,12.25-5.49,12.25-12.25c0-5.32-3.4-10-8.45-11.65c-0.53-0.17-0.81-0.73-0.64-1.26
			c0.17-0.52,0.74-0.81,1.26-0.64c5.88,1.91,9.83,7.36,9.83,13.55C58.83,45.75,52.44,52.15,44.58,52.15z"/>
		<path class="st0" d="M35.75,48.46c-0.25,0-0.5-0.09-0.69-0.27c-0.01-0.01-0.14-0.12-0.15-0.13c-2.79-2.71-4.33-6.34-4.33-10.23
			c0-7.86,6.39-14.26,14.25-14.26c0.03,0,0.08,0,0.11,0c0.52,0.04,0.94,0.48,0.94,1l0,13.76c0,0.26-0.11,0.52-0.29,0.7l-9.13,9.13
			C36.26,48.36,36,48.46,35.75,48.46z M43.88,25.59c-6.28,0.47-11.3,5.77-11.3,12.23c0,3.07,1.12,5.96,3.17,8.22l8.13-8.16V25.59z"
			/>
	</g>
</g>
</svg>
