<?xml version="1.0" encoding="utf-8"?>
<!-- Generator: Adobe Illustrator 25.3.1, SVG Export Plug-In . SVG Version: 6.00 Build 0)  -->
<svg version="1.1" id="Layer_1" xmlns="http://www.w3.org/2000/svg" xmlns:xlink="http://www.w3.org/1999/xlink" x="0px" y="0px"
	 viewBox="0 0 89 74" style="enable-background:new 0 0 89 74;" xml:space="preserve">
<style type="text/css">
	.st0{fill:#1D2C56;}
</style>
<g>
	<g>
		<g>
			<path class="st0" d="M74,54h-2c-0.55,0-1-0.45-1-1c0-0.55,0.45-1,1-1h1V33.7c0-4.8-3.98-8.7-8.87-8.7H59c-0.55,0-1-0.45-1-1
				c0-0.55,0.45-1,1-1h5.13C70.12,23,75,27.8,75,33.7V53C75,53.55,74.55,54,74,54z"/>
			<path class="st0" d="M69,74c-0.55,0-1-0.45-1-1V37c0-0.55,0.45-1,1-1h0.94c0.55,0,1,0.45,1,1c0,0.53-0.41,0.97-0.94,1v35
				C70,73.55,69.55,74,69,74z"/>
			<path class="st0" d="M61.98,74c-0.55,0-1-0.45-1-1V54c0-0.55,0.45-1,1-1c0.55,0,1,0.45,1,1v19C62.98,73.55,62.53,74,61.98,74z"/>
			<path class="st0" d="M61.98,21c-3.59,0-6-2.81-6-7c0-4.19,2.41-7,6-7c3.59,0,6,2.81,6,7C67.98,18.19,65.57,21,61.98,21z M61.98,9
				c-2.95,0-4,2.58-4,5c0,2.42,1.05,5,4,5s4-2.58,4-5C65.98,11.58,64.93,9,61.98,9z"/>
		</g>
		<path class="st0" d="M88,55h-2c-0.55,0-1-0.45-1-1c0-0.55,0.45-1,1-1h1V35c0-4.19-3.21-7-8-7h-3c-0.55,0-1-0.45-1-1
			c0-0.55,0.45-1,1-1h3c5.89,0,10,3.7,10,9v19C89,54.55,88.55,55,88,55z"/>
		<path class="st0" d="M83,74c-0.55,0-1-0.45-1-1V41c0-0.55,0.45-1,1-1h1c0.55,0,1,0.45,1,1c0,0.55-0.45,1-1,1v31
			C84,73.55,83.55,74,83,74z"/>
		<path class="st0" d="M76,74c-0.55,0-1-0.45-1-1V57c0-0.55,0.45-1,1-1c0.55,0,1,0.45,1,1v16C77,73.55,76.55,74,76,74z"/>
		<path class="st0" d="M77,24c-2.99,0-5-2.41-5-6c0-3.59,2.01-6,5-6s5,2.41,5,6C82,21.59,79.99,24,77,24z M77,14c-2.21,0-3,2.07-3,4
			c0,1.93,0.79,4,3,4s3-2.07,3-4C80,16.07,79.21,14,77,14z"/>
	</g>
	<g>
		<g>
			<path class="st0" d="M17,54h-2c-0.55,0-1-0.45-1-1V33.7C14,27.8,18.88,23,24.87,23H30c0.55,0,1,0.45,1,1c0,0.55-0.45,1-1,1h-5.13
				C19.98,25,16,28.9,16,33.7V52h1c0.55,0,1,0.45,1,1C18,53.55,17.55,54,17,54z"/>
			<path class="st0" d="M20,74c-0.55,0-1-0.45-1-1V38c-0.55,0-1-0.45-1-1c0-0.55,0.45-1,1-1h1c0.55,0,1,0.45,1,1v36
				C21,73.55,20.55,74,20,74z"/>
			<path class="st0" d="M27.02,74c-0.55,0-1-0.45-1-1V54c0-0.55,0.45-1,1-1c0.55,0,1,0.45,1,1v19C28.02,73.55,27.58,74,27.02,74z"/>
			<path class="st0" d="M27.02,21c-3.59,0-6-2.81-6-7c0-4.19,2.41-7,6-7s6,2.81,6,7C33.02,18.19,30.61,21,27.02,21z M27.02,9
				c-2.95,0-4,2.58-4,5c0,2.42,1.05,5,4,5s4-2.58,4-5C31.02,11.58,29.97,9,27.02,9z"/>
		</g>
		<path class="st0" d="M3,55H1c-0.55,0-1-0.45-1-1V35c0-5.3,4.11-9,10-9h3c0.55,0,1,0.45,1,1c0,0.55-0.45,1-1,1h-3
			c-4.79,0-8,2.81-8,7v18h1c0.55,0,1,0.45,1,1C4,54.55,3.55,55,3,55z"/>
		<path class="st0" d="M6,74c-0.55,0-1-0.45-1-1V42c-0.55,0-1-0.45-1-1c0-0.55,0.45-1,1-1h1c0.55,0,1,0.45,1,1v32
			C7,73.55,6.55,74,6,74z"/>
		<path class="st0" d="M13,74c-0.55,0-1-0.45-1-1V57c0-0.55,0.45-1,1-1c0.55,0,1,0.45,1,1v16C14,73.55,13.55,74,13,74z"/>
		<path class="st0" d="M12,24c-2.99,0-5-2.41-5-6c0-3.59,2.01-6,5-6s5,2.41,5,6C17,21.59,14.99,24,12,24z M12,14c-2.21,0-3,2.07-3,4
			c0,1.93,0.79,4,3,4s3-2.07,3-4C15,16.07,14.21,14,12,14z"/>
	</g>
	<g>
		<path class="st0" d="M45,16c-4.19,0-7-3.21-7-8c0-4.79,2.81-8,7-8s7,3.21,7,8C52,12.79,49.19,16,45,16z M45,2c-3.69,0-5,3.23-5,6
			c0,2.77,1.31,6,5,6c3.69,0,5-3.23,5-6C50,5.23,48.69,2,45,2z"/>
		<path class="st0" d="M54,74c-0.55,0-1-0.45-1-1V40c0-0.55,0.45-1,1-1c0.55,0,1,0.45,1,1v33C55,73.55,54.55,74,54,74z"/>
		<path class="st0" d="M48,74c-0.51,0-0.95-0.39-1-0.91L45.08,51h-0.17L43,73.09c-0.05,0.55-0.53,0.96-1.08,0.91
			c-0.55-0.05-0.96-0.53-0.91-1.08l2-23C43.05,49.4,43.48,49,44,49h2c0.52,0,0.95,0.4,1,0.91l2,23c0.05,0.55-0.36,1.03-0.91,1.08
			C48.06,74,48.03,74,48,74z"/>
		<path class="st0" d="M36,74c-0.55,0-1-0.45-1-1V40c0-0.55,0.45-1,1-1c0.55,0,1,0.45,1,1v33C37,73.55,36.55,74,36,74z"/>
		<path class="st0" d="M46,20h-2c-0.55,0-1-0.45-1-1c0-0.55,0.45-1,1-1h2c0.55,0,1,0.45,1,1C47,19.55,46.55,20,46,20z"/>
		<path class="st0" d="M45,31c-0.55,0-1-0.45-1-1V19c0-0.55,0.45-1,1-1c0.55,0,1,0.45,1,1v11C46,30.55,45.55,31,45,31z"/>
		<path class="st0" d="M56.86,40.08h-7.43c-0.72,0-1.79-0.22-2.69-0.49c-0.04,0.01-0.09,0.02-0.13,0.02l-5.75,0.47l-9.73,0
			c-1.31,0-2.59-0.55-3.36-1.44c-0.6-0.7-0.86-1.58-0.73-2.49l2.08-11.6C29.84,20.99,33.8,18,37.77,18H39
			c0.39,0,0.75,0.23,0.91,0.59l5.12,11.36l5.06-11.36C50.25,18.23,50.61,18,51,18h0.71c3.67,0,6.9,2.75,7.67,6.53l1.57,11.63
			c0.16,0.79-0.07,1.65-0.65,2.36C59.53,39.47,58.18,40.08,56.86,40.08z M46.46,37.36c0.73,0.34,2.29,0.72,2.98,0.72h7.43
			c0.72,0,1.5-0.34,1.89-0.82c0.3-0.37,0.25-0.67,0.23-0.76l-1.57-11.63c-0.57-2.79-2.97-4.87-5.7-4.87h-0.07l-4.85,10.78
			c-0.38,0.71-1.06,1.12-1.79,1.12c-0.74,0-1.41-0.4-1.76-1.05L38.35,20h-0.58c-3.03,0-6.16,2.31-6.7,4.93l-2.07,11.54
			c-0.04,0.3,0.04,0.6,0.27,0.86c0.39,0.45,1.13,0.75,1.85,0.75h9.65l2.83-0.23c-2.23-1.41-6.2-3.56-9.31-3.25
			c-0.32,0.03-0.63-0.09-0.85-0.33c-0.21-0.24-0.3-0.57-0.23-0.88l1.1-5.03c0.12-0.54,0.65-0.88,1.19-0.76
			c0.54,0.12,0.88,0.65,0.76,1.19l-0.83,3.8C40.26,32.87,45.69,36.79,46.46,37.36z"/>
		<path class="st0" d="M34.39,34.31c-0.2,0-0.41-0.06-0.58-0.19c-0.45-0.32-0.55-0.95-0.23-1.4l1.21-1.68
			c0.54-0.75,1.56-1.44,2.71-1.01l3.93,0.74c1.07-0.12,6.98-0.71,11.1,0.59l-0.29-2.97c-0.05-0.55,0.35-1.04,0.9-1.09
			c0.55-0.05,1.04,0.35,1.09,0.9l0.46,4.62c0.04,0.37-0.13,0.73-0.44,0.93c-0.31,0.21-0.7,0.22-1.03,0.05
			c-3.69-1.99-11.62-1.03-11.7-1.02c-0.1,0.01-0.21,0.01-0.31-0.01l-4.18-0.78c-0.07-0.01-0.15-0.04-0.21-0.07
			c-0.07-0.03-0.28,0.12-0.41,0.3L35.2,33.9C35,34.17,34.7,34.31,34.39,34.31z"/>
	</g>
</g>
</svg>
