<?xml version="1.0" encoding="utf-8"?>
<!-- Generator: Adobe Illustrator 25.3.1, SVG Export Plug-In . SVG Version: 6.00 Build 0)  -->
<svg version="1.1" id="Layer_1" xmlns="http://www.w3.org/2000/svg" xmlns:xlink="http://www.w3.org/1999/xlink" x="0px" y="0px"
	 viewBox="0 0 74 65.6" style="enable-background:new 0 0 74 65.6;" xml:space="preserve">
<style type="text/css">
	.st0{fill:#1D2C56;}
</style>
<g>
	<g>
		<g>
			<path class="st0" d="M62,50.6c-0.24,0-0.47-0.09-0.66-0.25C61.12,50.16,61,49.89,61,49.6v-40c0-0.5,0.37-0.92,0.87-0.99
				c8-1.07,9.74-2.29,10.08-2.62C70.58,4.32,57.71,2,37,2C16.29,2,3.41,4.32,2.05,5.99c0.33,0.33,2.08,1.55,10.08,2.62
				C12.63,8.67,13,9.1,13,9.6v40c0,0.29-0.12,0.56-0.34,0.75c-0.22,0.19-0.51,0.28-0.79,0.24C0,49,0,46.9,0,46
				c0-1.58,1.97-2.41,3.69-2.95c0.52-0.17,1.09,0.12,1.26,0.65c0.17,0.53-0.12,1.09-0.65,1.26C2.79,45.43,2.25,45.83,2.07,46
				c0.34,0.33,1.98,1.43,8.93,2.45V10.47C0,8.89,0,6.87,0,6c0-5.93,35.49-6,37-6c1.51,0,37,0.07,37,6c0,0.87,0,2.89-11,4.47v37.98
				c6.95-1.02,8.59-2.12,8.93-2.45c-0.18-0.17-0.73-0.57-2.24-1.05c-0.53-0.17-0.82-0.73-0.65-1.26c0.17-0.53,0.73-0.82,1.26-0.65
				C71.89,43.55,74,44.4,74,46c0,0.9,0,3-11.87,4.59C62.09,50.59,62.04,50.6,62,50.6z"/>
			<path class="st0" d="M65,43.86c-0.06,0-0.11,0-0.17-0.01c-6.02-1.03-14.56-1.68-24.06-1.81c-0.55-0.01-0.99-0.46-0.99-1.01
				c0.01-0.55,0.42-0.98,1.01-0.99c9.6,0.14,18.25,0.79,24.37,1.84c0.54,0.09,0.91,0.61,0.82,1.15C65.9,43.51,65.48,43.86,65,43.86z
				"/>
			<path class="st0" d="M9,43.86c-0.48,0-0.9-0.34-0.98-0.83c-0.09-0.54,0.27-1.06,0.82-1.15c6.14-1.05,14.84-1.71,24.48-1.85
				c0,0,0.01,0,0.01,0c0.55,0,0.99,0.44,1,0.99c0.01,0.55-0.43,1.01-0.99,1.01c-9.54,0.13-18.13,0.78-24.17,1.82
				C9.11,43.85,9.05,43.86,9,43.86z"/>
			<path class="st0" d="M73,47c-0.55,0-1-0.45-1-1V6c0-0.55,0.45-1,1-1c0.55,0,1,0.45,1,1v40C74,46.55,73.55,47,73,47z"/>
			<path class="st0" d="M1,47.5c-0.55,0-1-0.45-1-1v-40c0-0.55,0.45-1,1-1c0.55,0,1,0.45,1,1v40C2,47.05,1.55,47.5,1,47.5z"/>
		</g>
		<path class="st0" d="M40.12,27.6c-0.55,0-1-0.45-1-1v-3h-4v3c0,0.55-0.45,1-1,1c-0.55,0-1-0.45-1-1v-4c0-0.55,0.45-1,1-1h6
			c0.55,0,1,0.45,1,1v4C41.12,27.15,40.67,27.6,40.12,27.6z"/>
		<path class="st0" d="M52.12,36.6h-6c-0.55,0-1-0.45-1-1v-18c0-0.55,0.45-1,1-1h6c0.55,0,1,0.45,1,1v18
			C53.12,36.15,52.67,36.6,52.12,36.6z M47.12,34.6h4v-16h-4V34.6z"/>
		<path class="st0" d="M28.12,36.6h-6c-0.55,0-1-0.45-1-1v-9c0-0.55,0.45-1,1-1h6c0.55,0,1,0.45,1,1v9
			C29.12,36.15,28.67,36.6,28.12,36.6z M23.12,34.6h4v-7h-4V34.6z"/>
		<path class="st0" d="M16.12,26.6c-0.24,0-0.48-0.08-0.67-0.26c-0.41-0.37-0.44-1-0.07-1.41l9-10c0.21-0.23,0.52-0.36,0.83-0.33
			l11.62,0.97l11.7-8.77c0.3-0.23,0.71-0.26,1.05-0.09l8,4c0.49,0.25,0.69,0.85,0.45,1.34c-0.25,0.49-0.85,0.69-1.34,0.45
			l-7.45-3.72L37.72,17.4c-0.19,0.15-0.44,0.22-0.68,0.2l-11.51-0.96l-8.67,9.63C16.66,26.49,16.39,26.6,16.12,26.6z"/>
	</g>
	<g>
		<g>
			<path class="st0" d="M52.12,64.6h-2v-8c0-5.32-3.84-9.03-9.35-9.03h-7.3c-5.5,0-9.35,3.71-9.35,9.03v8h-2v-8
				c0-6.39,4.77-11.03,11.35-11.03h7.3c6.58,0,11.35,4.64,11.35,11.03V64.6z"/>
			<path class="st0" d="M37.15,43.32c-3.77,0-6.29-2.96-6.29-7.36s2.53-7.36,6.29-7.36c3.76,0,6.29,2.96,6.29,7.36
				S40.91,43.32,37.15,43.32z M37.15,30.6c-3.17,0-4.29,2.77-4.29,5.36c0,2.59,1.13,5.36,4.29,5.36c3.17,0,4.29-2.77,4.29-5.36
				C41.44,33.37,40.31,30.6,37.15,30.6z"/>
			<path class="st0" d="M45.36,65.54H28.54v-3.06l-0.86-6.91c-0.08-0.67,0.12-1.34,0.57-1.84c0.45-0.5,1.08-0.79,1.76-0.79h13.9
				c0.67,0,1.31,0.29,1.76,0.79c0.45,0.5,0.65,1.18,0.57,1.84l-0.86,6.91V65.54z M30.54,63.54h12.82l0.01-1.24l0.87-6.97
				c0.02-0.13-0.05-0.23-0.08-0.27c-0.04-0.04-0.12-0.12-0.26-0.12H30c-0.13,0-0.22,0.07-0.26,0.12c-0.04,0.04-0.1,0.14-0.08,0.27
				l0.88,7.1V63.54z"/>
		</g>
		<path class="st0" d="M53.12,65.6h-32c-0.55,0-1-0.45-1-1s0.45-1,1-1h32c0.55,0,1,0.45,1,1S53.67,65.6,53.12,65.6z"/>
	</g>
</g>
</svg>
