<?xml version="1.0" encoding="utf-8"?>
<!-- Generator: Adobe Illustrator 25.3.1, SVG Export Plug-In . SVG Version: 6.00 Build 0)  -->
<svg version="1.1" id="Layer_1" xmlns="http://www.w3.org/2000/svg" xmlns:xlink="http://www.w3.org/1999/xlink" x="0px" y="0px"
	 viewBox="0 0 90.77 54.07" style="enable-background:new 0 0 90.77 54.07;" xml:space="preserve">
<style type="text/css">
	.st0{fill:#1D2C56;}
</style>
<g>
	<g>
		<path class="st0" d="M56,15.07c-0.24,0-0.49-0.09-0.68-0.27c-0.4-0.38-0.43-1.01-0.05-1.41l8.69-9.3
			c1.51-1.71,3.71-2.69,6.01-2.69h17.62c1.76,0,3.19,1.43,3.19,3.19V5.1c0,1.76-1.43,3.19-3.19,3.19h-9.34c-0.55,0-1-0.45-1-1
			s0.45-1,1-1h9.34c0.66,0,1.19-0.54,1.19-1.19V4.59c0-0.66-0.53-1.19-1.19-1.19H69.97c-1.73,0-3.39,0.74-4.53,2.04l-8.7,9.32
			C56.53,14.96,56.27,15.07,56,15.07z"/>
		<path class="st0" d="M81.7,13.2h-7.38c-0.55,0-1-0.45-1-1c0-0.55,0.45-1,1-1h7.38c0.66,0,1.19-0.54,1.19-1.19V9.49
			c0-0.66-0.53-1.19-1.19-1.19h-4.44c-0.55,0-1-0.45-1-1s0.45-1,1-1h4.44c1.76,0,3.19,1.43,3.19,3.19V10
			C84.89,11.77,83.46,13.2,81.7,13.2z"/>
		<path class="st0" d="M76.8,18.1H65.5c-0.55,0-1-0.45-1-1c0-0.55,0.45-1,1-1h11.3c0.66,0,1.19-0.54,1.19-1.19v-0.52
			c0-0.66-0.53-1.19-1.19-1.19h-6.4c-0.55,0-1-0.45-1-1c0-0.55,0.45-1,1-1h6.4c1.76,0,3.19,1.43,3.19,3.19v0.52
			C79.99,16.67,78.56,18.1,76.8,18.1z"/>
		<path class="st0" d="M71.9,23h-8.36c-0.55,0-1-0.45-1-1s0.45-1,1-1h8.36c0.66,0,1.19-0.54,1.19-1.19v-0.52
			c0-0.66-0.53-1.19-1.19-1.19h-1.5c-0.55,0-1-0.45-1-1c0-0.55,0.45-1,1-1h1.5c1.76,0,3.19,1.43,3.19,3.19v0.52
			C75.09,21.57,73.66,23,71.9,23z"/>
	</g>
	<g>
		<path class="st0" d="M34.78,15.07c-0.27,0-0.53-0.11-0.73-0.32l-8.69-9.3c-1.17-1.32-2.82-2.06-4.55-2.06H3.19
			C2.53,3.39,2,3.93,2,4.59V5.1C2,5.76,2.53,6.3,3.19,6.3h9.34c0.55,0,1,0.45,1,1s-0.45,1-1,1H3.19C1.43,8.3,0,6.86,0,5.1V4.59
			c0-1.76,1.43-3.19,3.19-3.19h17.62c2.3,0,4.5,0.99,6.03,2.71l8.67,9.28c0.38,0.4,0.36,1.04-0.05,1.41
			C35.27,14.98,35.02,15.07,34.78,15.07z"/>
		<path class="st0" d="M16.45,13.2H9.07c-1.76,0-3.19-1.43-3.19-3.19V9.49c0-1.76,1.43-3.19,3.19-3.19h4.44c0.55,0,1,0.45,1,1
			s-0.45,1-1,1H9.07c-0.66,0-1.19,0.53-1.19,1.19V10c0,0.66,0.53,1.19,1.19,1.19h7.38c0.55,0,1,0.45,1,1
			C17.45,12.75,17.01,13.2,16.45,13.2z"/>
		<path class="st0" d="M25.28,18.1h-11.3c-1.76,0-3.19-1.43-3.19-3.19v-0.52c0-1.76,1.43-3.19,3.19-3.19h6.4c0.55,0,1,0.45,1,1
			c0,0.55-0.45,1-1,1h-6.4c-0.66,0-1.19,0.53-1.19,1.19v0.52c0,0.66,0.53,1.19,1.19,1.19h11.3c0.55,0,1,0.45,1,1
			C26.28,17.65,25.83,18.1,25.28,18.1z"/>
		<path class="st0" d="M27.24,23h-8.36c-1.76,0-3.19-1.43-3.19-3.19v-0.52c0-1.76,1.43-3.19,3.19-3.19h1.5c0.55,0,1,0.45,1,1
			c0,0.55-0.45,1-1,1h-1.5c-0.66,0-1.19,0.54-1.19,1.19v0.52c0,0.66,0.53,1.19,1.19,1.19h8.36c0.55,0,1,0.45,1,1S27.79,23,27.24,23z
			"/>
	</g>
	<g>
		<g>
			<path class="st0" d="M45.11,54.07H44.9c-13.68,0-19.8-8.13-19.8-16.19c0-11.3,11.63-21.94,13.7-22.64
				c0.52-0.18,1.09,0.1,1.27,0.63c0.18,0.52-0.1,1.09-0.63,1.27C37.78,17.72,27.1,27.69,27.1,37.88c0,9.8,8.94,14.19,17.8,14.19
				h0.21c8.86,0,17.8-4.39,17.8-14.19c0-10.19-10.68-20.17-12.34-20.75c-0.52-0.18-0.8-0.75-0.62-1.27c0.18-0.52,0.74-0.8,1.26-0.62
				c2.07,0.7,13.7,11.35,13.7,22.64C64.92,45.94,58.79,54.07,45.11,54.07z"/>
			<path class="st0" d="M50.9,17.19H39.33c-0.31,0-0.6-0.14-0.79-0.39c-0.19-0.25-0.25-0.57-0.17-0.87l0.53-2.01
				c0.14-0.53,0.69-0.85,1.22-0.71c0.53,0.14,0.85,0.69,0.71,1.22l-0.2,0.75H50.9c0.55,0,1,0.45,1,1
				C51.9,16.74,51.45,17.19,50.9,17.19z"/>
			<path class="st0" d="M50.56,13.09c-0.46,0-0.87-0.31-0.97-0.78l-0.21-0.92h-9.33c-0.44,0-0.83-0.29-0.96-0.71l-2.17-7.23
				c-0.23-0.79-0.09-1.56,0.38-2.19C37.89,0.5,38.96,0,40.05,0h10.12c1.05,0,2.11,0.5,2.7,1.27c0.48,0.63,0.64,1.4,0.43,2.16
				l-2.1,7.01l0.33,1.44c0.12,0.54-0.21,1.08-0.75,1.2C50.71,13.09,50.64,13.09,50.56,13.09z M40.79,9.4h8.64l1.96-6.52
				c0.04-0.13,0.01-0.26-0.1-0.4C51.08,2.2,50.61,2,50.17,2H40.05c-0.46,0-0.94,0.2-1.15,0.47c-0.07,0.09-0.12,0.21-0.06,0.42
				L40.79,9.4z"/>
		</g>
		<path class="st0" d="M51.11,6.84h-6c-0.55,0-1-0.45-1-1c0-0.55,0.45-1,1-1h6c0.55,0,1,0.45,1,1C52.11,6.4,51.66,6.84,51.11,6.84z"
			/>
	</g>
</g>
</svg>
