<?xml version="1.0" encoding="utf-8"?>
<!-- Generator: Adobe Illustrator 25.3.1, SVG Export Plug-In . SVG Version: 6.00 Build 0)  -->
<svg version="1.1" id="Layer_1" xmlns="http://www.w3.org/2000/svg" xmlns:xlink="http://www.w3.org/1999/xlink" x="0px" y="0px"
	 viewBox="0 0 72 65.73" style="enable-background:new 0 0 72 65.73;" xml:space="preserve">
<style type="text/css">
	.st0{fill:#1D2C56;}
</style>
<g>
	<g>
		<path class="st0" d="M33.35,23.76c-0.11,0-0.22-0.02-0.32-0.05l-11.94-4.04c-0.3-0.1-0.53-0.33-0.63-0.63s-0.05-0.62,0.12-0.88
			L32.52,0.67c0.18-0.27,0.49-0.43,0.82-0.44c0.31,0.04,0.63,0.15,0.83,0.42l12.48,17.49c0.18,0.26,0.24,0.59,0.13,0.89
			c-0.1,0.3-0.34,0.54-0.64,0.64l-12.48,4.04C33.55,23.74,33.45,23.76,33.35,23.76z M22.98,18.2l10.37,3.51l10.86-3.51L33.37,2.98
			L22.98,18.2z"/>
		<path class="st0" d="M33.35,44.75c-0.1,0-0.2-0.02-0.3-0.05l-20.62-6.46c-0.3-0.09-0.54-0.33-0.65-0.63
			c-0.1-0.3-0.06-0.63,0.12-0.89l8.59-12.56c0.25-0.37,0.71-0.52,1.13-0.39l11.8,3.76l12.62-4.29c0.43-0.14,0.9,0.01,1.15,0.39
			l8.23,12.2c0.17,0.26,0.22,0.58,0.12,0.88c-0.1,0.29-0.33,0.53-0.62,0.63l-21.25,7.35C33.57,44.73,33.46,44.75,33.35,44.75z
			 M14.32,36.74l19.01,5.96l19.71-6.82l-7.07-10.48l-12.21,4.15c-0.2,0.07-0.42,0.07-0.62,0.01l-11.41-3.63L14.32,36.74z"/>
		<path class="st0" d="M33.35,65.73c-0.1,0-0.21-0.02-0.31-0.05l-29.57-9.6c-0.3-0.1-0.53-0.33-0.64-0.62
			c-0.1-0.3-0.06-0.62,0.12-0.89l8.41-12.47c0.25-0.36,0.7-0.52,1.13-0.4l20.86,6.5l20.95-6.59c0.41-0.13,0.86,0.02,1.11,0.37
			l9.4,13.18c0.19,0.26,0.24,0.6,0.13,0.91c-0.11,0.31-0.35,0.54-0.66,0.63l-30.65,8.97C33.54,65.72,33.44,65.73,33.35,65.73z
			 M5.35,54.59l28.01,9.09l29.01-8.49L54.2,43.75l-20.56,6.46c-0.19,0.06-0.4,0.06-0.6,0L12.6,43.84L5.35,54.59z"/>
		<rect x="32.35" y="49.26" class="st0" width="2" height="15.74"/>
		<rect x="32.35" y="28.75" class="st0" width="2" height="14.66"/>
		<path class="st0" d="M33.35,23.76c-0.55,0-1-0.45-1-1V1.77c0-0.55,0.45-1,1-1c0.55,0,1,0.45,1,1v20.99
			C34.35,23.31,33.9,23.76,33.35,23.76z"/>
		<path class="st0" d="M21.32,25.73c-0.39,0-0.75-0.23-0.92-0.6c-0.22-0.51,0.01-1.1,0.52-1.32l4.06-1.76
			c0.51-0.22,1.1,0.01,1.32,0.52c0.22,0.51-0.01,1.1-0.52,1.32l-4.06,1.76C21.59,25.71,21.45,25.73,21.32,25.73z"/>
		<path class="st0" d="M46.37,25.19c-0.12,0-0.23-0.02-0.35-0.06l-4.35-1.61c-0.52-0.19-0.78-0.77-0.59-1.29
			c0.19-0.52,0.76-0.79,1.29-0.59l4.35,1.61c0.52,0.19,0.78,0.77,0.59,1.29C47.16,24.95,46.77,25.19,46.37,25.19z"/>
		<path class="st0" d="M12.44,43.6c-0.38,0-0.75-0.22-0.91-0.59c-0.22-0.5,0-1.1,0.51-1.32l3.7-1.65c0.51-0.22,1.1,0,1.32,0.51
			c0.22,0.5,0,1.1-0.51,1.32l-3.7,1.65C12.71,43.57,12.57,43.6,12.44,43.6z"/>
		<path class="st0" d="M54.6,43.58c-0.13,0-0.26-0.02-0.39-0.08l-4.43-1.85c-0.51-0.21-0.75-0.8-0.54-1.31
			c0.21-0.51,0.8-0.75,1.31-0.54l4.43,1.85c0.51,0.21,0.75,0.8,0.54,1.31C55.36,43.35,54.99,43.58,54.6,43.58z"/>
	</g>
	<path class="st0" d="M4,32c-2.21,0-4-1.79-4-4c0-2.21,1.79-4,4-4c2.21,0,4,1.79,4,4C8,30.21,6.21,32,4,32z M4,26c-1.1,0-2,0.9-2,2
		s0.9,2,2,2c1.1,0,2-0.9,2-2S5.1,26,4,26z"/>
	<path class="st0" d="M68,40c-2.21,0-4-1.79-4-4c0-2.21,1.79-4,4-4c2.21,0,4,1.79,4,4C72,38.21,70.21,40,68,40z M68,34
		c-1.1,0-2,0.9-2,2s0.9,2,2,2c1.1,0,2-0.9,2-2S69.1,34,68,34z"/>
	<path class="st0" d="M13,29H7c-0.55,0-1-0.45-1-1s0.45-1,1-1h6c0.55,0,1,0.45,1,1S13.55,29,13,29z"/>
	<path class="st0" d="M68,46h-6c-0.55,0-1-0.45-1-1s0.45-1,1-1h5v-5c0-0.55,0.45-1,1-1c0.55,0,1,0.45,1,1v6C69,45.55,68.55,46,68,46
		z"/>
	<g>
		<path class="st0" d="M54,8c-2.21,0-4-1.79-4-4c0-2.21,1.79-4,4-4c2.21,0,4,1.79,4,4C58,6.21,56.21,8,54,8z M54,2c-1.1,0-2,0.9-2,2
			s0.9,2,2,2c1.1,0,2-0.9,2-2S55.1,2,54,2z"/>
		<path class="st0" d="M43,9c-0.21,0-0.42-0.07-0.6-0.2c-0.44-0.33-0.53-0.96-0.2-1.4l3-4C45.39,3.15,45.69,3,46,3h5
			c0.55,0,1,0.45,1,1s-0.45,1-1,1h-4.5l-2.7,3.6C43.6,8.86,43.3,9,43,9z"/>
	</g>
</g>
</svg>
