<?xml version="1.0" encoding="utf-8"?>
<!-- Generator: Adobe Illustrator 25.3.1, SVG Export Plug-In . SVG Version: 6.00 Build 0)  -->
<svg version="1.1" id="Layer_1" xmlns="http://www.w3.org/2000/svg" xmlns:xlink="http://www.w3.org/1999/xlink" x="0px" y="0px"
	 viewBox="0 0 72 65.73" style="enable-background:new 0 0 72 65.73;" xml:space="preserve">
<style type="text/css">
	.st0{fill:#1D2C56;}
</style>
<g>
	<path class="st0" d="M62.5,51.88h-18c-0.55,0-1-0.45-1-1s0.45-1,1-1h18c0.55,0,1-0.45,1-1v-40c0-0.55-0.45-1-1-1h-60
		c-0.55,0-1,0.45-1,1v40c0,0.55,0.45,1,1,1h18c0.55,0,1,0.45,1,1s-0.45,1-1,1h-18c-1.65,0-3-1.35-3-3v-40c0-1.65,1.35-3,3-3h60
		c1.65,0,3,1.35,3,3v40C65.5,50.53,64.15,51.88,62.5,51.88z"/>
	<path class="st0" d="M0.5,17.88c-0.55,0-1-0.45-1-1s0.45-1,1-1c4.96,0,9-4.04,9-9c0-0.55,0.45-1,1-1c0.55,0,1,0.45,1,1
		C11.5,12.94,6.57,17.88,0.5,17.88z"/>
	<path class="st0" d="M10.5,51.88c-0.55,0-1-0.45-1-1c0-4.96-4.04-9-9-9c-0.55,0-1-0.45-1-1s0.45-1,1-1c6.07,0,11,4.93,11,11
		C11.5,51.43,11.05,51.88,10.5,51.88z"/>
	<path class="st0" d="M64.5,17.88c-6.07,0-11-4.93-11-11c0-0.55,0.45-1,1-1c0.55,0,1,0.45,1,1c0,4.96,4.04,9,9,9c0.55,0,1,0.45,1,1
		S65.05,17.88,64.5,17.88z"/>
	<path class="st0" d="M54.5,51.88c-0.55,0-1-0.45-1-1c0-6.07,4.93-11,11-11c0.55,0,1,0.45,1,1s-0.45,1-1,1c-4.96,0-9,4.04-9,9
		C55.5,51.43,55.05,51.88,54.5,51.88z"/>
	<path class="st0" d="M39.5,15.88h-14c-0.55,0-1-0.45-1-1s0.45-1,1-1h14c0.55,0,1,0.45,1,1S40.05,15.88,39.5,15.88z"/>
	<path class="st0" d="M55.5,24.88h-46c-0.55,0-1-0.45-1-1s0.45-1,1-1h46c0.55,0,1,0.45,1,1S56.05,24.88,55.5,24.88z"/>
	<path class="st0" d="M55.42,30.88h-46c-0.55,0-1-0.45-1-1s0.45-1,1-1h46c0.55,0,1,0.45,1,1S55.97,30.88,55.42,30.88z"/>
	<path class="st0" d="M55.5,36.88h-46c-0.55,0-1-0.45-1-1s0.45-1,1-1h46c0.55,0,1,0.45,1,1S56.05,36.88,55.5,36.88z"/>
	<g>
		<g>
			<path class="st0" d="M33.77,59.95c-0.64,0-1.23-0.23-1.69-0.62c-0.4,0.24-0.87,0.38-1.36,0.38c-0.94,0-1.77-0.5-2.23-1.25
				c-0.21,0.05-0.43,0.08-0.65,0.08c-1.32,0-2.41-0.97-2.59-2.24c-1.14-0.29-1.98-1.32-1.98-2.54c0-0.31,0.06-0.62,0.16-0.91
				c-0.59-0.48-0.96-1.22-0.96-2.02c0-0.61,0.21-1.18,0.57-1.63c-0.25-0.4-0.39-0.88-0.39-1.37c0-1.04,0.61-1.94,1.49-2.36
				c-0.01-0.09-0.01-0.18-0.01-0.28c0-1.44,1.17-2.62,2.62-2.62c0,0,0,0,0,0c0.39-0.96,1.33-1.64,2.43-1.64
				c0.3,0,0.59,0.05,0.87,0.15c0.48-0.63,1.24-1.04,2.08-1.04c0.67,0,1.29,0.25,1.76,0.68c0.38-0.2,0.8-0.31,1.25-0.31
				c1.16,0,2.14,0.75,2.49,1.8c1.44,0,2.61,1.18,2.61,2.62c0,0.12-0.01,0.23-0.02,0.34c0.92,0.41,1.56,1.33,1.56,2.4
				c0,0.42-0.1,0.82-0.28,1.18c0.51,0.48,0.83,1.16,0.83,1.91c0,0.91-0.47,1.71-1.17,2.18c0.07,0.24,0.11,0.5,0.11,0.76
				c0,1.24-0.87,2.28-2.03,2.55c-0.08,1.37-1.22,2.47-2.61,2.47c-0.18,0-0.36-0.02-0.53-0.05C35.64,59.38,34.77,59.95,33.77,59.95z
				 M32.21,56.73c0.03,0,0.05,0,0.08,0c0.43,0.03,0.78,0.33,0.89,0.75c0.07,0.27,0.32,0.46,0.6,0.46c0.34,0,0.62-0.28,0.62-0.62
				c0-0.05-0.01-0.09-0.01-0.14c-0.08-0.45,0.15-0.9,0.57-1.09c0.41-0.19,0.91-0.07,1.19,0.28c0.12,0.15,0.29,0.23,0.48,0.23
				c0.34,0,0.62-0.28,0.62-0.62c0-0.13-0.04-0.25-0.12-0.35c-0.19-0.26-0.24-0.59-0.14-0.89c0.1-0.3,0.33-0.54,0.63-0.64
				c0.25-0.08,0.52-0.07,0.75,0.05c0.39,0.19,0.89-0.12,0.89-0.56c0-0.2-0.1-0.39-0.27-0.51c-0.38-0.26-0.53-0.74-0.38-1.17
				c0.16-0.43,0.59-0.69,1.04-0.65c0,0,0,0,0,0c0.39,0,0.66-0.28,0.66-0.62c0-0.32-0.25-0.59-0.57-0.62c-0.52-0.04-0.92-0.48-0.92-1
				c0-0.39,0.23-0.75,0.58-0.91c0.22-0.1,0.36-0.32,0.36-0.56c0-0.34-0.28-0.62-0.62-0.62c-0.05,0-0.11,0.01-0.17,0.03
				c-0.41,0.1-0.84-0.06-1.08-0.42c-0.27-0.4-0.21-0.94,0.13-1.28c0.09-0.09,0.2-0.24,0.2-0.46c0-0.47-0.59-0.78-0.98-0.51
				c-0.35,0.25-0.82,0.24-1.16-0.01c-0.35-0.25-0.5-0.69-0.37-1.1c0.02-0.06,0.03-0.12,0.03-0.18c0-0.34-0.28-0.62-0.62-0.62
				c-0.23,0-0.44,0.13-0.55,0.33c-0.19,0.37-0.59,0.58-1,0.53c-0.41-0.05-0.75-0.35-0.85-0.75c-0.07-0.28-0.31-0.47-0.6-0.47
				c-0.34,0-0.61,0.27-0.62,0.61c-0.01,0.43-0.29,0.81-0.71,0.94c-0.42,0.13-0.86-0.03-1.11-0.38c-0.12-0.17-0.31-0.27-0.51-0.27
				c-0.34,0-0.62,0.28-0.62,0.62c0,0.03,0.01,0.07,0.01,0.1c0.06,0.39-0.11,0.77-0.43,0.99c-0.32,0.22-0.74,0.23-1.08,0.02
				c-0.39-0.24-0.94,0.08-0.94,0.53c0,0.19,0.08,0.32,0.15,0.4c0.27,0.32,0.31,0.77,0.1,1.13c-0.2,0.36-0.61,0.56-1.02,0.5
				c0,0-0.01,0-0.01,0c-0.41,0-0.68,0.27-0.68,0.61c0,0.24,0.14,0.46,0.36,0.56c0.37,0.17,0.6,0.56,0.57,0.97
				c-0.03,0.41-0.3,0.76-0.68,0.89c-0.21,0.07-0.43,0.28-0.43,0.59c0,0.32,0.25,0.59,0.57,0.62c0.42,0.04,0.77,0.33,0.88,0.73
				c0.11,0.4-0.04,0.83-0.38,1.08c-0.16,0.12-0.26,0.3-0.26,0.5c0,0.4,0.37,0.71,0.79,0.59c0.37-0.11,0.76,0,1.02,0.29
				c0.26,0.28,0.33,0.69,0.19,1.04c-0.03,0.08-0.05,0.16-0.05,0.23c0,0.34,0.28,0.62,0.62,0.62c0.19,0,0.37-0.09,0.48-0.23
				c0.27-0.34,0.74-0.47,1.15-0.31c0.41,0.16,0.67,0.57,0.63,1.01c-0.01,0.42,0.27,0.7,0.61,0.7c0.25,0,0.47-0.15,0.57-0.37
				C31.45,56.97,31.81,56.73,32.21,56.73z"/>
			<path class="st0" d="M32.4,55.54c-3.06,0-5.54-2.49-5.54-5.54c0-3.06,2.49-5.54,5.54-5.54c3.06,0,5.54,2.49,5.54,5.54
				C37.94,53.05,35.45,55.54,32.4,55.54z M32.4,46.45c-1.95,0-3.54,1.59-3.54,3.54c0,1.95,1.59,3.54,3.54,3.54
				c1.95,0,3.54-1.59,3.54-3.54C35.94,48.04,34.35,46.45,32.4,46.45z"/>
		</g>
		<path class="st0" d="M36.5,66.79c-0.22,0-0.44-0.07-0.62-0.22l-3.18-2.54l-3.18,2.54c-0.3,0.24-0.71,0.29-1.06,0.12
			c-0.35-0.17-0.57-0.52-0.57-0.9v-8.21c0-0.55,0.45-1,1-1c0.55,0,1,0.45,1,1v6.13l2.18-1.74c0.37-0.29,0.88-0.29,1.25,0l2.18,1.74
			v-6.13c0-0.55,0.45-1,1-1s1,0.45,1,1v8.21c0,0.38-0.22,0.73-0.57,0.9C36.79,66.75,36.64,66.79,36.5,66.79z"/>
	</g>
	<path class="st0" d="M69.5,44.88h-1c-0.55,0-1-0.45-1-1s0.45-1,1-1h1c0.55,0,1-0.45,1-1v-40c0-0.55-0.45-1-1-1h-60
		c-0.55,0-1,0.45-1,1v1c0,0.55-0.45,1-1,1c-0.55,0-1-0.45-1-1v-1c0-1.65,1.35-3,3-3h60c1.65,0,3,1.35,3,3v40
		C72.5,43.53,71.15,44.88,69.5,44.88z"/>
</g>
</svg>
