<?xml version="1.0" encoding="utf-8"?>
<!-- Generator: Adobe Illustrator 25.3.1, SVG Export Plug-In . SVG Version: 6.00 Build 0)  -->
<svg version="1.1" id="Layer_1" xmlns="http://www.w3.org/2000/svg" xmlns:xlink="http://www.w3.org/1999/xlink" x="0px" y="0px"
	 viewBox="0 0 88.75 66" style="enable-background:new 0 0 88.75 66;" xml:space="preserve">
<style type="text/css">
	.st0{fill:#1D2C56;}
</style>
<g>
	<g>
		<path class="st0" d="M31.37,57.67c-0.16,0-0.33-0.04-0.48-0.12C21.94,52.62,16.38,43.21,16.38,33s5.56-19.62,14.52-24.55
			c0.48-0.26,1.09-0.09,1.36,0.39c0.27,0.48,0.09,1.09-0.39,1.36C23.54,14.78,18.38,23.52,18.38,33s5.17,18.22,13.48,22.79
			c0.48,0.27,0.66,0.87,0.39,1.36C32.07,57.48,31.73,57.67,31.37,57.67z"/>
		<g>
			<path class="st0" d="M16.38,10c-2.76,0-5-2.24-5-5c0-2.76,2.24-5,5-5c2.76,0,5,2.24,5,5C21.38,7.76,19.13,10,16.38,10z M16.38,2
				c-1.65,0-3,1.35-3,3s1.35,3,3,3c1.65,0,3-1.35,3-3S18.03,2,16.38,2z"/>
			<path class="st0" d="M25.13,14.75c-0.26,0-0.51-0.1-0.71-0.29l-5.79-5.79c-0.39-0.39-0.39-1.02,0-1.41
				c0.39-0.39,1.02-0.39,1.41,0l5.79,5.79c0.39,0.39,0.39,1.02,0,1.41C25.64,14.65,25.38,14.75,25.13,14.75z"/>
		</g>
		<g>
			<path class="st0" d="M5,38c-1.34,0-2.59-0.52-3.54-1.46C0.52,35.59,0,34.34,0,33c0-1.34,0.52-2.59,1.46-3.54
				C2.41,28.52,3.66,28,5,28c1.34,0,2.59,0.52,3.54,1.46l0,0l0,0l0,0C9.48,30.41,10,31.66,10,33c0,1.34-0.52,2.59-1.46,3.54
				C7.59,37.48,6.34,38,5,38z M5,30c-0.8,0-1.55,0.31-2.12,0.88C2.31,31.45,2,32.2,2,33c0,0.8,0.31,1.55,0.88,2.12
				c1.13,1.13,3.11,1.13,4.24,0C7.69,34.55,8,33.8,8,33c0-0.8-0.31-1.55-0.88-2.12l0,0C6.55,30.31,5.8,30,5,30z"/>
			<path class="st0" d="M17.38,34H9.19c-0.55,0-1-0.45-1-1c0-0.55,0.45-1,1-1h8.18c0.55,0,1,0.45,1,1C18.38,33.55,17.93,34,17.38,34
				z"/>
		</g>
		<g>
			<path class="st0" d="M16.43,65.95c-2.76,0-5-2.24-5-5c0-2.76,2.24-5,5-5c2.76,0,5,2.24,5,5C21.43,63.7,19.19,65.95,16.43,65.95z
				 M16.43,57.95c-1.65,0-3,1.35-3,3s1.35,3,3,3s3-1.35,3-3S18.09,57.95,16.43,57.95z"/>
			<path class="st0" d="M19.4,58.98c-0.26,0-0.51-0.1-0.71-0.29c-0.39-0.39-0.39-1.02,0-1.41l5.79-5.79c0.39-0.39,1.02-0.39,1.41,0
				c0.39,0.39,0.39,1.02,0,1.41l-5.79,5.79C19.91,58.88,19.65,58.98,19.4,58.98z"/>
		</g>
	</g>
	<g>
		<path class="st0" d="M57.38,57.72c-0.35,0-0.69-0.19-0.88-0.52c-0.27-0.48-0.09-1.09,0.39-1.36c8.32-4.58,13.48-13.31,13.48-22.79
			c0-9.48-5.17-18.22-13.48-22.79c-0.48-0.27-0.66-0.87-0.39-1.36c0.27-0.48,0.87-0.66,1.36-0.39c8.96,4.93,14.52,14.33,14.52,24.55
			S66.81,52.67,57.86,57.6C57.71,57.68,57.54,57.72,57.38,57.72z"/>
		<g>
			<path class="st0" d="M72.38,10.05c-2.76,0-5-2.24-5-5c0-2.76,2.24-5,5-5c2.76,0,5,2.24,5,5C77.38,7.81,75.13,10.05,72.38,10.05z
				 M72.38,2.05c-1.65,0-3,1.35-3,3s1.35,3,3,3c1.65,0,3-1.35,3-3S74.03,2.05,72.38,2.05z"/>
			<path class="st0" d="M63.62,14.81c-0.26,0-0.51-0.1-0.71-0.29c-0.39-0.39-0.39-1.02,0-1.41l5.79-5.79c0.39-0.39,1.02-0.39,1.41,0
				c0.39,0.39,0.39,1.02,0,1.41l-5.79,5.79C64.14,14.71,63.88,14.81,63.62,14.81z"/>
		</g>
		<g>
			<path class="st0" d="M83.75,38.05c-1.28,0-2.56-0.49-3.54-1.46c-1.95-1.95-1.95-5.12,0-7.07l0,0c1.95-1.95,5.12-1.95,7.07,0
				c1.95,1.95,1.95,5.12,0,7.07C86.31,37.57,85.03,38.05,83.75,38.05z M81.63,30.93c-1.17,1.17-1.17,3.07,0,4.24
				c1.17,1.17,3.07,1.17,4.24,0c1.17-1.17,1.17-3.07,0-4.24C84.7,29.76,82.8,29.76,81.63,30.93L81.63,30.93z"/>
			<path class="st0" d="M79.56,34.05h-8.18c-0.55,0-1-0.45-1-1c0-0.55,0.45-1,1-1h8.18c0.55,0,1,0.45,1,1
				C80.56,33.61,80.11,34.05,79.56,34.05z"/>
		</g>
		<g>
			<path class="st0" d="M72.32,66c-2.76,0-5-2.24-5-5c0-2.76,2.24-5,5-5c2.76,0,5,2.24,5,5C77.32,63.76,75.08,66,72.32,66z
				 M72.32,58c-1.65,0-3,1.35-3,3s1.35,3,3,3c1.65,0,3-1.35,3-3S73.98,58,72.32,58z"/>
			<path class="st0" d="M69.36,59.04c-0.26,0-0.51-0.1-0.71-0.29l-5.79-5.79c-0.39-0.39-0.39-1.02,0-1.41
				c0.39-0.39,1.02-0.39,1.41,0l5.79,5.79c0.39,0.39,0.39,1.02,0,1.41C69.87,58.94,69.61,59.04,69.36,59.04z"/>
		</g>
	</g>
	<g>
		<path class="st0" d="M50.56,46.48c-0.94,0-1.85-0.38-2.52-1.05c-0.68-0.68-1.05-1.58-1.05-2.55c0-0.96,0.38-1.87,1.06-2.55
			l1.18-1.14c0.4-0.38,1.03-0.37,1.41,0.03c0.38,0.4,0.37,1.03-0.02,1.41l-1.17,1.13c-0.29,0.29-0.46,0.69-0.46,1.12
			c0,0.43,0.17,0.83,0.47,1.13c0.31,0.31,0.73,0.47,1.14,0.46c0.39-0.01,0.75-0.17,1.01-0.46l7-6.57c0.19-0.17,0.43-0.27,0.68-0.27
			h0l3.58,0c0.55,0,1,0.45,1,1c0,0.55-0.45,1-1,1h0l-3.19,0l-6.65,6.24c-0.57,0.64-1.43,1.04-2.38,1.06
			C50.62,46.48,50.59,46.48,50.56,46.48z"/>
		<path class="st0" d="M26.06,22.71c-0.55,0-1-0.45-1-1c0-0.55,0.45-1,1-1l37.43,0c0.55,0,1,0.45,1,1c0,0.55-0.45,1-1,1L26.06,22.71
			z"/>
		<path class="st0" d="M33.47,41.76c-0.92,0-1.84-0.35-2.54-1.05c-0.68-0.68-1.05-1.59-1.05-2.55c0-0.96,0.38-1.87,1.06-2.55
			l9.34-9.3c0.39-0.39,1.02-0.39,1.41,0c0.39,0.39,0.39,1.03,0,1.42l-9.34,9.3c-0.3,0.3-0.47,0.7-0.47,1.13
			c0,0.43,0.17,0.83,0.47,1.13c0.62,0.62,1.64,0.62,2.26,0l7.27-7.27c0.39-0.39,1.02-0.39,1.41,0c0.39,0.39,0.39,1.02,0,1.41
			l-7.27,7.27C35.32,41.41,34.4,41.76,33.47,41.76z"/>
		<path class="st0" d="M40.03,42.65c-0.88,0-1.76-0.41-2.54-1.19c-0.68-0.68-1.06-1.59-1.05-2.55c0-0.96,0.38-1.87,1.06-2.54
			l4.59-4.56c0.39-0.39,1.02-0.39,1.41,0c0.39,0.39,0.39,1.02,0,1.41l-4.59,4.56c-0.3,0.3-0.47,0.7-0.47,1.13
			c0,0.43,0.17,0.83,0.47,1.13c0.23,0.23,0.68,0.57,1.15,0.6c0.32-0.01,0.66-0.21,1-0.6l4.55-4.55c0.39-0.39,1.02-0.39,1.41,0
			c0.39,0.39,0.39,1.02,0,1.41l-4.51,4.51c-0.69,0.78-1.51,1.2-2.4,1.22C40.08,42.65,40.06,42.65,40.03,42.65z"/>
		<path class="st0" d="M45.07,44.68c-0.94,0-1.85-0.38-2.52-1.05c-0.68-0.68-1.05-1.59-1.05-2.55c0-0.96,0.38-1.87,1.06-2.54
			l3.07-3.03c0.39-0.39,1.03-0.38,1.41,0.01c0.39,0.39,0.38,1.03-0.01,1.41l-3.07,3.03c-0.3,0.3-0.47,0.7-0.47,1.13
			c0,0.43,0.17,0.83,0.47,1.13c0.31,0.31,0.72,0.5,1.14,0.46c0.39-0.01,0.75-0.17,1.01-0.46l3.05-3.05c0.39-0.39,1.02-0.39,1.41,0
			c0.39,0.39,0.39,1.02,0,1.41l-3.02,3.02c-0.59,0.66-1.46,1.06-2.4,1.08C45.13,44.67,45.1,44.68,45.07,44.68z"/>
		<path class="st0" d="M51.25,33.53c-0.92,0-1.84-0.35-2.55-1.05l-4.56-4.56h-3.05c-0.55,0-1-0.45-1-1c0-0.55,0.45-1,1-1h3.46
			c0.27,0,0.52,0.11,0.71,0.29l4.86,4.86c0.62,0.62,1.64,0.62,2.26,0c0.3-0.3,0.47-0.7,0.47-1.13c0-0.43-0.17-0.83-0.47-1.13
			L46,22.41c-0.39-0.39-0.39-1.02,0-1.41c0.39-0.39,1.02-0.39,1.41,0l6.38,6.38c0.68,0.68,1.05,1.58,1.05,2.55s-0.37,1.87-1.06,2.54
			C53.09,33.17,52.17,33.53,51.25,33.53z"/>
		<path class="st0" d="M30.91,39.18h-4.03c-0.55,0-1-0.45-1-1c0-0.55,0.45-1,1-1h4.03c0.55,0,1,0.45,1,1
			C31.91,38.73,31.46,39.18,30.91,39.18z"/>
	</g>
</g>
</svg>
