<?xml version="1.0" encoding="utf-8"?>
<!-- Generator: Adobe Illustrator 25.3.1, SVG Export Plug-In . SVG Version: 6.00 Build 0)  -->
<svg version="1.1" id="Layer_1" xmlns="http://www.w3.org/2000/svg" xmlns:xlink="http://www.w3.org/1999/xlink" x="0px" y="0px"
	 viewBox="0 0 62 67.43" style="enable-background:new 0 0 62 67.43;" xml:space="preserve">
<style type="text/css">
	.st0{fill:#1D2C56;}
</style>
<g>
	<g>
		<g>
			<path class="st0" d="M31.19,39.99c-0.55,0-1-0.45-1-1v-3.44c0-1.5,1.22-2.72,2.72-2.72h6.91l-1.1-3.4
				c-0.17-0.53,0.12-1.09,0.64-1.26c0.53-0.17,1.09,0.12,1.26,0.64l1.52,4.71c0.1,0.3,0.04,0.64-0.14,0.9
				c-0.19,0.26-0.49,0.41-0.81,0.41H32.9c-0.4,0-0.72,0.32-0.72,0.72v3.44C32.19,39.54,31.74,39.99,31.19,39.99z"/>
			<path class="st0" d="M31.19,39.99c-0.55,0-1-0.45-1-1v-3.44c0-0.4-0.32-0.72-0.72-0.72h-8.01c-0.31,0-0.61-0.15-0.8-0.4
				c-0.19-0.25-0.25-0.58-0.16-0.88l1.33-4.67c0.15-0.53,0.71-0.83,1.24-0.69c0.53,0.15,0.84,0.71,0.69,1.24l-0.97,3.39h6.69
				c1.5,0,2.72,1.22,2.72,2.72v3.44C32.19,39.54,31.74,39.99,31.19,39.99z"/>
		</g>
		<path class="st0" d="M32.2,20h-2c-0.55,0-1-0.45-1-1s0.45-1,1-1h2c0.55,0,1,0.45,1,1S32.75,20,32.2,20z"/>
		<g>
			<path class="st0" d="M31.2,16c-4.19,0-7-3.21-7-8c0-4.79,2.81-8,7-8s7,3.21,7,8C38.2,12.79,35.39,16,31.2,16z M31.2,2
				c-3.69,0-5,3.23-5,6s1.31,6,5,6c3.69,0,5-3.23,5-6S34.89,2,31.2,2z"/>
		</g>
		<path class="st0" d="M31.2,28c-0.55,0-1-0.45-1-1v-8c0-0.55,0.45-1,1-1c0.55,0,1,0.45,1,1v8C32.2,27.55,31.75,28,31.2,28z"/>
		<path class="st0" d="M45.2,40H34.96c-0.55,0-1-0.45-1-1s0.45-1,1-1H45.2c0.67,0,1.13-0.19,1.42-0.59c0.43-0.59,0.48-1.66,0.12-2.8
			l-3.09-9.57C42.44,21.61,40.61,20,37.92,20h-0.15l-4.83,7.89c-0.32,0.6-1,1-1.73,1c-0.74,0-1.41-0.4-1.76-1.05L24.64,20h-0.15
			c-2.69,0-4.52,1.61-5.75,5.07l-3.08,9.55c-0.36,1.12-0.31,2.2,0.13,2.79c0.29,0.4,0.76,0.59,1.42,0.59h10.24c0.55,0,1,0.45,1,1
			s-0.45,1-1,1H17.2c-1.65,0-2.56-0.77-3.03-1.41c-0.83-1.13-0.98-2.8-0.42-4.58l3.1-9.58c1.52-4.27,4.09-6.43,7.64-6.43h0.71
			c0.35,0,0.67,0.18,0.85,0.48l5.12,8.37l5.17-8.37c0.18-0.3,0.5-0.48,0.85-0.48h0.71c3.56,0,6.13,2.15,7.63,6.4l3.1,9.61
			c0.56,1.79,0.41,3.46-0.42,4.59C47.77,39.23,46.86,40,45.2,40z"/>
	</g>
	<g>
		<path class="st0" d="M37.68,67.43c-1.04,0-2.05-0.42-2.8-1.17c-0.76-0.76-1.17-1.76-1.17-2.83c0-1.07,0.42-2.07,1.18-2.83
			l1.36-1.32c0.4-0.38,1.03-0.37,1.41,0.02c0.38,0.4,0.37,1.03-0.02,1.41l-1.35,1.31c-0.37,0.37-0.58,0.87-0.58,1.4
			c0,0.53,0.21,1.04,0.58,1.41c0.38,0.38,0.91,0.61,1.43,0.58c0.5-0.01,0.95-0.22,1.27-0.58l8.07-7.57C47.25,57.1,47.5,57,47.75,57
			l0,0L54,57c0.55,0,1,0.45,1,1c0,0.55-0.45,1-1,1l0,0l-5.85,0l-7.72,7.24c-0.63,0.71-1.6,1.16-2.65,1.18
			C37.75,67.43,37.71,67.43,37.68,67.43z"/>
		<path class="st0" d="M1,40c-0.55,0-1-0.45-1-1c0-0.55,0.45-1,1-1l60,0c0.55,0,1,0.45,1,1c0,0.55-0.45,1-1,1L1,40z"/>
		<path class="st0" d="M17.96,61.98c-1.02,0-2.05-0.39-2.83-1.17c-0.76-0.76-1.17-1.76-1.17-2.83c0-1.07,0.42-2.07,1.18-2.83
			l10.77-10.73c0.39-0.39,1.02-0.39,1.41,0c0.39,0.39,0.39,1.03,0,1.41L16.55,56.57c-0.38,0.38-0.59,0.88-0.59,1.41
			c0,0.53,0.21,1.04,0.59,1.41c0.75,0.75,2.07,0.75,2.82,0l8.38-8.38c0.39-0.39,1.02-0.39,1.41,0c0.39,0.39,0.39,1.02,0,1.41
			l-8.38,8.38C20.01,61.59,18.99,61.98,17.96,61.98z"/>
		<path class="st0" d="M25.53,63.01c-0.98,0-1.95-0.46-2.82-1.33c-0.76-0.76-1.17-1.76-1.17-2.83c0-1.07,0.42-2.07,1.18-2.83
			l5.29-5.26c0.39-0.39,1.02-0.39,1.41,0c0.39,0.39,0.39,1.02,0,1.41l-5.29,5.26c-0.38,0.38-0.59,0.88-0.59,1.41
			c0,0.53,0.21,1.04,0.58,1.42C24.47,60.61,25,61,25.56,61c0.41-0.01,0.84-0.26,1.27-0.74l5.25-5.25c0.39-0.39,1.02-0.39,1.41,0
			c0.39,0.39,0.39,1.02,0,1.41l-5.21,5.21c-0.78,0.87-1.69,1.34-2.67,1.37C25.59,63,25.56,63.01,25.53,63.01z"/>
		<path class="st0" d="M31.34,65.34c-1.04,0-2.05-0.42-2.8-1.17c-0.76-0.76-1.17-1.76-1.17-2.83c0-1.07,0.42-2.07,1.18-2.83
			l3.54-3.5c0.39-0.39,1.03-0.38,1.41,0.01c0.39,0.39,0.38,1.03-0.01,1.41l-3.54,3.49c-0.38,0.37-0.58,0.88-0.58,1.41
			c0,0.53,0.21,1.04,0.58,1.41c0.38,0.38,0.89,0.62,1.43,0.58c0.5-0.01,0.95-0.22,1.27-0.58l3.52-3.52c0.39-0.39,1.02-0.39,1.41,0
			c0.39,0.39,0.39,1.02,0,1.41l-3.48,3.48c-0.66,0.74-1.62,1.18-2.67,1.21C31.41,65.34,31.38,65.34,31.34,65.34z"/>
		<path class="st0" d="M38.47,52.48c-1.02,0-2.05-0.39-2.83-1.17L30.33,46h-3.58c-0.55,0-1-0.45-1-1s0.45-1,1-1h3.99
			c0.27,0,0.52,0.11,0.71,0.29l5.6,5.6c0.78,0.78,2.05,0.78,2.83,0c0.78-0.78,0.78-2.05,0-2.83l-7.36-7.36
			c-0.39-0.39-0.39-1.02,0-1.41c0.39-0.39,1.02-0.39,1.41,0l7.36,7.36c1.56,1.56,1.56,4.1,0,5.66
			C40.52,52.09,39.49,52.48,38.47,52.48z"/>
		<path class="st0" d="M15,59H8.38c-0.55,0-1-0.45-1-1s0.45-1,1-1H15c0.55,0,1,0.45,1,1S15.55,59,15,59z"/>
	</g>
</g>
</svg>
