<?xml version="1.0" encoding="utf-8"?>
<!-- Generator: Adobe Illustrator 25.3.1, SVG Export Plug-In . SVG Version: 6.00 Build 0)  -->
<svg version="1.1" id="Layer_1" xmlns="http://www.w3.org/2000/svg" xmlns:xlink="http://www.w3.org/1999/xlink" x="0px" y="0px"
	 viewBox="0 0 74.05 66.31" style="enable-background:new 0 0 74.05 66.31;" xml:space="preserve">
<style type="text/css">
	.st0{fill:#1D2C56;}
</style>
<g>
	<g>
		<g>
			<g>
				<g>
					<g>
						<path class="st0" d="M20.5,43.71c-5.94,0-11.96-1.62-11.96-4.72v-4.65c0-0.55,0.45-1,1-1c0.55,0,1,0.45,1,1v4.65
							c0,0.96,3.78,2.72,9.96,2.72c2.19,0,3.83-0.14,5.32-0.45c0.54-0.11,1.07,0.23,1.18,0.78c0.11,0.54-0.24,1.07-0.78,1.18
							C24.6,43.55,22.83,43.71,20.5,43.71z"/>
					</g>
					<g>
						<path class="st0" d="M20.5,34.53c-5.94,0-11.96-1.62-11.96-4.72c0-3.1,6.02-4.72,11.96-4.72c1.97,0,3.91,0.17,5.61,0.5
							c0.54,0.1,0.9,0.63,0.79,1.17c-0.1,0.54-0.62,0.9-1.17,0.79c-1.58-0.31-3.39-0.47-5.23-0.47c-6.18,0-9.96,1.76-9.96,2.72
							c0,0.96,3.78,2.72,9.96,2.72c1.88,0,3.73-0.17,5.34-0.49c0.54-0.12,1.07,0.24,1.17,0.79c0.11,0.54-0.24,1.07-0.79,1.17
							C24.49,34.34,22.51,34.53,20.5,34.53z"/>
						<path class="st0" d="M20.5,39.17c-5.94,0-11.96-1.62-11.96-4.72v-4.65c0-0.55,0.45-1,1-1c0.55,0,1,0.45,1,1v4.65
							c0,0.96,3.78,2.72,9.96,2.72c1.83,0,3.64-0.16,5.22-0.47c0.54-0.11,1.07,0.25,1.17,0.79c0.11,0.54-0.25,1.07-0.79,1.17
							C24.4,39,22.46,39.17,20.5,39.17z"/>
					</g>
				</g>
				<g>
					<g>
						<path class="st0" d="M53.44,43.71c-2.04,0-3.9-0.18-5.69-0.54c-0.54-0.11-0.89-0.64-0.78-1.18c0.11-0.54,0.64-0.89,1.18-0.78
							c1.65,0.34,3.38,0.5,5.29,0.5c6.18,0,9.96-1.76,9.96-2.72v-4.65c0-0.55,0.45-1,1-1c0.55,0,1,0.45,1,1v4.65
							C65.4,42.08,59.38,43.71,53.44,43.71z"/>
					</g>
					<g>
						<path class="st0" d="M53.44,34.53c-1.94,0-3.86-0.17-5.55-0.49c-0.54-0.1-0.9-0.63-0.79-1.17c0.1-0.54,0.62-0.9,1.17-0.79
							c1.57,0.3,3.36,0.46,5.17,0.46c6.18,0,9.96-1.76,9.96-2.72c0-0.96-3.78-2.72-9.96-2.72c-1.95,0-3.68,0.15-5.27,0.47
							c-0.55,0.11-1.07-0.24-1.18-0.78c-0.11-0.54,0.24-1.07,0.78-1.18c1.72-0.34,3.57-0.51,5.66-0.51c5.94,0,11.96,1.62,11.96,4.72
							C65.4,32.91,59.38,34.53,53.44,34.53z"/>
						<path class="st0" d="M53.44,39.17c-1.95,0-3.88-0.17-5.58-0.5c-0.54-0.1-0.9-0.63-0.79-1.17c0.1-0.54,0.63-0.89,1.17-0.79
							c1.58,0.3,3.38,0.46,5.2,0.46c6.18,0,9.96-1.76,9.96-2.72v-4.65c0-0.55,0.45-1,1-1c0.55,0,1,0.45,1,1v4.65
							C65.4,37.55,59.38,39.17,53.44,39.17z"/>
					</g>
				</g>
			</g>
			<g>
				<g>
					<path class="st0" d="M36.97,41.47c-5.94,0-11.96-1.66-11.96-4.84c0-0.55,0.45-1,1-1c0.55,0,1,0.45,1,1
						c0,0.96,3.52,2.84,9.96,2.84c6.44,0,9.96-1.88,9.96-2.84c0-0.55,0.45-1,1-1c0.55,0,1,0.45,1,1
						C48.93,39.81,42.91,41.47,36.97,41.47z"/>
					<path class="st0" d="M36.97,46.27c-5.94,0-11.96-1.66-11.96-4.84v-4.8c0-0.55,0.45-1,1-1c0.55,0,1,0.45,1,1v4.8
						c0,0.96,3.52,2.84,9.96,2.84c6.44,0,9.96-1.88,9.96-2.84v-4.8c0-0.55,0.45-1,1-1c0.55,0,1,0.45,1,1v4.8
						C48.93,44.61,42.91,46.27,36.97,46.27z"/>
				</g>
				<g>
					<g>
						<path class="st0" d="M36.97,36.79c-5.94,0-11.96-1.66-11.96-4.84c0-0.55,0.45-1,1-1c0.55,0,1,0.45,1,1
							c0,0.96,3.52,2.84,9.96,2.84c6.44,0,9.96-1.88,9.96-2.84c0-0.55,0.45-1,1-1c0.55,0,1,0.45,1,1
							C48.93,35.13,42.91,36.79,36.97,36.79z"/>
						<path class="st0" d="M36.97,41.59c-5.94,0-11.96-1.66-11.96-4.84v-4.8c0-0.55,0.45-1,1-1c0.55,0,1,0.45,1,1v4.8
							c0,0.96,3.52,2.84,9.96,2.84c6.44,0,9.96-1.88,9.96-2.84v-4.8c0-0.55,0.45-1,1-1c0.55,0,1,0.45,1,1v4.8
							C48.93,39.93,42.91,41.59,36.97,41.59z"/>
					</g>
					<g>
						<path class="st0" d="M36.97,32.11c-5.94,0-11.96-1.66-11.96-4.84c0-0.55,0.45-1,1-1c0.55,0,1,0.45,1,1
							c0,0.96,3.52,2.84,9.96,2.84c6.44,0,9.96-1.88,9.96-2.84c0-0.55,0.45-1,1-1c0.55,0,1,0.45,1,1
							C48.93,30.45,42.91,32.11,36.97,32.11z"/>
						<path class="st0" d="M36.97,36.91c-5.94,0-11.96-1.66-11.96-4.84v-4.8c0-0.55,0.45-1,1-1c0.55,0,1,0.45,1,1v4.8
							c0,0.96,3.52,2.84,9.96,2.84c6.44,0,9.96-1.88,9.96-2.84v-4.8c0-0.55,0.45-1,1-1c0.55,0,1,0.45,1,1v4.8
							C48.93,35.25,42.91,36.91,36.97,36.91z"/>
					</g>
				</g>
				<g>
					<g>
						<path class="st0" d="M36.97,27.36c-5.94,0-11.96-1.66-11.96-4.84c0-0.55,0.45-1,1-1c0.55,0,1,0.45,1,1
							c0,0.96,3.52,2.84,9.96,2.84c6.44,0,9.96-1.88,9.96-2.84c0-0.55,0.45-1,1-1c0.55,0,1,0.45,1,1
							C48.93,25.7,42.91,27.36,36.97,27.36z"/>
						<path class="st0" d="M36.97,32.16c-5.94,0-11.96-1.66-11.96-4.84v-4.8c0-0.55,0.45-1,1-1c0.55,0,1,0.45,1,1v4.8
							c0,0.96,3.52,2.84,9.96,2.84c6.44,0,9.96-1.88,9.96-2.84v-4.8c0-0.55,0.45-1,1-1c0.55,0,1,0.45,1,1v4.8
							C48.93,30.5,42.91,32.16,36.97,32.16z"/>
					</g>
					<g>
						<path class="st0" d="M36.97,22.68c-5.94,0-11.96-1.66-11.96-4.84c0-3.18,6.02-4.84,11.96-4.84c5.94,0,11.96,1.66,11.96,4.84
							C48.93,21.02,42.91,22.68,36.97,22.68z M36.97,15c-6.44,0-9.96,1.88-9.96,2.84c0,0.96,3.52,2.84,9.96,2.84
							c6.44,0,9.96-1.88,9.96-2.84C46.93,16.88,43.41,15,36.97,15z"/>
						<path class="st0" d="M36.97,27.48c-5.94,0-11.96-1.66-11.96-4.84v-4.8c0-0.55,0.45-1,1-1c0.55,0,1,0.45,1,1v4.8
							c0,0.96,3.52,2.84,9.96,2.84c6.44,0,9.96-1.88,9.96-2.84v-4.8c0-0.55,0.45-1,1-1c0.55,0,1,0.45,1,1v4.8
							C48.93,25.82,42.91,27.48,36.97,27.48z"/>
					</g>
				</g>
			</g>
		</g>
	</g>
	<g>
		<g>
			<path class="st0" d="M41.17,56.31c-0.45,0-0.86-0.3-0.97-0.76c-0.67-2.7-0.85-5.11-0.54-7.15c0.08-0.54,0.59-0.92,1.14-0.83
				c0.55,0.09,0.92,0.6,0.83,1.14c-0.28,1.78-0.11,3.92,0.5,6.36c0.13,0.54-0.19,1.08-0.73,1.21C41.33,56.3,41.25,56.31,41.17,56.31
				z"/>
			<path class="st0" d="M66.95,53.14c-0.21,0-0.41-0.06-0.59-0.2c-1.26-0.93-1.9-1.65-1.93-1.68c-0.37-0.41-0.33-1.04,0.08-1.41
				c0.41-0.37,1.04-0.33,1.41,0.08c0.02,0.02,0.56,0.62,1.62,1.4c0.44,0.33,0.54,0.95,0.21,1.4C67.56,53,67.26,53.14,66.95,53.14z"
				/>
			<path class="st0" d="M46.63,66.31c-0.99,0-1.95-0.47-2.55-1.34l-3.84-5.61c-0.44-0.64-0.69-1.53-0.68-2.39
				c0.02-1.05,0.42-1.9,1.13-2.39l0.33-0.23c1.43-0.98,3.65-0.13,4.6,1.26l3.88,5.62c0.47,0.68,0.64,1.5,0.49,2.32
				c-0.15,0.81-0.61,1.52-1.29,1.98l-0.33,0.23C47.84,66.13,47.23,66.31,46.63,66.31z M42.46,55.92c-0.12,0-0.23,0.02-0.31,0.08h0
				l-0.33,0.23c-0.15,0.11-0.26,0.41-0.26,0.78c-0.01,0.44,0.12,0.92,0.33,1.22l3.84,5.61c0.34,0.49,1.02,0.62,1.52,0.28l0.33-0.23
				c0.24-0.17,0.4-0.41,0.45-0.7c0.05-0.29-0.01-0.58-0.17-0.82l-3.88-5.62C43.65,56.29,42.94,55.92,42.46,55.92z M41.58,55.18
				L41.58,55.18L41.58,55.18z"/>
			<path class="st0" d="M62.48,63.56c-0.04,0-0.09,0-0.13,0l-0.48-0.02c-0.93-0.03-1.8-0.43-2.44-1.12
				c-0.64-0.69-0.97-1.58-0.94-2.51l0.27-8.26c0.07-1.89,1.69-4.08,3.68-3.96l0.48,0.02c2,0.07,3.43,2.2,3.36,4.05l-0.31,8.43
				c-0.03,0.93-0.43,1.8-1.12,2.44C64.21,63.23,63.37,63.56,62.48,63.56z M62.35,49.69c-0.7,0-1.55,1.09-1.58,2.03l-0.27,8.26
				c-0.01,0.4,0.13,0.78,0.4,1.08c0.28,0.3,0.65,0.47,1.04,0.48l0.48,0.02c0.41,0,0.78-0.13,1.08-0.4c0.3-0.28,0.47-0.65,0.48-1.04
				l0.31-8.43c0.03-0.92-0.72-1.95-1.43-1.98l-0.48-0.02C62.37,49.69,62.36,49.69,62.35,49.69z"/>
			<path class="st0" d="M56.65,64.56c-0.65,0-1.28-0.19-1.84-0.57c-0.73-0.49-1.22-1.24-1.38-2.09l-1.36-7.45
				c-0.16-0.82-0.03-1.75,0.36-2.55c0.46-0.95,1.2-1.57,2.09-1.74l0.43-0.08c1.84-0.34,3.65,1.4,3.98,3.15l1.37,7.37
				c0.34,1.77-0.83,3.49-2.6,3.83l-0.43,0.08C57.06,64.54,56.85,64.56,56.65,64.56z M55.32,52.03l-0.43,0.08
				c-0.56,0.11-1.02,1.15-0.86,1.96l1.36,7.45c0.06,0.32,0.25,0.61,0.54,0.81c0.28,0.19,0.62,0.27,0.96,0.2l0.43-0.08
				c0.69-0.13,1.15-0.8,1.01-1.5l-1.37-7.37C56.81,52.8,55.9,51.93,55.32,52.03z"/>
			<path class="st0" d="M51.7,66.13c-0.46,0-0.91-0.1-1.35-0.29c-0.8-0.36-1.41-1.01-1.72-1.82l-2.77-7.32
				c-0.66-1.74,0.18-3.81,1.81-4.43l0.41-0.16c0.83-0.32,1.82-0.17,2.72,0.39c0.77,0.49,1.39,1.22,1.69,2.01l2.69,7.02
				c0.64,1.69-0.21,3.59-1.9,4.23l-0.41,0.16C52.49,66.06,52.09,66.13,51.7,66.13z M49,53.94c-0.08,0-0.15,0.01-0.21,0.04h0
				l-0.41,0.16c-0.6,0.23-0.92,1.14-0.65,1.85l2.77,7.32c0.25,0.66,0.99,0.99,1.65,0.74l0.41-0.16c0.66-0.25,0.99-0.99,0.74-1.65
				l-2.69-7.02c-0.15-0.38-0.49-0.78-0.89-1.03C49.47,54.02,49.21,53.94,49,53.94z M48.43,53.04L48.43,53.04L48.43,53.04z"/>
			<path class="st0" d="M69.9,56.54c-0.39,0-0.77-0.09-1.11-0.28c-0.84-0.45-1.68-1.42-1.78-1.53c-1.79-2.36-0.32-5.1,0.7-6.23
				c0.37-0.41,1-0.44,1.41-0.07c0.41,0.37,0.44,1,0.07,1.41c-0.08,0.09-1.81,2.08-0.63,3.64c0.22,0.25,0.78,0.81,1.16,1.01
				c0.23,0.12,0.75-0.05,1.28-0.59c0.9-0.93,1.48-2.62,0.62-4.14l-0.12-0.22c-0.22-0.4-0.29-0.53-1.75-2.17
				c-0.64-0.71-1.48-1.66-2.61-2.96c-0.42-0.48-0.85-0.92-1.3-1.31c-0.42-0.36-0.46-1-0.09-1.41c0.36-0.41,1-0.46,1.41-0.09
				c0.51,0.45,1.01,0.95,1.48,1.49c1.13,1.29,1.96,2.24,2.6,2.95c1.55,1.73,1.7,1.96,2.02,2.54l0.11,0.19
				c1.37,2.42,0.47,5.07-0.93,6.52C71.65,56.12,70.74,56.54,69.9,56.54z"/>
		</g>
		<g>
			<path class="st0" d="M32.88,56.31c-0.08,0-0.16-0.01-0.24-0.03c-0.54-0.13-0.86-0.68-0.73-1.21c0.59-2.35,0.76-4.42,0.53-6.15
				c-0.07-0.55,0.31-1.05,0.86-1.12c0.56-0.08,1.05,0.31,1.12,0.86c0.27,1.98,0.08,4.31-0.57,6.9
				C33.73,56.01,33.33,56.31,32.88,56.31z"/>
			<path class="st0" d="M7.1,53.14c-0.31,0-0.61-0.14-0.81-0.41c-0.33-0.44-0.23-1.07,0.21-1.4c1.07-0.79,1.62-1.39,1.62-1.4
				c0.37-0.41,1-0.45,1.41-0.08c0.41,0.37,0.45,1,0.08,1.41c-0.03,0.03-0.67,0.75-1.93,1.68C7.51,53.08,7.31,53.14,7.1,53.14z"/>
			<path class="st0" d="M27.41,66.31c-0.62,0-1.22-0.19-1.74-0.54l-0.33-0.23c-0.68-0.47-1.13-1.17-1.29-1.98
				c-0.15-0.81,0.02-1.64,0.49-2.31l3.88-5.63c0.44-0.64,1.18-1.19,1.98-1.48c0.96-0.34,1.92-0.26,2.62,0.21l0.33,0.23
				c1.43,0.99,1.42,3.38,0.46,4.78l-3.84,5.61c-0.47,0.68-1.17,1.14-1.99,1.29C27.8,66.29,27.6,66.31,27.41,66.31z M31.59,55.93
				c-0.15,0-0.32,0.03-0.5,0.1c-0.41,0.14-0.8,0.43-1.01,0.73l-3.88,5.63c-0.34,0.49-0.21,1.17,0.28,1.51l0.33,0.23
				c0.24,0.16,0.53,0.23,0.82,0.17c0.29-0.05,0.54-0.21,0.7-0.45l3.84-5.61c0.44-0.64,0.41-1.76,0.06-2L31.9,56
				C31.82,55.95,31.71,55.93,31.59,55.93z"/>
			<path class="st0" d="M11.57,63.56c-0.89,0-1.73-0.33-2.38-0.94c-0.69-0.64-1.08-1.5-1.12-2.44l-0.31-8.43
				c-0.03-0.91,0.28-1.87,0.86-2.64c0.65-0.86,1.56-1.37,2.5-1.41l0.48-0.02c1.98-0.12,3.61,2.07,3.68,3.96l0.27,8.27
				c0.03,0.93-0.3,1.82-0.94,2.51c-0.64,0.69-1.5,1.08-2.44,1.12l-0.48,0.02C11.65,63.56,11.61,63.56,11.57,63.56z M11.7,49.69
				c-0.01,0-0.02,0-0.02,0l-0.48,0.02c-0.33,0.01-0.69,0.24-0.97,0.61c-0.3,0.4-0.48,0.92-0.46,1.37l0.31,8.43
				c0.01,0.4,0.19,0.77,0.48,1.04c0.3,0.28,0.67,0.4,1.08,0.4l0.48-0.02c0.4-0.01,0.77-0.19,1.04-0.48c0.28-0.3,0.42-0.68,0.4-1.08
				l-0.27-8.27C13.25,50.78,12.39,49.69,11.7,49.69z M11.16,48.71L11.16,48.71L11.16,48.71z"/>
			<path class="st0" d="M17.4,64.56c-0.2,0-0.41-0.02-0.62-0.06l-0.43-0.08c-1.78-0.34-2.94-2.06-2.6-3.84l1.37-7.36
				c0.34-1.75,2.15-3.5,3.98-3.15l0,0l0.43,0.08c0.89,0.17,1.63,0.79,2.09,1.74c0.39,0.8,0.52,1.73,0.36,2.56l-1.36,7.44
				C20.32,63.47,18.94,64.56,17.4,64.56z M18.63,52.03c-0.57,0-1.4,0.82-1.54,1.57l-1.37,7.36c-0.13,0.7,0.32,1.37,1.01,1.5
				l0.43,0.08c0.7,0.13,1.37-0.32,1.5-1.01l1.36-7.44c0.08-0.41,0-0.91-0.19-1.33c-0.08-0.17-0.31-0.58-0.66-0.64l-0.43-0.08
				C18.69,52.03,18.66,52.03,18.63,52.03z"/>
			<path class="st0" d="M22.35,66.13c-0.39,0-0.78-0.07-1.16-0.21l-0.41-0.16c-1.69-0.64-2.54-2.54-1.9-4.23l2.69-7.03
				c0.3-0.79,0.91-1.52,1.68-2c0.9-0.57,1.89-0.71,2.72-0.39l0.41,0.16c1.62,0.62,2.47,2.69,1.81,4.43l-2.77,7.32
				c-0.31,0.82-0.92,1.46-1.72,1.82C23.26,66.03,22.8,66.13,22.35,66.13z M25.05,53.94c-0.21,0-0.47,0.09-0.73,0.25
				c-0.4,0.25-0.74,0.65-0.88,1.03l-2.69,7.03c-0.25,0.66,0.08,1.4,0.74,1.65l0.41,0.16c0.66,0.25,1.4-0.08,1.65-0.74l2.77-7.32
				c0.27-0.71-0.05-1.63-0.65-1.86l-0.41-0.16C25.2,53.95,25.13,53.94,25.05,53.94z"/>
			<path class="st0" d="M4.15,56.54c-0.85,0-1.75-0.43-2.54-1.23c-1.41-1.45-2.3-4.1-0.93-6.52l0.11-0.19
				c0.32-0.58,0.47-0.81,2.02-2.54c0.63-0.71,1.47-1.65,2.6-2.95c0.47-0.54,0.97-1.04,1.48-1.49c0.42-0.37,1.05-0.32,1.41,0.09
				c0.37,0.42,0.32,1.05-0.09,1.41c-0.45,0.39-0.88,0.83-1.29,1.31c-1.14,1.3-1.98,2.26-2.61,2.97c-1.46,1.63-1.54,1.77-1.75,2.17
				l-0.12,0.22c-0.86,1.52-0.28,3.21,0.62,4.14c0.53,0.54,1.05,0.71,1.28,0.59c0.4-0.21,0.98-0.81,1.2-1.06
				c1.15-1.52-0.59-3.51-0.67-3.59c-0.37-0.41-0.33-1.04,0.08-1.41c0.41-0.37,1.04-0.34,1.41,0.07c1.02,1.13,2.49,3.87,0.74,6.18
				c-0.13,0.16-0.97,1.12-1.81,1.57C4.92,56.45,4.54,56.54,4.15,56.54z"/>
		</g>
	</g>
	<path class="st0" d="M37.01,8c-0.55,0-1-0.45-1-1V1c0-0.55,0.45-1,1-1c0.55,0,1,0.45,1,1v6C38.01,7.55,37.57,8,37.01,8z"/>
	<path class="st0" d="M55.77,15.24c-0.26,0-0.51-0.1-0.71-0.29c-0.39-0.39-0.39-1.02,0-1.41l4.24-4.24c0.39-0.39,1.02-0.39,1.41,0
		c0.39,0.39,0.39,1.02,0,1.41l-4.24,4.24C56.28,15.14,56.03,15.24,55.77,15.24z"/>
	<path class="st0" d="M18.49,15.48c-0.26,0-0.51-0.1-0.71-0.29l-4.24-4.24c-0.39-0.39-0.39-1.02,0-1.41c0.39-0.39,1.02-0.39,1.41,0
		l4.24,4.24c0.39,0.39,0.39,1.02,0,1.41C19.01,15.38,18.75,15.48,18.49,15.48z"/>
</g>
</svg>
