<?xml version="1.0" encoding="utf-8"?>
<!-- Generator: Adobe Illustrator 25.3.1, SVG Export Plug-In . SVG Version: 6.00 Build 0)  -->
<svg version="1.1" id="Layer_1" xmlns="http://www.w3.org/2000/svg" xmlns:xlink="http://www.w3.org/1999/xlink" x="0px" y="0px"
	 viewBox="0 0 64.53 58" style="enable-background:new 0 0 64.53 58;" xml:space="preserve">
<style type="text/css">
	.st0{fill:#1D2C56;}
</style>
<g>
	<path class="st0" d="M45,58H1c-0.55,0-1-0.45-1-1V1c0-0.55,0.45-1,1-1h44c0.55,0,1,0.45,1,1v7c0,0.55-0.45,1-1,1
		c-0.55,0-1-0.45-1-1V2H2v54h42V23c0-0.55,0.45-1,1-1c0.55,0,1,0.45,1,1v34C46,57.55,45.55,58,45,58z"/>
	<path class="st0" d="M14,53H6c-0.55,0-1-0.45-1-1V38c0-1.65,1.35-3,3-3h4c1.65,0,3,1.35,3,3v14C15,52.55,14.55,53,14,53z M7,51h6
		V38c0-0.55-0.45-1-1-1H8c-0.55,0-1,0.45-1,1V51z"/>
	<path class="st0" d="M27,53h-8c-0.55,0-1-0.45-1-1v-8c0-1.65,1.35-3,3-3h4c1.65,0,3,1.35,3,3v8C28,52.55,27.55,53,27,53z M20,51h6
		v-7c0-0.55-0.45-1-1-1h-4c-0.55,0-1,0.45-1,1V51z"/>
	<path class="st0" d="M40,53h-8c-0.55,0-1-0.45-1-1V31c0-1.65,1.35-3,3-3h4c1.65,0,3,1.35,3,3v21C41,52.55,40.55,53,40,53z M33,51h6
		V31c0-0.55-0.45-1-1-1h-4c-0.55,0-1,0.45-1,1V51z"/>
	<g>
		<path class="st0" d="M21.92,32.58c-0.01,0-0.03,0-0.04,0c-0.31-0.01-0.6-0.17-0.78-0.43l-3.99-5.7l-2.43,2.27
			c-0.21,0.2-0.51,0.3-0.8,0.26c-0.29-0.03-0.55-0.19-0.72-0.44l-3.4-5.09l-4.15,3.32c-0.43,0.34-1.06,0.28-1.41-0.16
			c-0.35-0.43-0.28-1.06,0.16-1.41l5-4c0.22-0.18,0.51-0.25,0.78-0.21c0.28,0.04,0.52,0.2,0.68,0.43l3.35,5.02l2.41-2.25
			c0.21-0.2,0.5-0.29,0.79-0.26c0.29,0.03,0.55,0.18,0.72,0.42l3.89,5.57l11.25-13.57c0.18-0.22,0.44-0.35,0.72-0.36
			c0.28-0.01,0.55,0.09,0.75,0.29l4.25,4.26l8.3-9.22c0.19-0.21,0.46-0.35,0.76-0.33c0.29,0,0.56,0.13,0.75,0.35l5.26,6.14
			l8.24-9.15c0.37-0.41,1-0.45,1.41-0.07c0.41,0.37,0.44,1,0.07,1.41l-9,10c-0.19,0.21-0.43,0.32-0.76,0.33
			c-0.29,0-0.56-0.13-0.75-0.35l-5.26-6.14l-8.24,9.15c-0.18,0.2-0.44,0.32-0.72,0.33c-0.29,0.02-0.54-0.1-0.73-0.29l-4.22-4.22
			L22.69,32.22C22.5,32.45,22.21,32.58,21.92,32.58z"/>
		<path class="st0" d="M63.53,13.35c-0.55,0-1-0.45-1-1v-3h-3c-0.55,0-1-0.45-1-1c0-0.55,0.45-1,1-1h4c0.55,0,1,0.45,1,1v4
			C64.53,12.91,64.08,13.35,63.53,13.35z"/>
	</g>
	<path class="st0" d="M30,7H16c-0.55,0-1-0.45-1-1s0.45-1,1-1h14c0.55,0,1,0.45,1,1S30.55,7,30,7z"/>
	<path class="st0" d="M36,12H10c-0.55,0-1-0.45-1-1s0.45-1,1-1h26c0.55,0,1,0.45,1,1S36.55,12,36,12z"/>
</g>
</svg>
