<?xml version="1.0" encoding="utf-8"?>
<!-- Generator: Adobe Illustrator 25.3.1, SVG Export Plug-In . SVG Version: 6.00 Build 0)  -->
<svg version="1.1" id="Layer_1" xmlns="http://www.w3.org/2000/svg" xmlns:xlink="http://www.w3.org/1999/xlink" x="0px" y="0px"
	 viewBox="0 0 70.13 73.46" style="enable-background:new 0 0 70.13 73.46;" xml:space="preserve">
<style type="text/css">
	.st0{fill:#1D2C56;}
	.st1{fill:#1D2C56;stroke:#DE3726;stroke-width:2;stroke-linecap:round;stroke-linejoin:round;stroke-miterlimit:10;}
</style>
<g>
	<path class="st0" d="M33,10c-0.55,0-1-0.45-1-1V1c0-0.55,0.45-1,1-1c0.55,0,1,0.45,1,1v8C34,9.55,33.55,10,33,10z"/>
	<path class="st0" d="M19,70c-0.55,0-1-0.45-1-1V15c0-0.55,0.45-1,1-1h28c0.55,0,1,0.45,1,1v35c0,0.55-0.45,1-1,1
		c-0.55,0-1-0.45-1-1V16H20v53C20,69.55,19.55,70,19,70z"/>
	<path class="st0" d="M43,16H23c-0.55,0-1-0.45-1-1V9c0-0.55,0.45-1,1-1h20c0.55,0,1,0.45,1,1v6C44,15.55,43.55,16,43,16z M24,14h18
		v-4H24V14z"/>
	<path class="st0" d="M60,52c-0.55,0-1-0.45-1-1V28H47c-0.55,0-1-0.45-1-1c0-0.55,0.45-1,1-1h13c0.55,0,1,0.45,1,1v24
		C61,51.55,60.55,52,60,52z"/>
	<path class="st0" d="M55,38h-3c-0.55,0-1-0.45-1-1c0-0.55,0.45-1,1-1h3c0.55,0,1,0.45,1,1C56,37.55,55.55,38,55,38z"/>
	<path class="st0" d="M55,46h-3c-0.55,0-1-0.45-1-1c0-0.55,0.45-1,1-1h3c0.55,0,1,0.45,1,1C56,45.55,55.55,46,55,46z"/>
	<path class="st0" d="M6,66c-0.55,0-1-0.45-1-1V27c0-0.55,0.45-1,1-1h13c0.55,0,1,0.45,1,1c0,0.55-0.45,1-1,1H7v37
		C7,65.55,6.55,66,6,66z"/>
	<path class="st0" d="M14,38h-3c-0.55,0-1-0.45-1-1c0-0.55,0.45-1,1-1h3c0.55,0,1,0.45,1,1C15,37.55,14.55,38,14,38z"/>
	<path class="st0" d="M14,46h-3c-0.55,0-1-0.45-1-1c0-0.55,0.45-1,1-1h3c0.55,0,1,0.45,1,1C15,45.55,14.55,46,14,46z"/>
	<path class="st0" d="M14,55h-3c-0.55,0-1-0.45-1-1c0-0.55,0.45-1,1-1h3c0.55,0,1,0.45,1,1C15,54.55,14.55,55,14,55z"/>
	<path class="st0" d="M29,70H1c-0.55,0-1-0.45-1-1c0-0.55,0.45-1,1-1h28c0.55,0,1,0.45,1,1C30,69.55,29.55,70,29,70z"/>
	<path class="st0" d="M33,53c-0.55,0-1-0.45-1-1V20c0-0.55,0.45-1,1-1c0.55,0,1,0.45,1,1v32C34,52.55,33.55,53,33,53z"/>
	<path class="st0" d="M40,52c-0.55,0-1-0.45-1-1V20c0-0.55,0.45-1,1-1c0.55,0,1,0.45,1,1v31C41,51.55,40.55,52,40,52z"/>
	<path class="st0" d="M26,57c-0.55,0-1-0.45-1-1V20c0-0.55,0.45-1,1-1c0.55,0,1,0.45,1,1v36C27,56.55,26.55,57,26,57z"/>
	<g>
		<path class="st0" d="M47.05,73.44c-0.55,0-1-0.45-1-1c0-0.55,0.45-1,1-1c0.08,0.01,4.08,0,4.19,0c4.97-0.02,8.96-0.58,11.86-1.68
			c0.52-0.19,1.09,0.07,1.29,0.58c0.19,0.52-0.07,1.09-0.59,1.29c-3.13,1.17-7.35,1.78-12.55,1.8
			C51.19,73.44,47.12,73.44,47.05,73.44z"/>
		<path class="st0" d="M66.03,69.28c-0.39,0-0.76-0.23-0.92-0.61c-0.22-0.51,0.02-1.1,0.53-1.31c1.13-0.49,2.48-1.28,2.48-2.3
			c0-0.87,0-1.76,0.01-2.55c0.01-1.08,0.01-2.1-0.01-2.41c-0.04-0.55,0.37-1.03,0.92-1.08c0.56-0.05,1.03,0.37,1.08,0.92
			c0.03,0.37,0.03,1.18,0.02,2.58c0,0.78-0.01,1.67-0.01,2.53c0.01,1.7-1.24,3.09-3.69,4.14C66.29,69.25,66.16,69.28,66.03,69.28z"
			/>
		<g>
			<path class="st0" d="M66.05,64.86c-0.07,0-0.15-0.01-0.22-0.02l-14.19-3.21c-0.42-0.09-0.73-0.44-0.77-0.87
				c-0.05-0.42,0.18-0.83,0.57-1.01l11.02-5.21c0.21-0.1,0.45-0.12,0.68-0.06c4.38,1.15,6.98,3.31,6.98,5.78
				c0,1.72-1.29,3.32-3.61,4.5C66.36,64.83,66.2,64.86,66.05,64.86z M54.91,60.31l11,2.49c1.41-0.78,2.21-1.7,2.21-2.56
				c0-1.39-2.05-2.87-5.14-3.75L54.91,60.31z"/>
		</g>
		<path class="st0" d="M47,73.46c-0.04,0-0.07,0-0.11-0.01c-8.57-0.91-15.04-4.5-15.04-8.35l-0.02-5.06c0-0.1,0.01-0.2,0.04-0.29
			c0.46-4.67,10.04-7.18,19.07-7.18c2.14,0,4.36,0.19,6.62,0.57c0.54,0.09,0.91,0.61,0.82,1.15c-0.09,0.54-0.6,0.91-1.15,0.82
			c-2.15-0.36-4.26-0.54-6.29-0.54c-9.78,0-17.08,2.92-17.08,5.53c0,2.34,5.44,5.53,13.25,6.36c0.51,0.05,0.89,0.48,0.89,0.99v5
			c0,0.28-0.12,0.55-0.33,0.74C47.48,73.37,47.25,73.46,47,73.46z M33.85,63.78l0.01,1.32c0,2.24,4.93,5.23,12.14,6.23v-2.98
			C40.68,67.66,36.27,65.93,33.85,63.78z"/>
		<path class="st1" d="M51.86,60.69"/>
		<path class="st1" d="M51.86,64.9"/>
		<path class="st1" d="M51.86,60.65"/>
		<path class="st0" d="M66.03,69.24c-0.08,0-0.15-0.01-0.23-0.03l-14.17-3.34c-0.45-0.11-0.77-0.51-0.77-0.97v-4.25
			c0-0.55,0.45-1,1-1c0.55,0,1,0.45,1,1v3.46l12.17,2.87V63.9c0-0.55,0.45-1,1-1c0.55,0,1,0.45,1,1v4.34c0,0.31-0.14,0.59-0.38,0.78
			C66.47,69.17,66.25,69.24,66.03,69.24z"/>
	</g>
</g>
</svg>
