<?xml version="1.0" encoding="utf-8"?>
<!-- Generator: Adobe Illustrator 25.3.1, SVG Export Plug-In . SVG Version: 6.00 Build 0)  -->
<svg version="1.1" id="Layer_1" xmlns="http://www.w3.org/2000/svg" xmlns:xlink="http://www.w3.org/1999/xlink" x="0px" y="0px"
	 viewBox="0 0 74.13 74.03" style="enable-background:new 0 0 74.13 74.03;" xml:space="preserve">
<style type="text/css">
	.st0{fill:#1D2C56;}
</style>
<g>
	<path class="st0" d="M15.61,70.38c-0.22,0-0.43-0.07-0.62-0.21c-0.43-0.34-0.51-0.97-0.17-1.4l2.45-3.12
		c0.22-0.29,0.58-0.43,0.94-0.37c1.3,0.21,2.59-0.18,3.55-1.07l0.87-0.78c0.41-0.37,1.04-0.34,1.41,0.07
		c0.37,0.41,0.34,1.04-0.07,1.41l-0.86,0.78c-1.25,1.16-2.91,1.74-4.61,1.63L16.4,70C16.2,70.25,15.91,70.38,15.61,70.38z"/>
	<path class="st0" d="M58.6,70.38c-0.3,0-0.59-0.13-0.79-0.38l-2.1-2.68c-1.69,0.12-3.36-0.47-4.62-1.64l-0.85-0.77
		c-0.41-0.37-0.44-1-0.07-1.41c0.37-0.41,1-0.44,1.41-0.07l0.86,0.78c0.97,0.89,2.26,1.28,3.56,1.08c0.36-0.06,0.72,0.08,0.94,0.37
		l2.45,3.12c0.34,0.43,0.27,1.06-0.17,1.4C59.04,70.31,58.82,70.38,58.6,70.38z"/>
	<path class="st0" d="M4.4,62.81c-0.17,0-0.35-0.04-0.5-0.14c-0.48-0.28-0.64-0.89-0.36-1.37l0.55-0.93l-0.62-5.4
		c-0.32-2.74,0.32-5.19,1.88-7.3L9.2,41.5c0.29-0.47,0.91-0.61,1.38-0.32c0.47,0.29,0.61,0.91,0.32,1.38l-3.9,6.24
		c-1.29,1.75-1.8,3.74-1.54,5.95l0.66,5.73c0.02,0.21-0.02,0.43-0.13,0.62l-0.71,1.22C5.08,62.64,4.74,62.81,4.4,62.81z"/>
	<path class="st0" d="M69.82,62.81c-0.34,0-0.68-0.18-0.86-0.5l-0.71-1.22c-0.11-0.19-0.15-0.4-0.13-0.62l0.66-5.73
		c0.26-2.22-0.25-4.2-1.5-5.89l-3.95-6.3c-0.29-0.47-0.15-1.09,0.32-1.38c0.47-0.29,1.08-0.15,1.38,0.32l3.9,6.24
		c1.52,2.05,2.15,4.5,1.83,7.24l-0.62,5.4l0.55,0.93c0.28,0.48,0.12,1.09-0.36,1.37C70.16,62.77,69.99,62.81,69.82,62.81z"/>
	<g>
		<path class="st0" d="M47.32,16.33c-0.02,0-0.04,0-0.06,0c-0.55-0.03-0.97-0.51-0.94-1.06c0.35-5.94-2.31-6.32-2.42-6.34
			C43.42,8.87,43.03,8.48,42.99,8l-0.14-2.22c-0.03-0.55,0.38-1.03,0.94-1.06c0.56-0.04,1.03,0.38,1.06,0.94l0.09,1.51
			c1.35,0.53,3.72,2.31,3.37,8.23C48.28,15.92,47.84,16.33,47.32,16.33z"/>
	</g>
	<path class="st0" d="M36.9,39.42c-0.14,0-0.28-0.03-0.41-0.09c-0.01,0-0.01-0.01-0.02-0.01l-23.05-9.88
		c-0.51-0.22-0.74-0.81-0.52-1.31c2.56-5.98,7.23-10.75,13.14-13.45c0.5-0.23,1.1-0.01,1.32,0.49c0.23,0.5,0.01,1.1-0.49,1.32
		c-5.16,2.35-9.29,6.41-11.72,11.51l21.76,9.33l21.93-8.77c-2.47-5.54-6.88-9.89-12.49-12.29c-2.3-0.99-4.72-1.61-7.19-1.85
		c-0.55-0.05-0.95-0.54-0.9-1.09c0.05-0.55,0.54-0.95,1.09-0.9c2.68,0.26,5.3,0.93,7.79,2c6.41,2.75,11.36,7.83,13.95,14.31
		c0.2,0.51-0.04,1.09-0.56,1.3l-23.26,9.3C37.15,39.39,37.02,39.42,36.9,39.42z"/>
	<path class="st0" d="M35.77,30.31c-0.64,0-1.26-0.22-1.78-0.63l-6.24-5.05c-1.48-1.29-2.33-3.12-2.34-5.05
		c-0.02-2.51,0.43-6.29,0.87-9.95l0.26-2.23c0.15-1.34-0.03-1.59-0.21-1.84c-0.1-0.14-0.19-0.27-0.27-0.42
		c-0.25-0.49-0.06-1.09,0.43-1.35c0.49-0.26,1.09-0.06,1.35,0.43c0.03,0.06,0.07,0.11,0.11,0.16c0.44,0.59,0.81,1.29,0.58,3.25
		l-0.26,2.24c-0.41,3.43-0.87,7.31-0.85,9.69c0.01,1.36,0.61,2.65,1.63,3.54l6.22,5.03c0.32,0.26,0.66,0.19,0.79,0.14
		c0.13-0.04,0.44-0.19,0.54-0.59l0.07-0.3c0.05-0.19,0.08-0.4,0.09-0.63c0.04-0.73-0.14-1.44-0.53-2.04l-3.88-4.46
		c-0.25-0.29-0.31-0.69-0.17-1.04l1.01-2.47c0.12-0.3,0.38-0.52,0.7-0.6c2.94-0.68,4.54-2.31,5.03-5.14
		c0.09-0.54,0.61-0.91,1.15-0.82c0.54,0.09,0.91,0.61,0.82,1.15c-0.59,3.45-2.62,5.67-6.04,6.62l-0.59,1.43l3.52,4.05
		c0.03,0.03,0.05,0.07,0.08,0.1c0.64,0.97,0.96,2.15,0.9,3.31c-0.02,0.35-0.07,0.69-0.14,1l-0.07,0.3c-0.23,0.95-0.92,1.7-1.85,2.01
		C36.38,30.26,36.07,30.31,35.77,30.31z"/>
	<path class="st0" d="M25.96,5.71c-0.27,0-0.52-0.11-0.71-0.29s-0.29-0.44-0.29-0.71l0-3.71c0-0.55,0.45-1,1-1l0,0
		c0.55,0,1,0.45,1,1l0,2.71l17.25,0l0-2.7c0-0.55,0.45-1,1-1h0c0.55,0,1,0.45,1,1l0,3.7c0,0.55-0.45,1-1,1L25.96,5.71z"/>
	<path class="st0" d="M35.26,67.94c-3.54,0-6.99-0.71-10.26-2.12c-3.47-1.49-6.5-3.64-9.02-6.42c-0.37-0.41-0.34-1.04,0.07-1.41
		c0.41-0.37,1.04-0.34,1.41,0.07c2.32,2.56,5.13,4.55,8.33,5.92c2.73,1.17,5.59,1.82,8.52,1.93V42.53l-21.54-9.23
		c-1.59,4.18-1.99,8.67-1.15,13.07c0.1,0.54-0.25,1.07-0.79,1.17c-0.54,0.1-1.07-0.25-1.17-0.79c-0.98-5.11-0.41-10.35,1.65-15.16
		c0.22-0.51,0.81-0.74,1.31-0.52l23.08,9.9c0.37,0.16,0.61,0.52,0.61,0.92v25.07C36.31,67.5,35.84,67.94,35.26,67.94z"/>
	<path class="st0" d="M16.01,61.4c-0.16,0-0.32-0.04-0.47-0.12c-0.49-0.26-0.67-0.86-0.42-1.35c2.25-4.24-0.43-9.53-0.46-9.58
		c-0.16-0.31-0.15-0.68,0.03-0.98l2.81-4.63c0.43-0.71,0.49-1.9,0.17-3.12c-0.09-0.33-0.33-0.56-0.66-0.63
		c-0.15-0.03-0.52-0.06-0.81,0.3l-5.01,6.71c-0.33,0.44-0.96,0.53-1.4,0.2c-0.44-0.33-0.53-0.96-0.2-1.4l5.02-6.73
		c0.68-0.87,1.75-1.25,2.8-1.04c1.07,0.22,1.91,1.01,2.19,2.07c0.48,1.78,0.33,3.48-0.39,4.67l-2.53,4.17
		c0.71,1.6,2.52,6.56,0.21,10.92C16.71,61.2,16.37,61.4,16.01,61.4z"/>
	<path class="st0" d="M15.53,73.8c-0.2,0-0.4-0.06-0.58-0.19c-0.45-0.32-0.55-0.94-0.23-1.4l0.89-1.25L2.79,62.5l-0.97,1.37
		c-0.32,0.45-0.94,0.56-1.39,0.24c-0.45-0.32-0.56-0.94-0.24-1.39l1.53-2.16C2.03,60.11,2.63,60,3.08,60.3l14.49,9.57
		c0.23,0.15,0.38,0.38,0.43,0.65c0.05,0.27-0.01,0.54-0.17,0.76l-1.49,2.1C16.15,73.65,15.84,73.8,15.53,73.8z"/>
	<path class="st0" d="M38.96,67.94c-0.56,0-1.05-0.43-1.05-1V41.87c0-0.4,0.24-0.76,0.61-0.92l23.08-9.9
		c0.51-0.22,1.1,0.02,1.31,0.52c2.06,4.8,2.63,10.04,1.65,15.16c-0.1,0.54-0.62,0.9-1.17,0.79c-0.54-0.1-0.9-0.63-0.79-1.17
		c0.84-4.39,0.44-8.89-1.15-13.07l-21.54,9.23v23.39c2.93-0.12,5.79-0.76,8.52-1.93c3.2-1.37,6-3.36,8.33-5.92
		c0.37-0.41,1-0.44,1.41-0.07c0.41,0.37,0.44,1,0.07,1.41c-2.52,2.77-5.55,4.93-9.02,6.42C45.95,67.22,42.49,67.94,38.96,67.94z"/>
	<path class="st0" d="M58.21,61.4c-0.36,0-0.71-0.19-0.88-0.53c-2.31-4.36-0.5-9.32,0.21-10.92L55,45.78
		c-0.72-1.19-0.87-2.9-0.39-4.67c0.28-1.06,1.12-1.85,2.19-2.07c1.05-0.21,2.11,0.17,2.78,1.02l4.78,5.86
		c0.35,0.43,0.28,1.06-0.14,1.41c-0.43,0.35-1.06,0.29-1.41-0.14l-4.79-5.88c-0.29-0.37-0.67-0.34-0.82-0.31
		c-0.33,0.07-0.57,0.3-0.66,0.63c-0.33,1.22-0.26,2.41,0.17,3.12l2.81,4.63c0.18,0.3,0.19,0.67,0.03,0.98
		c-0.03,0.05-2.71,5.34-0.46,9.58c0.26,0.49,0.07,1.09-0.42,1.35C58.52,61.36,58.36,61.4,58.21,61.4z"/>
	<path class="st0" d="M58.6,74.03c-0.34,0-0.67-0.17-0.86-0.48l-1.41-2.33c-0.28-0.46-0.14-1.06,0.31-1.35l14.49-9.57
		c0.23-0.15,0.51-0.2,0.77-0.14c0.27,0.06,0.5,0.23,0.64,0.46l1.45,2.4c0.29,0.47,0.13,1.09-0.34,1.37
		c-0.47,0.28-1.09,0.13-1.37-0.34l-0.91-1.51l-12.82,8.46l0.91,1.51c0.29,0.47,0.13,1.09-0.34,1.37
		C58.95,73.99,58.77,74.03,58.6,74.03z"/>
</g>
</svg>
