<?xml version="1.0" encoding="utf-8"?>
<!-- Generator: Adobe Illustrator 25.3.1, SVG Export Plug-In . SVG Version: 6.00 Build 0)  -->
<svg version="1.1" id="Layer_1" xmlns="http://www.w3.org/2000/svg" xmlns:xlink="http://www.w3.org/1999/xlink" x="0px" y="0px"
	 viewBox="0 0 74 46" style="enable-background:new 0 0 74 46;" xml:space="preserve">
<style type="text/css">
	.st0{fill:#1D2C56;}
</style>
<g>
	<path class="st0" d="M62,34c-0.55,0-1-0.45-1-1V6H12.94v27c0,0.55-0.45,1-1,1c-0.55,0-1-0.45-1-1V5c0-0.55,0.45-1,1-1H62
		c0.55,0,1,0.45,1,1v28C63,33.55,62.55,34,62,34z"/>
	<path class="st0" d="M67,39H6.94V3c0-1.65,1.35-3,3-3H64c1.65,0,3,1.35,3,3V39z M8.94,37H65V3c0-0.55-0.45-1-1-1H9.94
		c-0.55,0-1,0.45-1,1V37z"/>
	<path class="st0" d="M67.18,46H6.82C3.06,46,0,42.94,0,39.18V37h74v2.18C74,42.94,70.94,46,67.18,46z M2,39v0.18
		C2,41.84,4.16,44,6.82,44h60.35c2.66,0,4.82-2.16,4.82-4.82V39H2z"/>
	<g>
		<path class="st0" d="M37.27,35.05c-0.1,0-0.21-0.01-0.31-0.02c-2.34-0.29-4.62-3.73-6.95-7.53c-0.22-0.36-0.42-0.69-0.6-0.98l0,0
			c-0.33-0.53-0.24-1.22,0.23-1.69c0.47-0.47,1.16-0.56,1.69-0.22c0.38,0.24,0.83,0.5,1.32,0.8c3.79,2.26,6.96,4.32,7.25,6.62
			c0.1,0.82-0.17,1.59-0.8,2.23C38.55,34.78,37.94,35.05,37.27,35.05z M32.43,27.61c1.38,2.21,3.46,5.27,4.77,5.43
			c0.11,0.01,0.25,0.01,0.45-0.18c0.26-0.26,0.27-0.43,0.25-0.58C37.73,30.93,34.63,28.94,32.43,27.61z"/>
		<path class="st0" d="M50.1,32.93c-0.55,0-1-0.45-1-1c0-6.81-5.54-12.34-12.35-12.34S24.4,25.12,24.4,31.93c0,0.55-0.45,1-1,1
			c-0.55,0-1-0.45-1-1c0-7.91,6.43-14.34,14.35-14.34S51.1,24.02,51.1,31.93C51.1,32.48,50.65,32.93,50.1,32.93z"/>
		<path class="st0" d="M27.93,32.93c-0.55,0-1-0.45-1-1c0-1.01,0.15-2,0.45-2.95c0.17-0.53,0.73-0.82,1.25-0.65
			c0.53,0.17,0.82,0.73,0.65,1.25c-0.24,0.76-0.36,1.55-0.36,2.35C28.93,32.48,28.48,32.93,27.93,32.93z"/>
		<path class="st0" d="M45.57,32.93c-0.55,0-1-0.45-1-1c0-4.31-3.51-7.82-7.82-7.82c-0.65,0-1.3,0.08-1.93,0.24
			c-0.53,0.13-1.08-0.19-1.21-0.72c-0.14-0.54,0.19-1.08,0.72-1.21c0.79-0.2,1.6-0.3,2.42-0.3c5.42,0,9.82,4.41,9.82,9.82
			C46.57,32.48,46.12,32.93,45.57,32.93z"/>
	</g>
	<path class="st0" d="M27,12h-9c-0.55,0-1-0.45-1-1c0-0.55,0.45-1,1-1h9c0.55,0,1,0.45,1,1C28,11.55,27.55,12,27,12z"/>
	<path class="st0" d="M31,16H18c-0.55,0-1-0.45-1-1c0-0.55,0.45-1,1-1h13c0.55,0,1,0.45,1,1C32,15.55,31.55,16,31,16z"/>
	<path class="st0" d="M24,20h-6c-0.55,0-1-0.45-1-1c0-0.55,0.45-1,1-1h6c0.55,0,1,0.45,1,1C25,19.55,24.55,20,24,20z"/>
	<g>
		<path class="st0" d="M57,12h-8c-0.55,0-1-0.45-1-1c0-0.55,0.45-1,1-1h8c0.55,0,1,0.45,1,1C58,11.55,57.55,12,57,12z"/>
		<path class="st0" d="M57,16h-8c-0.55,0-1-0.45-1-1c0-0.55,0.45-1,1-1h8c0.55,0,1,0.45,1,1C58,15.55,57.55,16,57,16z"/>
	</g>
	<g>
		<path class="st0" d="M57,20h-3c-0.55,0-1-0.45-1-1c0-0.55,0.45-1,1-1h3c0.55,0,1,0.45,1,1C58,19.55,57.55,20,57,20z"/>
	</g>
</g>
</svg>
