<?xml version="1.0" encoding="utf-8"?>
<!-- Generator: Adobe Illustrator 25.3.1, SVG Export Plug-In . SVG Version: 6.00 Build 0)  -->
<svg version="1.1" id="Layer_1" xmlns="http://www.w3.org/2000/svg" xmlns:xlink="http://www.w3.org/1999/xlink" x="0px" y="0px"
	 viewBox="0 0 74 60.51" style="enable-background:new 0 0 74 60.51;" xml:space="preserve">
<style type="text/css">
	.st0{fill:#1D2C56;}
</style>
<g>
	<path class="st0" d="M41.28,23.52c-0.2,0-0.41-0.06-0.59-0.19c-0.45-0.32-0.55-0.95-0.22-1.4l6.03-8.3
		c0.32-0.45,0.95-0.55,1.4-0.22c0.45,0.32,0.55,0.95,0.22,1.4l-6.03,8.3C41.89,23.37,41.59,23.52,41.28,23.52z"/>
	<path class="st0" d="M35.01,32.14c-0.2,0-0.41-0.06-0.59-0.19c-0.45-0.32-0.55-0.95-0.22-1.4l3.86-5.32
		c0.32-0.45,0.95-0.55,1.4-0.22c0.45,0.32,0.55,0.95,0.22,1.4l-3.86,5.32C35.62,32,35.32,32.14,35.01,32.14z"/>
	<path class="st0" d="M30.85,32.73c-0.16,0-0.33-0.04-0.48-0.12l-10.11-5.58c-0.48-0.27-0.66-0.88-0.39-1.36
		c0.27-0.48,0.87-0.66,1.36-0.39l10.11,5.58c0.48,0.27,0.66,0.88,0.39,1.36C31.55,32.54,31.21,32.73,30.85,32.73z"/>
	<path class="st0" d="M5.38,40.9c-0.24,0-0.47-0.08-0.66-0.25c-0.41-0.37-0.45-1-0.08-1.41l11.12-12.5c0.37-0.41,1-0.45,1.41-0.08
		c0.41,0.37,0.45,1,0.08,1.41L6.12,40.56C5.92,40.79,5.65,40.9,5.38,40.9z"/>
	<path class="st0" d="M3.5,45.4c-1.93,0-3.5-1.57-3.5-3.5c0-1.93,1.57-3.5,3.5-3.5c1.93,0,3.5,1.57,3.5,3.5
		C7,43.83,5.43,45.4,3.5,45.4z M3.5,40.4c-0.83,0-1.5,0.67-1.5,1.5c0,0.83,0.67,1.5,1.5,1.5c0.83,0,1.5-0.67,1.5-1.5
		C5,41.07,4.33,40.4,3.5,40.4z"/>
	<path class="st0" d="M49.44,15.65c-2.1,0-3.81-1.71-3.81-3.81c0-2.1,1.71-3.81,3.81-3.81c2.1,0,3.81,1.71,3.81,3.81
		C53.25,13.94,51.54,15.65,49.44,15.65z M49.44,10.02c-1,0-1.81,0.81-1.81,1.81s0.81,1.81,1.81,1.81s1.81-0.81,1.81-1.81
		S50.44,10.02,49.44,10.02z"/>
	<path class="st0" d="M18,28.9c-1.93,0-3.5-1.57-3.5-3.5s1.57-3.5,3.5-3.5c1.93,0,3.5,1.57,3.5,3.5S19.93,28.9,18,28.9z M18,23.9
		c-0.83,0-1.5,0.67-1.5,1.5c0,0.83,0.67,1.5,1.5,1.5c0.83,0,1.5-0.67,1.5-1.5C19.5,24.57,18.83,23.9,18,23.9z"/>
	<path class="st0" d="M33,36.52c-1.93,0-3.5-1.57-3.5-3.5c0-1.93,1.57-3.5,3.5-3.5c1.93,0,3.5,1.57,3.5,3.5
		C36.5,34.95,34.93,36.52,33,36.52z M33,31.52c-0.83,0-1.5,0.67-1.5,1.5c0,0.83,0.67,1.5,1.5,1.5c0.83,0,1.5-0.67,1.5-1.5
		C34.5,32.2,33.83,31.52,33,31.52z"/>
	<path class="st0" d="M23,60.51H13c-0.55,0-1-0.45-1-1v-16c0-1.65,1.35-3,3-3h6c1.65,0,3,1.35,3,3v16C24,60.07,23.55,60.51,23,60.51
		z M14,58.51h8v-15c0-0.55-0.45-1-1-1h-6c-0.55,0-1,0.45-1,1V58.51z"/>
	<path class="st0" d="M40,60.51H30c-0.55,0-1-0.45-1-1v-8c0-1.65,1.35-3,3-3h6c1.65,0,3,1.35,3,3v8C41,60.07,40.55,60.51,40,60.51z
		 M31,58.51h8v-7c0-0.55-0.45-1-1-1h-6c-0.55,0-1,0.45-1,1V58.51z"/>
	<path class="st0" d="M57,60.51H47c-0.55,0-1-0.45-1-1v-23c0-1.65,1.35-3,3-3h6c1.65,0,3,1.35,3,3v23C58,60.07,57.55,60.51,57,60.51
		z M48,58.51h8v-22c0-0.55-0.45-1-1-1h-6c-0.55,0-1,0.45-1,1V58.51z"/>
	<g>
		<path class="st0" d="M48.53,26c-3.24,0-6.32-1.19-8.73-3.38c-5.3-4.82-5.69-13.06-0.87-18.37c2.34-2.57,5.53-4.07,9-4.24
			c3.48-0.16,6.79,1.03,9.36,3.37c2.57,2.34,4.07,5.53,4.24,9c0.17,3.47-1.03,6.79-3.37,9.36c-2.34,2.57-5.53,4.07-9,4.24
			C48.95,26,48.74,26,48.53,26z M48.56,2c-0.18,0-0.35,0-0.53,0.01c-2.93,0.14-5.64,1.41-7.62,3.59
			c-4.08,4.49-3.75,11.46,0.74,15.54c2.17,1.98,4.98,2.98,7.92,2.85c2.93-0.14,5.64-1.41,7.62-3.59c1.98-2.17,2.99-4.99,2.85-7.92
			c-0.14-2.93-1.41-5.64-3.59-7.62l0,0C53.91,3.01,51.3,2,48.56,2z"/>
		<path class="st0" d="M62.54,26.66c-0.24,0-0.48-0.08-0.67-0.25l-5.12-4.58c-0.41-0.37-0.45-1-0.08-1.41
			c0.37-0.41,1-0.45,1.41-0.08l5.12,4.58c0.41,0.37,0.45,1,0.08,1.41C63.09,26.54,62.82,26.66,62.54,26.66z"/>
		<path class="st0" d="M70,36.51c-0.96,0-1.92-0.34-2.69-1.04l-7.4-6.73c-0.41-0.37-0.44-1-0.07-1.41l4.04-4.44
			c0.18-0.2,0.43-0.31,0.69-0.33c0.26-0.02,0.52,0.08,0.72,0.26l7.4,6.73c1.63,1.48,1.75,4.02,0.27,5.65h0
			C72.17,36.07,71.09,36.51,70,36.51z M72.22,34.53L72.22,34.53L72.22,34.53z M62,27.94l6.66,6.06c0.82,0.74,2.08,0.68,2.83-0.13
			c0.74-0.82,0.68-2.08-0.13-2.83l-6.66-6.05L62,27.94z"/>
	</g>
</g>
</svg>
