<?xml version="1.0" encoding="utf-8"?>
<!-- Generator: Adobe Illustrator 25.3.1, SVG Export Plug-In . SVG Version: 6.00 Build 0)  -->
<svg version="1.1" id="Layer_1" xmlns="http://www.w3.org/2000/svg" xmlns:xlink="http://www.w3.org/1999/xlink" x="0px" y="0px"
	 viewBox="0 0 67.55 60.72" style="enable-background:new 0 0 67.55 60.72;" xml:space="preserve">
<style type="text/css">
	.st0{fill:#1D2C56;}
</style>
<g>
	<g>
		<path class="st0" d="M23.33,54.2H1c-0.55,0-1-0.45-1-1v-4.23c0-0.55,0.45-1,1-1h25.33c0.55,0,1,0.45,1,1c0,0.55-0.45,1-1,1H2v2.23
			h21.33c0.55,0,1,0.45,1,1C24.33,53.75,23.89,54.2,23.33,54.2z"/>
		<path class="st0" d="M39.51,45.94c-0.55,0-1-0.45-1-1V23.67c0-0.55,0.45-1,1-1h7.86c0.55,0,1,0.45,1,1v15.42c0,0.55-0.45,1-1,1
			c-0.55,0-1-0.45-1-1V24.67h-5.86v20.28C40.51,45.5,40.06,45.94,39.51,45.94z"/>
		<path class="st0" d="M43.33,45.96h-6.24c-0.55,0-1-0.45-1-1c0-0.55,0.45-1,1-1h6.24c0.55,0,1,0.45,1,1
			C44.33,45.51,43.89,45.96,43.33,45.96z"/>
		<path class="st0" d="M49.8,24.61h-12.7c-0.55,0-1-0.45-1-1c0-0.55,0.45-1,1-1h12.7c0.55,0,1,0.45,1,1
			C50.8,24.16,50.35,24.61,49.8,24.61z"/>
		<path class="st0" d="M31.25,45.94h-7.86c-0.55,0-1-0.45-1-1V23.67c0-0.55,0.45-1,1-1h7.86c0.55,0,1,0.45,1,1v21.28
			C32.25,45.5,31.8,45.94,31.25,45.94z M24.38,43.94h5.86V24.67h-5.86V43.94z"/>
		<path class="st0" d="M33.67,45.96h-12.7c-0.55,0-1-0.45-1-1c0-0.55,0.45-1,1-1h12.7c0.55,0,1,0.45,1,1
			C34.67,45.51,34.22,45.96,33.67,45.96z"/>
		<path class="st0" d="M33.67,24.61h-12.7c-0.55,0-1-0.45-1-1c0-0.55,0.45-1,1-1h12.7c0.55,0,1,0.45,1,1
			C34.67,24.16,34.22,24.61,33.67,24.61z"/>
		<path class="st0" d="M17.54,45.96H4.84c-0.55,0-1-0.45-1-1c0-0.55,0.45-1,1-1h12.7c0.55,0,1,0.45,1,1
			C18.54,45.51,18.09,45.96,17.54,45.96z"/>
		<path class="st0" d="M15.12,45.94H7.25c-0.55,0-1-0.45-1-1V23.61c0-0.55,0.45-1,1-1h7.87c0.55,0,1,0.45,1,1v21.33
			C16.12,45.49,15.67,45.94,15.12,45.94z M8.25,43.94h5.87V24.61H8.25V43.94z"/>
		<path class="st0" d="M17.54,24.61H4.84c-0.55,0-1-0.45-1-1c0-0.55,0.45-1,1-1h12.7c0.55,0,1,0.45,1,1
			C18.54,24.16,18.09,24.61,17.54,24.61z"/>
		<path class="st0" d="M52.71,20.58H1.92c-0.55,0-1-0.45-1-1V16.1c0-0.35,0.19-0.68,0.49-0.86L26.8,0.14c0.31-0.19,0.71-0.19,1.02,0
			l25.39,15.1c0.3,0.18,0.49,0.51,0.49,0.86v3.48C53.71,20.13,53.26,20.58,52.71,20.58z M2.92,18.58h48.79v-1.91L27.32,2.16
			L2.92,16.67V18.58z"/>
		<path class="st0" d="M40.16,16.1H14.47c-0.55,0-1-0.45-1-1c0-0.55,0.45-1,1-1h25.69c0.55,0,1,0.45,1,1
			C41.16,15.65,40.71,16.1,40.16,16.1z"/>
	</g>
	<g>
		<g>
			<g>
				<g>
					<path class="st0" d="M57.02,60.57c-5.07,0-10.53-1.33-10.53-4.26c0-0.55,0.45-1,1-1c0.55,0,1,0.45,1,1
						c0,0.66,2.99,2.26,8.53,2.26c5.54,0,8.53-1.6,8.53-2.26c0-0.55,0.45-1,1-1c0.55,0,1,0.45,1,1
						C67.55,59.24,62.09,60.57,57.02,60.57z"/>
				</g>
				<g>
					<path class="st0" d="M57.02,56.6c-5.07,0-10.53-1.33-10.53-4.26c0-0.55,0.45-1,1-1c0.55,0,1,0.45,1,1
						c0,0.66,2.99,2.26,8.53,2.26c5.54,0,8.53-1.6,8.53-2.26c0-0.55,0.45-1,1-1c0.55,0,1,0.45,1,1
						C67.55,55.27,62.09,56.6,57.02,56.6z"/>
					<path class="st0" d="M57.02,60.67c-5.07,0-10.53-1.33-10.53-4.26v-4.07c0-0.55,0.45-1,1-1c0.55,0,1,0.45,1,1v4.07
						c0,0.66,2.99,2.26,8.53,2.26c5.54,0,8.53-1.6,8.53-2.26v-4.07c0-0.55,0.45-1,1-1c0.55,0,1,0.45,1,1v4.07
						C67.55,59.34,62.09,60.67,57.02,60.67z"/>
				</g>
			</g>
			<g>
				<g>
					<path class="st0" d="M57.02,52.57c-5.07,0-10.53-1.33-10.53-4.26c0-0.55,0.45-1,1-1c0.55,0,1,0.45,1,1
						c0,0.66,2.99,2.26,8.53,2.26c5.54,0,8.53-1.6,8.53-2.26c0-0.55,0.45-1,1-1c0.55,0,1,0.45,1,1
						C67.55,51.23,62.09,52.57,57.02,52.57z"/>
					<path class="st0" d="M57.02,56.64c-5.07,0-10.53-1.33-10.53-4.26v-4.07c0-0.55,0.45-1,1-1c0.55,0,1,0.45,1,1v4.07
						c0,0.66,2.99,2.26,8.53,2.26c5.54,0,8.53-1.6,8.53-2.26v-4.07c0-0.55,0.45-1,1-1c0.55,0,1,0.45,1,1v4.07
						C67.55,55.31,62.09,56.64,57.02,56.64z"/>
				</g>
				<g>
					<path class="st0" d="M57.02,48.59c-5.07,0-10.53-1.33-10.53-4.26c0-2.93,5.46-4.26,10.53-4.26c5.07,0,10.53,1.33,10.53,4.26
						C67.55,47.26,62.09,48.59,57.02,48.59z M57.02,42.07c-5.54,0-8.53,1.6-8.53,2.26c0,0.66,2.99,2.26,8.53,2.26
						c5.54,0,8.53-1.6,8.53-2.26C65.55,43.68,62.56,42.07,57.02,42.07z"/>
					<path class="st0" d="M57.02,52.67c-5.07,0-10.53-1.33-10.53-4.26v-4.08c0-0.55,0.45-1,1-1c0.55,0,1,0.45,1,1v4.08
						c0,0.66,2.99,2.26,8.53,2.26c5.54,0,8.53-1.6,8.53-2.26v-4.08c0-0.55,0.45-1,1-1c0.55,0,1,0.45,1,1v4.08
						C67.55,51.33,62.09,52.67,57.02,52.67z"/>
				</g>
			</g>
		</g>
		<g>
			<g>
				<g>
					<path class="st0" d="M37.96,60.62c-5.07,0-10.53-1.33-10.53-4.26c0-0.55,0.45-1,1-1c0.55,0,1,0.45,1,1
						c0,0.66,2.99,2.26,8.53,2.26c5.54,0,8.53-1.6,8.53-2.26c0-0.55,0.45-1,1-1c0.55,0,1,0.45,1,1
						C48.49,59.29,43.03,60.62,37.96,60.62z"/>
				</g>
				<g>
					<path class="st0" d="M37.96,56.65c-5.07,0-10.53-1.33-10.53-4.26c0-2.93,5.46-4.26,10.53-4.26c5.07,0,10.53,1.33,10.53,4.26
						C48.49,55.32,43.03,56.65,37.96,56.65z M37.96,50.13c-5.54,0-8.53,1.6-8.53,2.26c0,0.66,2.99,2.26,8.53,2.26
						c5.54,0,8.53-1.6,8.53-2.26C46.49,51.73,43.5,50.13,37.96,50.13z"/>
					<path class="st0" d="M37.96,60.72c-5.07,0-10.53-1.33-10.53-4.26v-4.08c0-0.55,0.45-1,1-1c0.55,0,1,0.45,1,1v4.08
						c0,0.66,2.99,2.26,8.53,2.26c5.54,0,8.53-1.6,8.53-2.26v-4.08c0-0.55,0.45-1,1-1c0.55,0,1,0.45,1,1v4.08
						C48.49,59.39,43.03,60.72,37.96,60.72z"/>
				</g>
			</g>
		</g>
	</g>
</g>
</svg>
