<?xml version="1.0" encoding="utf-8"?>
<!-- Generator: Adobe Illustrator 25.3.1, SVG Export Plug-In . SVG Version: 6.00 Build 0)  -->
<svg version="1.1" id="Layer_1" xmlns="http://www.w3.org/2000/svg" xmlns:xlink="http://www.w3.org/1999/xlink" x="0px" y="0px"
	 viewBox="0 0 84.72 57.24" style="enable-background:new 0 0 84.72 57.24;" xml:space="preserve">
<g>
	<g>
		<path d="M64.96,57.24H3.34C1.5,57.24,0,55.74,0,53.89V14.41c0-1.84,1.5-3.34,3.34-3.34h61.61c1.84,0,3.34,1.5,3.34,3.34v39.48
			C68.3,55.74,66.8,57.24,64.96,57.24z M3.34,12.97c-0.8,0-1.44,0.65-1.44,1.44v39.48c0,0.8,0.65,1.44,1.44,1.44h61.61
			c0.8,0,1.44-0.65,1.44-1.44V14.41c0-0.8-0.65-1.44-1.44-1.44H3.34z"/>
	</g>
	<g>
		<path d="M81.37,46.17H67.32c-0.52,0-0.95-0.43-0.95-0.95c0-0.52,0.43-0.95,0.95-0.95h14.06c0.8,0,1.44-0.65,1.44-1.44V3.34
			c0-0.8-0.65-1.44-1.44-1.44H19.76c-0.8,0-1.44,0.65-1.44,1.44v8.31c0,0.52-0.43,0.95-0.95,0.95s-0.95-0.43-0.95-0.95V3.34
			c0-1.84,1.5-3.34,3.34-3.34h61.61c1.84,0,3.34,1.5,3.34,3.34v39.48C84.72,44.67,83.22,46.17,81.37,46.17z"/>
	</g>
	<g>
		<path d="M20.89,41.75H9.52c-1.84,0-3.34-1.5-3.34-3.34v-8.37c0-1.84,1.5-3.34,3.34-3.34h11.37c1.84,0,3.34,1.5,3.34,3.34v8.37
			C24.23,40.25,22.73,41.75,20.89,41.75z M9.52,28.59c-0.8,0-1.44,0.65-1.44,1.44v8.37c0,0.8,0.65,1.44,1.44,1.44h11.37
			c0.8,0,1.44-0.65,1.44-1.44v-8.37c0-0.8-0.65-1.44-1.44-1.44H9.52z"/>
	</g>
	<g>
		<g>
			<path d="M16.37,49.56H7.49c-0.52,0-0.95-0.43-0.95-0.95c0-0.52,0.43-0.95,0.95-0.95h8.87c0.52,0,0.95,0.43,0.95,0.95
				C17.32,49.13,16.89,49.56,16.37,49.56z"/>
		</g>
		<g>
			<path d="M31.58,49.56H22.7c-0.52,0-0.95-0.43-0.95-0.95c0-0.52,0.43-0.95,0.95-0.95h8.87c0.52,0,0.95,0.43,0.95,0.95
				C32.53,49.13,32.1,49.56,31.58,49.56z"/>
		</g>
		<g>
			<path d="M46.79,49.56h-8.87c-0.52,0-0.95-0.43-0.95-0.95c0-0.52,0.43-0.95,0.95-0.95h8.87c0.52,0,0.95,0.43,0.95,0.95
				C47.74,49.13,47.31,49.56,46.79,49.56z"/>
		</g>
		<g>
			<path d="M62,49.56h-8.87c-0.52,0-0.95-0.43-0.95-0.95c0-0.52,0.43-0.95,0.95-0.95H62c0.52,0,0.95,0.43,0.95,0.95
				C62.95,49.13,62.52,49.56,62,49.56z"/>
		</g>
	</g>
	<g>
		<g>
			<path d="M51.85,39.01c-5.51,0-9.99-4.48-9.99-9.99c0-5.51,4.48-9.99,9.99-9.99c5.51,0,9.99,4.48,9.99,9.99
				C61.84,34.53,57.36,39.01,51.85,39.01z M51.85,20.93c-4.46,0-8.09,3.63-8.09,8.09c0,4.46,3.63,8.09,8.09,8.09
				s8.09-3.63,8.09-8.09C59.94,24.56,56.31,20.93,51.85,20.93z"/>
		</g>
		<g>
			<path d="M51.85,38.48c-2.95,0-4.54-4.87-4.54-9.46c0-4.58,1.59-9.46,4.54-9.46c2.95,0,4.54,4.87,4.54,9.46
				C56.39,33.61,54.8,38.48,51.85,38.48z M51.85,21.46c-1.08,0-2.64,2.94-2.64,7.56c0,4.61,1.56,7.56,2.64,7.56
				c1.08,0,2.64-2.94,2.64-7.56C54.49,24.41,52.93,21.46,51.85,21.46z"/>
		</g>
		<g>
			<path d="M59.96,29.97H43.74c-0.52,0-0.95-0.43-0.95-0.95c0-0.52,0.43-0.95,0.95-0.95h16.22c0.52,0,0.95,0.43,0.95,0.95
				C60.91,29.55,60.48,29.97,59.96,29.97z"/>
		</g>
	</g>
	<g>
		<path d="M83.53,19.78H68.38c-0.52,0-0.95-0.43-0.95-0.95s0.43-0.95,0.95-0.95h15.16c0.52,0,0.95,0.43,0.95,0.95
			S84.06,19.78,83.53,19.78z"/>
	</g>
	<g>
		<path d="M83.53,27.36H68.38c-0.52,0-0.95-0.43-0.95-0.95s0.43-0.95,0.95-0.95h15.16c0.52,0,0.95,0.43,0.95,0.95
			S84.06,27.36,83.53,27.36z"/>
	</g>
</g>
</svg>
