<?xml version="1.0" encoding="utf-8"?>
<!-- Generator: Adobe Illustrator 25.3.1, SVG Export Plug-In . SVG Version: 6.00 Build 0)  -->
<svg version="1.1" id="Layer_1" xmlns="http://www.w3.org/2000/svg" xmlns:xlink="http://www.w3.org/1999/xlink" x="0px" y="0px"
	 viewBox="0 0 73.9 65.83" style="enable-background:new 0 0 73.9 65.83;" xml:space="preserve">
<style type="text/css">
	.st0{fill:#1D2C56;}
</style>
<g>
	<g>
		<g>
			<path class="st0" d="M21.42,8.58H1c-0.55,0-1-0.45-1-1V1c0-0.55,0.45-1,1-1c0.55,0,1,0.45,1,1v5.58h18.42V1c0-0.55,0.45-1,1-1
				c0.55,0,1,0.45,1,1v6.58C22.42,8.14,21.98,8.58,21.42,8.58z"/>
			<path class="st0" d="M34.62,34.13c-0.21,0-0.42-0.07-0.6-0.2c-0.44-0.33-0.53-0.96-0.2-1.4l2.27-3.03l-3.11-6.53
				c-0.24-0.5-0.03-1.1,0.47-1.33c0.5-0.24,1.1-0.03,1.33,0.47l3.37,7.08c0.16,0.34,0.12,0.73-0.1,1.03l-2.63,3.51
				C35.23,33.99,34.93,34.13,34.62,34.13z"/>
			<path class="st0" d="M36.81,29.12c-0.16,0-0.32-0.04-0.46-0.11c-0.49-0.26-0.68-0.86-0.42-1.35l1.57-2.99l-2.88-4.36
				c-0.3-0.46-0.18-1.08,0.28-1.39c0.46-0.3,1.08-0.18,1.39,0.28l3.2,4.86c0.2,0.3,0.22,0.69,0.05,1.02l-1.84,3.51
				C37.52,28.93,37.17,29.12,36.81,29.12z"/>
			<path class="st0" d="M30.4,43.88c-0.49,0-0.94-0.2-1.28-0.57c-1.43-1.56-0.64-6.78-0.14-9.4c-0.73-0.93-2.71-3.41-3.59-4.29
				c-3.28-2.78-7.85-2.23-10.75-0.91c-1.85,0.85-2.46,1.75-2.46,1.96c1.46,3.96,1.67,7.06,0.66,9.22c-0.78,1.67-2.11,2.35-2.83,2.6
				c-0.26,0.09-0.54,0.07-0.79-0.05c-0.24-0.13-0.43-0.35-0.5-0.61c-1.01-3.47-4.26-8.67-4.88-9.36C-2.58,23.94,2.01,8.1,2.21,7.43
				C2.37,6.9,2.92,6.6,3.46,6.75C3.98,6.91,4.29,7.47,4.13,8C4.08,8.15-0.38,23.55,5.39,31.21c0.74,0.82,3.52,5.3,4.86,8.89
				c0.29-0.25,0.57-0.59,0.79-1.05c0.54-1.14,0.85-3.4-0.72-7.68c-0.2-0.49-0.46-1.87,1.72-3.45c3.14-2.28,9.99-3.78,14.71,0.23
				c1.23,1.23,3.98,4.74,4.09,4.89c0.18,0.23,0.25,0.53,0.19,0.81c-0.64,3.13-0.88,6.31-0.63,7.59c1.59-2.07,3.25-5.81,3.61-6.89
				c-0.76-2.23-3.29-9.36-3.32-9.44c-0.19-0.52,0.09-1.09,0.61-1.28c0.52-0.18,1.09,0.09,1.28,0.61c0.11,0.32,2.82,7.93,3.43,9.76
				c0.06,0.16,0.07,0.34,0.03,0.51c-0.21,1.05-2.63,6.65-4.84,8.85c-0.16,0.16-0.37,0.26-0.6,0.29
				C30.54,43.87,30.47,43.88,30.4,43.88z"/>
			<path class="st0" d="M38.22,24.65c-0.06,0-0.12-0.01-0.19-0.02c-0.54-0.1-0.9-0.63-0.8-1.17l0.92-4.83l-5.96-3.42l-1.18-0.55
				c-0.87-0.28-8.98-2.93-12.03-6.32c-0.37-0.41-0.34-1.04,0.08-1.41C19.47,6.55,20.1,6.59,20.47,7c2.79,3.1,11.12,5.75,11.2,5.77
				c0.04,0.01,0.08,0.03,0.12,0.05l1.32,0.61l6.66,3.81c0.37,0.21,0.56,0.63,0.49,1.05l-1.05,5.53
				C39.11,24.31,38.69,24.65,38.22,24.65z"/>
		</g>
		<path class="st0" d="M20.2,53.82c-4.9,0-8.89-3.99-8.89-8.89c0-4.9,3.99-8.89,8.89-8.89c4.9,0,8.89,3.99,8.89,8.89
			C29.09,49.83,25.1,53.82,20.2,53.82z M20.2,38.04c-3.8,0-6.89,3.09-6.89,6.89c0,3.8,3.09,6.89,6.89,6.89
			c3.8,0,6.89-3.09,6.89-6.89C27.09,41.13,24,38.04,20.2,38.04z"/>
	</g>
	<g>
		<g>
			<g>
				<path class="st0" d="M52.75,36.48c-0.55,0-1-0.45-1-1v-17c0-0.55,0.45-1,1-1c0.55,0,1,0.45,1,1v17
					C53.75,36.03,53.3,36.48,52.75,36.48z"/>
				<path class="st0" d="M46.75,31.48c-0.55,0-1-0.45-1-1v-1c0-0.55,0.45-1,1-1c0.55,0,1,0.45,1,1v1
					C47.75,31.03,47.3,31.48,46.75,31.48z"/>
				<path class="st0" d="M46.75,26.48c-0.55,0-1-0.45-1-1v-6h-3c-0.39,0-0.75-0.23-0.91-0.59c-0.16-0.36-0.1-0.78,0.16-1.07l7-8
					c0.38-0.44,1.12-0.44,1.5,0l7,8c0.26,0.29,0.32,0.71,0.16,1.07c-0.16,0.36-0.52,0.59-0.91,0.59h-5c-0.55,0-1-0.45-1-1
					c0-0.55,0.45-1,1-1h2.8L49.75,12l-4.8,5.48h1.8c0.55,0,1,0.45,1,1v7C47.75,26.03,47.3,26.48,46.75,26.48z"/>
				<path class="st0" d="M68.75,41.48c-0.55,0-1-0.45-1-1v-30c0-0.55,0.45-1,1-1c0.55,0,1,0.45,1,1v30
					C69.75,41.03,69.3,41.48,68.75,41.48z"/>
				<path class="st0" d="M62.75,28.48c-0.55,0-1-0.45-1-1v-1c0-0.55,0.45-1,1-1c0.55,0,1,0.45,1,1v1
					C63.75,28.03,63.3,28.48,62.75,28.48z"/>
				<path class="st0" d="M62.75,33.48c-0.55,0-1-0.45-1-1v-1c0-0.55,0.45-1,1-1c0.55,0,1,0.45,1,1v1
					C63.75,33.03,63.3,33.48,62.75,33.48z"/>
				<path class="st0" d="M62.75,23.48c-0.55,0-1-0.45-1-1v-1c0-0.55,0.45-1,1-1c0.55,0,1,0.45,1,1v1
					C63.75,23.03,63.3,23.48,62.75,23.48z"/>
				<path class="st0" d="M62.75,18.48c-0.55,0-1-0.45-1-1v-6h-3c-0.39,0-0.75-0.23-0.91-0.59c-0.16-0.36-0.1-0.78,0.16-1.07l7-8
					c0.38-0.44,1.12-0.44,1.5,0l7,8c0.26,0.29,0.32,0.71,0.16,1.07c-0.16,0.36-0.52,0.59-0.91,0.59h-5c-0.55,0-1-0.45-1-1
					s0.45-1,1-1h2.8L65.75,4l-4.8,5.48h1.8c0.55,0,1,0.45,1,1v7C63.75,18.03,63.3,18.48,62.75,18.48z"/>
			</g>
		</g>
		<g>
			<g>
				<g>
					<g>
						<path class="st0" d="M63.38,65.67c-5.07,0-10.53-1.33-10.53-4.26c0-0.55,0.45-1,1-1c0.55,0,1,0.45,1,1
							c0,0.66,2.99,2.26,8.53,2.26c5.54,0,8.53-1.6,8.53-2.26c0-0.55,0.45-1,1-1c0.55,0,1,0.45,1,1
							C73.9,64.34,68.45,65.67,63.38,65.67z"/>
					</g>
					<g>
						<path class="st0" d="M63.38,61.7c-5.07,0-10.53-1.33-10.53-4.26c0-0.55,0.45-1,1-1c0.55,0,1,0.45,1,1
							c0,0.66,2.99,2.26,8.53,2.26c5.54,0,8.53-1.6,8.53-2.26c0-0.55,0.45-1,1-1c0.55,0,1,0.45,1,1
							C73.9,60.37,68.45,61.7,63.38,61.7z"/>
						<path class="st0" d="M63.38,65.77c-5.07,0-10.53-1.33-10.53-4.26v-4.08c0-0.55,0.45-1,1-1c0.55,0,1,0.45,1,1v4.08
							c0,0.66,2.99,2.26,8.53,2.26c5.54,0,8.53-1.6,8.53-2.26v-4.08c0-0.55,0.45-1,1-1c0.55,0,1,0.45,1,1v4.08
							C73.9,64.44,68.45,65.77,63.38,65.77z"/>
					</g>
				</g>
				<g>
					<g>
						<path class="st0" d="M63.38,57.67c-5.07,0-10.53-1.33-10.53-4.26c0-0.55,0.45-1,1-1c0.55,0,1,0.45,1,1
							c0,0.66,2.99,2.26,8.53,2.26c5.54,0,8.53-1.6,8.53-2.26c0-0.55,0.45-1,1-1c0.55,0,1,0.45,1,1
							C73.9,56.33,68.45,57.67,63.38,57.67z"/>
						<path class="st0" d="M63.38,61.74c-5.07,0-10.53-1.33-10.53-4.26v-4.08c0-0.55,0.45-1,1-1c0.55,0,1,0.45,1,1v4.08
							c0,0.66,2.99,2.26,8.53,2.26c5.54,0,8.53-1.6,8.53-2.26v-4.08c0-0.55,0.45-1,1-1c0.55,0,1,0.45,1,1v4.08
							C73.9,60.41,68.45,61.74,63.38,61.74z"/>
					</g>
					<g>
						<path class="st0" d="M63.38,53.69c-5.07,0-10.53-1.33-10.53-4.26c0-2.93,5.46-4.26,10.53-4.26s10.53,1.33,10.53,4.26
							C73.9,52.36,68.45,53.69,63.38,53.69z M63.38,47.17c-5.54,0-8.53,1.6-8.53,2.26c0,0.66,2.99,2.26,8.53,2.26
							c5.54,0,8.53-1.6,8.53-2.26C71.9,48.78,68.92,47.17,63.38,47.17z"/>
						<path class="st0" d="M63.38,57.77c-5.07,0-10.53-1.33-10.53-4.26v-4.07c0-0.55,0.45-1,1-1c0.55,0,1,0.45,1,1v4.07
							c0,0.66,2.99,2.26,8.53,2.26c5.54,0,8.53-1.6,8.53-2.26v-4.07c0-0.55,0.45-1,1-1c0.55,0,1,0.45,1,1v4.07
							C73.9,56.43,68.45,57.77,63.38,57.77z"/>
					</g>
				</g>
			</g>
			<g>
				<g>
					<g>
						<path class="st0" d="M44.32,65.72c-5.07,0-10.53-1.33-10.53-4.26c0-0.55,0.45-1,1-1s1,0.45,1,1c0,0.66,2.99,2.26,8.53,2.26
							s8.53-1.6,8.53-2.26c0-0.55,0.45-1,1-1c0.55,0,1,0.45,1,1C54.85,64.39,49.39,65.72,44.32,65.72z"/>
					</g>
					<g>
						<path class="st0" d="M44.32,61.75c-5.07,0-10.53-1.33-10.53-4.26s5.46-4.26,10.53-4.26s10.53,1.33,10.53,4.26
							S49.39,61.75,44.32,61.75z M44.32,55.23c-5.54,0-8.53,1.6-8.53,2.26c0,0.66,2.99,2.26,8.53,2.26s8.53-1.6,8.53-2.26
							C52.85,56.83,49.86,55.23,44.32,55.23z"/>
						<path class="st0" d="M44.32,65.83c-5.07,0-10.53-1.33-10.53-4.26v-4.08c0-0.55,0.45-1,1-1s1,0.45,1,1v4.08
							c0,0.66,2.99,2.26,8.53,2.26s8.53-1.6,8.53-2.26v-4.08c0-0.55,0.45-1,1-1c0.55,0,1,0.45,1,1v4.08
							C54.85,64.49,49.39,65.83,44.32,65.83z"/>
					</g>
				</g>
			</g>
		</g>
	</g>
</g>
</svg>
