<?xml version="1.0" encoding="utf-8"?>
<!-- Generator: Adobe Illustrator 25.4.1, SVG Export Plug-In . SVG Version: 6.00 Build 0)  -->
<svg version="1.1" id="Layer_1" xmlns="http://www.w3.org/2000/svg" xmlns:xlink="http://www.w3.org/1999/xlink" x="0px" y="0px"
	 viewBox="0 0 256 256" style="enable-background:new 0 0 256 256;" xml:space="preserve">
<style type="text/css">
	.st0{fill:#1C2C59;}
	.st1{fill:#1C2C59;stroke:#DE3726;stroke-linecap:round;stroke-linejoin:round;stroke-miterlimit:10;}
</style>
<g>
	<g>
		<path class="st0" d="M52.96,46.33c-1.46,0-2.64-1.17-2.65-2.63c-0.01-1.46,1.17-2.66,2.63-2.67l12.19-0.07l21.75-17.82l1.65-0.99
			c1.65-0.96,3.2-1.88,5.56-1.88c0.01,0,0.02,0,0.02,0l12.01-0.55c1.45-0.21,2.7,1.06,2.77,2.52c0.07,1.46-1.06,2.7-2.52,2.77
			l-12.14,0.56c-1,0.01-1.55,0.3-3.01,1.15l-1.38,0.8L67.77,45.65c-0.47,0.38-1.06,0.6-1.66,0.6l-13.13,0.07
			C52.97,46.33,52.97,46.33,52.96,46.33z"/>
		<path class="st0" d="M86.94,106.85c-0.34,0-0.68-0.07-1-0.2l-9.46-3.84l-21.35-0.49c-1.46-0.04-2.62-1.25-2.59-2.71
			c0.04-1.46,1.41-2.55,2.71-2.59l21.84,0.5c0.32,0.01,0.64,0.07,0.93,0.2l9.39,3.81l44.7-1.49c1.49-0.12,2.72-1.53,2.61-3.14
			l-0.31-4.87c-0.1-1.57-1.4-2.78-2.96-2.78c-0.01,0-0.02,0-0.02,0l-7.61,0.04c-1.37-0.06-2.66-1.17-2.67-2.63
			c-0.01-1.46,1.17-2.66,2.63-2.67l7.61-0.04c0.02,0,0.04,0,0.06,0c4.36,0,7.97,3.39,8.25,7.75l0.31,4.86
			c0.29,4.49-3.13,8.43-7.61,8.77l-45.38,1.51C87,106.85,86.97,106.85,86.94,106.85z"/>
		<path class="st0" d="M127.14,89.33c-1.45,0-2.63-1.16-2.65-2.61c-0.02-1.46,1.15-2.67,2.61-2.69l8.69-0.11
			c0.91-0.01,1.74-0.39,2.35-1.06c0.61-0.67,0.91-1.54,0.83-2.44l-0.41-5.12c-0.13-1.67-1.55-2.97-3.22-2.97c-0.01,0-0.01,0-0.01,0
			l-11.14,0.04c-0.01,0-0.01,0-0.01,0c-1.46,0-2.64-1.18-2.65-2.64c-0.01-1.46,1.17-2.66,2.64-2.66l11.14-0.04c0.01,0,0.02,0,0.03,0
			c4.41,0,8.15,3.44,8.5,7.85l0.41,5.12c0.19,2.34-0.61,4.69-2.19,6.43c-1.58,1.74-3.85,2.76-6.2,2.79l-8.69,0.11
			C127.16,89.33,127.15,89.33,127.14,89.33z"/>
		<path class="st0" d="M112.37,190.99c-1.53,0-3.06-0.05-4.59-0.14l-0.57-0.04c-13.98-0.84-26.57-5.39-35.44-12.8
			c-9.95-8.32-14.8-19.68-14-32.86c0.95-15.72,7.41-23.26,13.11-29.92c3.51-4.1,6.83-7.98,8.5-13.46c0.43-1.39,1.89-2.18,3.31-1.76
			c1.4,0.43,2.18,1.91,1.76,3.31c-2,6.54-5.84,11.02-9.55,15.36c-5.41,6.31-11,12.84-11.84,26.79
			c-1.55,25.72,21.22,38.65,44.48,40.06l0.57,0.04c23.28,1.39,47.42-8.69,48.97-34.41c0.81-13.42-6.17-22.94-12.93-32.15
			c-4.3-5.86-8.36-11.39-9.99-17.53c-0.37-1.41,0.47-2.86,1.88-3.24c1.43-0.39,2.86,0.47,3.24,1.88c1.37,5.17,5.14,10.31,9.14,15.76
			c6.97,9.5,14.88,20.27,13.95,35.6C160.7,179.11,136.76,190.99,112.37,190.99z"/>
		<g>
			<path class="st1" d="M136.57,36.18"/>
			<path class="st0" d="M127.63,72.38c-1.43,0-2.61-1.14-2.65-2.58c-0.04-1.46,1.12-2.68,2.58-2.72l11.96-0.29
				c0.9-0.02,1.72-0.4,2.32-1.07c0.6-0.67,0.89-1.53,0.82-2.43l-0.32-3.9c-0.14-1.68-1.55-2.96-3.22-2.96c-0.03,0-0.06,0-0.08,0
				l-17.25-0.26c-1.46-0.02-2.63-1.23-2.61-2.69c0.02-1.45,1.2-2.61,2.65-2.61c0.01,0,0.02,0,0.04,0l19.5,0.26
				c1.64-0.04,3.03-1.42,3.07-3.16l0.13-5.43c0.04-1.75-1.3-3.2-3.04-3.3L121.09,37l-12.93-1.14c-1.22-0.11-2.21-1.04-2.39-2.25
				l-2.72-18.32c-0.42-1.92,0.09-3.93,1.45-5.5c1.66-1.92,4.65-3.02,7.45-2.82l26.57,1.9c2.76,0.2,5.46,1.7,6.86,3.84
				c1.16,1.75,1.42,3.8,0.74,5.77l-3.59,8.09c-0.46,1.03-1.54,1.63-2.66,1.56l-16.77-1.48c-1.46-0.13-2.54-1.41-2.41-2.87
				c0.12-1.46,1.53-2.53,2.87-2.41l14.89,1.31l2.73-6.15c0.06-0.2,0.02-0.53-0.23-0.91c-0.51-0.77-1.7-1.39-2.82-1.47l-26.57-1.9
				c-1.16-0.12-2.5,0.34-3.08,1.01c-0.19,0.22-0.36,0.51-0.23,1.08l2.44,16.42l10.91,0.96l20.36,2.23c4.48,0.25,8.01,4.08,7.9,8.71
				l-0.13,5.44c-0.07,2.79-1.46,5.24-3.57,6.74c0.81,1.19,1.33,2.58,1.45,4.1l0.32,3.9c0.2,2.33-0.59,4.66-2.15,6.41
				c-1.56,1.74-3.8,2.77-6.13,2.83l-11.96,0.29C127.68,72.38,127.66,72.38,127.63,72.38z"/>
		</g>
	</g>
	<g>
		<path class="st0" d="M125.6,249.06c-25.85,0-56.22-6.17-75.79-28.65c-1.67-1.42-2.08-3.88-0.77-6c2.43-3.97,10.42-5.97,20.42-1.89
			c2.73,0.91,5.34,2.25,8.09,3.67c6.46,3.33,13.13,6.8,25,5.96c1.44-0.12,2.72,1,2.83,2.46c0.1,1.46-1,2.72-2.46,2.83
			c-13.35,0.89-21-3.05-27.79-6.54c-2.57-1.32-4.99-2.57-7.51-3.41c-7.64-3.12-12.68-1.67-13.85-0.56
			c31.3,35.43,91.19,27.7,111.71,21.73c28.14-7.97,40.04-2.92,40.54-2.7c1.34,0.6,1.94,2.16,1.35,3.5
			c-0.59,1.33-2.15,1.94-3.47,1.36c-0.21-0.09-11.12-4.37-36.96,2.95C158.3,246.26,142.97,249.06,125.6,249.06z"/>
		<path class="st0" d="M125.8,231.62c-4.82,0-10.06-0.37-15.73-1.11c-7.38-0.97-9.93-4.77-10.8-6.95c-1.29-3.26-0.64-7.17,1.65-9.98
			c1.73-2.11,4.13-3.12,6.41-2.73c-0.07-0.04,0.57,0.01,1.51,0.08c4.35,0.34,17.63,1.4,21.14-3.66l0.38-0.44
			c23.87-22.06,38.07-22.06,44.14-22.06c6.13,0,9.08,1.44,12.22,2.98c3.6,1.76,7.69,3.76,18.78,4.54c1.46,0.1,2.56,1.37,2.46,2.83
			c-0.1,1.46-1.52,2.55-2.83,2.46c-12.12-0.85-16.9-3.19-20.74-5.07c-2.9-1.41-4.99-2.44-9.89-2.44c-5.43,0-18.13,0-40.34,20.47
			c-5.39,7.29-19.62,6.16-25.73,5.68c-0.73-0.06-1.27-0.11-1.56-0.11c-0.8-0.09-1.37,0.25-1.83,0.82c-0.87,1.07-1.5,2.98-0.83,4.68
			c0.76,1.92,3.03,3.18,6.56,3.64c18.44,2.44,32.35,0.65,40.24-5.12c1.19-0.87,2.84-0.61,3.71,0.57c0.86,1.19,0.61,2.84-0.57,3.71
			C147.57,229.21,138.08,231.62,125.8,231.62z"/>
		<path class="st0" d="M101.25,220.95c-0.35,0-0.71-0.07-1.06-0.22l-25.71-11.15c-3.91-1.69-7.65-1.1-8.37,0.56
			c-0.29,0.68-0.04,1.49,0.22,2.04c0.63,1.32,0.06,2.9-1.27,3.52c-1.33,0.62-2.9,0.05-3.52-1.27c-1.02-2.17-1.13-4.45-0.3-6.39
			c2.04-4.7,8.79-6.16,15.34-3.34l25.72,11.15c1.34,0.58,1.96,2.14,1.38,3.49C103.25,220.35,102.28,220.95,101.25,220.95z"/>
		<path class="st0" d="M90.79,216.21c-0.77,0-1.53-0.33-2.05-0.98c-2.33-2.86-3-6.07-1.83-8.8c2.03-4.7,8.76-6.18,15.34-3.33
			l18.04,7.73c1.35,0.58,1.97,2.14,1.39,3.48c-0.59,1.35-2.15,1.96-3.48,1.39l-18.04-7.74c-3.92-1.7-7.66-1.1-8.38,0.55
			c-0.36,0.84,0.04,2.1,1.07,3.36c0.93,1.13,0.76,2.8-0.38,3.73C91.97,216.01,91.38,216.21,90.79,216.21z"/>
	</g>
</g>
</svg>
