<?xml version="1.0" encoding="utf-8"?>
<!-- Generator: Adobe Illustrator 25.4.1, SVG Export Plug-In . SVG Version: 6.00 Build 0)  -->
<svg version="1.1" id="Layer_1" xmlns="http://www.w3.org/2000/svg" xmlns:xlink="http://www.w3.org/1999/xlink" x="0px" y="0px"
	 viewBox="0 0 256 256" style="enable-background:new 0 0 256 256;" xml:space="preserve">
<style type="text/css">
	.st0{fill:#1C2C59;}
</style>
<g>
	<path class="st0" d="M211.14,93.42c-0.63,0-1.28-0.16-1.86-0.51L151.84,59.3c-1.77-1.03-2.36-3.3-1.33-5.06
		c1.03-1.77,3.29-2.36,5.06-1.33l57.43,33.61c1.77,1.03,2.36,3.3,1.33,5.06C213.64,92.76,212.41,93.42,211.14,93.42z"/>
	<path class="st0" d="M96.36,115.31c-0.8,0-1.61-0.26-2.29-0.79c-1.6-1.27-1.88-3.6-0.61-5.2l41.62-52.72
		c1.27-1.6,3.59-1.87,5.2-0.61c1.6,1.27,1.88,3.6,0.61,5.2L99.26,113.9C98.53,114.82,97.45,115.31,96.36,115.31z"/>
	<path class="st0" d="M79.71,118.55c-0.76,0-1.54-0.23-2.2-0.73L42.75,92.07c-1.64-1.22-1.99-3.53-0.77-5.17
		c1.21-1.65,3.53-1.99,5.18-0.77l34.76,25.74c1.64,1.22,1.99,3.53,0.77,5.17C81.96,118.03,80.84,118.55,79.71,118.55z"/>
	<path class="st0" d="M37.24,95.42c-7.14,0-12.95-5.81-12.95-12.95s5.81-12.95,12.95-12.95s12.95,5.81,12.95,12.95
		S44.38,95.42,37.24,95.42z M37.24,76.92c-3.06,0-5.55,2.49-5.55,5.55s2.49,5.55,5.55,5.55s5.55-2.49,5.55-5.55
		S40.3,76.92,37.24,76.92z"/>
	<path class="st0" d="M221.08,107.68c-7.78,0-14.11-6.33-14.11-14.11s6.33-14.11,14.11-14.11s14.11,6.33,14.11,14.11
		S228.86,107.68,221.08,107.68z M221.08,86.86c-3.7,0-6.71,3.01-6.71,6.71s3.01,6.71,6.71,6.71c3.7,0,6.71-3.01,6.71-6.71
		S224.78,86.86,221.08,86.86z"/>
	<path class="st0" d="M88.96,130.8c-7.14,0-12.95-5.81-12.95-12.95s5.81-12.95,12.95-12.95c7.14,0,12.95,5.81,12.95,12.95
		S96.1,130.8,88.96,130.8z M88.96,112.3c-3.06,0-5.55,2.49-5.55,5.55s2.49,5.55,5.55,5.55c3.06,0,5.55-2.49,5.55-5.55
		S92.02,112.3,88.96,112.3z"/>
	<path class="st0" d="M144.46,64.43c-7.14,0-12.95-5.81-12.95-12.95s5.81-12.95,12.95-12.95c7.14,0,12.95,5.81,12.95,12.95
		S151.6,64.43,144.46,64.43z M144.46,45.93c-3.06,0-5.55,2.49-5.55,5.55s2.49,5.55,5.55,5.55c3.06,0,5.55-2.49,5.55-5.55
		S147.52,45.93,144.46,45.93z"/>
	<path class="st0" d="M246.29,216.13H9.49c-2.04,0-3.7-1.65-3.7-3.7s1.66-3.7,3.7-3.7h236.8c2.04,0,3.7,1.65,3.7,3.7
		S248.33,216.13,246.29,216.13z"/>
	<path class="st0" d="M50.19,216.13h-29.6c-2.04,0-3.7-1.65-3.7-3.7v-74c0-4.08,3.32-7.4,7.4-7.4h22.2c4.08,0,7.4,3.32,7.4,7.4v74
		C53.89,214.48,52.23,216.13,50.19,216.13z M24.29,208.73h22.2v-70.3h-22.2V208.73z"/>
	<path class="st0" d="M173.52,216.13h-29.6c-2.04,0-3.7-1.65-3.7-3.7v-96.2c0-4.08,3.32-7.4,7.4-7.4h22.2c4.08,0,7.4,3.32,7.4,7.4
		v96.2C177.22,214.48,175.57,216.13,173.52,216.13z M147.62,208.73h22.2v-92.5h-22.2V208.73z"/>
	<path class="st0" d="M111.85,216.13h-29.6c-2.04,0-3.7-1.65-3.7-3.7v-48.1c0-4.08,3.32-7.4,7.4-7.4h22.2c4.08,0,7.4,3.32,7.4,7.4
		v48.1C115.55,214.48,113.9,216.13,111.85,216.13z M85.95,208.73h22.2v-44.4h-22.2V208.73z"/>
	<path class="st0" d="M235.19,216.13h-29.6c-2.04,0-3.7-1.65-3.7-3.7v-74c0-4.08,3.32-7.4,7.4-7.4h22.2c4.08,0,7.4,3.32,7.4,7.4v74
		C238.89,214.48,237.23,216.13,235.19,216.13z M209.29,208.73h22.2v-70.3h-22.2V208.73z"/>
</g>
</svg>
