<?xml version="1.0" encoding="utf-8"?>
<!-- Generator: Adobe Illustrator 25.4.1, SVG Export Plug-In . SVG Version: 6.00 Build 0)  -->
<svg version="1.1" id="Layer_1" xmlns="http://www.w3.org/2000/svg" xmlns:xlink="http://www.w3.org/1999/xlink" x="0px" y="0px"
	 viewBox="0 0 256 256" style="enable-background:new 0 0 256 256;" xml:space="preserve">
<style type="text/css">
	.st0{stroke:#000000;stroke-miterlimit:10;}
</style>
<g>
	<g>
		<path class="st0" d="M160.25,208.69H27.38c-13.68,0-24.81-11.13-24.81-24.81v-62.06C2.57,108.13,13.7,97,27.38,97h118.79
			c2.1,0,3.8,1.7,3.8,3.8s-1.7,3.8-3.8,3.8H27.38c-9.49,0-17.21,7.72-17.21,17.21v62.06c0,9.49,7.72,17.21,17.21,17.21h132.87
			c9.49,0,17.21-7.72,17.21-17.21v-65.73c0-2.1,1.7-3.8,3.8-3.8c2.1,0,3.8,1.7,3.8,3.8v65.73
			C185.06,197.56,173.93,208.69,160.25,208.69z"/>
		<path class="st0" d="M94.17,104.41c-1.1,0-2.2-0.48-2.95-1.4c-1.32-1.63-1.08-4.02,0.55-5.35l52.11-42.44
			c5.74-4.69,12.99-7.31,20.41-7.36l83.47-0.55c2.07-0.03,3.81,1.68,3.82,3.78c0.01,2.1-1.68,3.81-3.78,3.82l-83.47,0.55
			c-5.69,0.04-11.25,2.04-15.65,5.65l-52.12,42.45C95.86,104.13,95.01,104.41,94.17,104.41z"/>
		<path class="st0" d="M181.86,165.56c-2.03,0-3.71-1.6-3.79-3.65c-0.09-2.1,1.55-3.86,3.64-3.95c11.39-0.46,27-4.18,36.7-19.28
			c1.14-1.81,1.15-1.81,31.27-1.44c2.1,0.03,3.78,1.75,3.75,3.85c-0.03,2.08-1.72,3.75-3.8,3.75c-0.02,0-0.03,0-0.05,0
			c-8.75-0.11-21.2-0.25-25.97-0.3c-12.17,17.25-31.16,20.58-41.6,21.01C181.96,165.56,181.91,165.56,181.86,165.56z"/>
		<path class="st0" d="M137.64,138.51c-0.85,0-1.7-0.07-2.55-0.2c-4.19-0.67-7.85-2.92-10.33-6.34c-5.12-7.07-3.53-16.99,3.54-22.12
			l41.05-32.11c1.65-1.29,4.04-1,5.33,0.65c1.29,1.65,1,4.04-0.65,5.33l-41.17,32.2c-3.79,2.75-4.62,7.91-1.96,11.59
			c1.28,1.77,3.19,2.94,5.37,3.29c2.18,0.36,4.36-0.16,6.13-1.45l21.21-15.8c0.87-0.65,1.98-0.89,3.04-0.68
			c9.92,2.05,33.24,2.66,42.04-8.48c1.3-1.65,3.69-1.93,5.34-0.63c1.65,1.3,1.93,3.69,0.63,5.34
			c-11.31,14.31-36.88,13.37-47.84,11.53l-19.92,14.84C144.17,137.47,140.95,138.51,137.64,138.51z"/>
		<path class="st0" d="M179.27,186.12H8.17c-2.1,0-3.8-1.7-3.8-3.8c0-2.1,1.7-3.8,3.8-3.8h171.11c2.1,0,3.8,1.7,3.8,3.8
			C183.07,184.42,181.37,186.12,179.27,186.12z"/>
	</g>
	<g>
		<path class="st0" d="M82.25,159.14h-53.2c-2.1,0-3.8-1.7-3.8-3.8s1.7-3.8,3.8-3.8h53.2c2.1,0,3.8,1.7,3.8,3.8
			S84.35,159.14,82.25,159.14z"/>
		<path class="st0" d="M82.25,140.14h-53.2c-2.1,0-3.8-1.7-3.8-3.8s1.7-3.8,3.8-3.8h53.2c2.1,0,3.8,1.7,3.8,3.8
			S84.35,140.14,82.25,140.14z"/>
	</g>
</g>
</svg>
