<?xml version="1.0" encoding="utf-8"?>
<!-- Generator: Adobe Illustrator 25.4.1, SVG Export Plug-In . SVG Version: 6.00 Build 0)  -->
<svg version="1.1" id="Layer_1" xmlns="http://www.w3.org/2000/svg" xmlns:xlink="http://www.w3.org/1999/xlink" x="0px" y="0px"
	 viewBox="0 0 256 256" style="enable-background:new 0 0 256 256;" xml:space="preserve">
<style type="text/css">
	.st0{fill:#1C2C59;}
</style>
<g>
	<path class="st0" d="M192.64,114.75c-1.52,0-2.75-1.23-2.75-2.75V57.48c0-2.24-1.83-4.07-4.07-4.07H42.7
		c-2.24,0-4.07,1.83-4.07,4.07V112c0,1.52-1.23,2.75-2.75,2.75c-1.52,0-2.75-1.23-2.75-2.75V57.48c0-5.27,4.29-9.57,9.57-9.57
		h143.12c5.27,0,9.57,4.29,9.57,9.57V112C195.39,113.52,194.16,114.75,192.64,114.75z"/>
	<path class="st0" d="M124.48,162.45H66.55c-1.52,0-2.75-1.23-2.75-2.75c0-1.52,1.23-2.75,2.75-2.75h57.93
		c1.52,0,2.75,1.23,2.75,2.75C127.23,161.22,126,162.45,124.48,162.45z"/>
	<path class="st0" d="M141.52,206.76H87c-1.52,0-2.75-1.23-2.75-2.75v-6.82c0-1.12,0.68-2.13,1.72-2.55
		c0.6-0.25,15.12-6.74,15.32-34.96c0.01-1.51,1.24-2.73,2.75-2.73h20.45c1.52,0,2.75,1.23,2.75,2.75c0,1.52-1.23,2.75-2.75,2.75
		h-17.76c-0.97,24.57-12.51,33.75-16.98,36.4v2.4h51.77c1.52,0,2.75,1.23,2.75,2.75C144.27,205.53,143.04,206.76,141.52,206.76z"/>
	<path class="st0" d="M59.74,206.76H12.03c-5.27,0-9.57-4.29-9.57-9.57v-78.37c0-5.27,4.29-9.57,9.57-9.57h47.71
		c5.27,0,9.57,4.29,9.57,9.57v78.37C69.3,202.46,65.01,206.76,59.74,206.76z M12.03,114.75c-2.24,0-4.07,1.83-4.07,4.07v78.37
		c0,2.24,1.82,4.07,4.07,4.07h47.71c2.24,0,4.07-1.83,4.07-4.07v-78.37c0-2.24-1.82-4.07-4.07-4.07H12.03z"/>
	<path class="st0" d="M240.34,206.76H124.48c-7.15,0-12.97-5.82-12.97-12.97v-6.82c0-1.52,1.23-2.75,2.75-2.75h136.3
		c1.52,0,2.75,1.23,2.75,2.75v6.82C253.31,200.94,247.5,206.76,240.34,206.76z M117.01,189.72v4.07c0,4.12,3.35,7.47,7.47,7.47
		h115.86c4.12,0,7.47-3.35,7.47-7.47v-4.07H117.01z"/>
	<path class="st0" d="M240.34,189.72H124.48c-1.52,0-2.75-1.23-2.75-2.75v-68.15c0-5.27,4.29-9.57,9.56-9.57h102.23
		c5.27,0,9.57,4.29,9.57,9.57v68.15C243.09,188.49,241.86,189.72,240.34,189.72z M127.23,184.22h110.36v-65.4
		c0-2.24-1.83-4.07-4.07-4.07H131.3c-2.24,0-4.06,1.83-4.06,4.07V184.22z"/>
	<path class="st0" d="M66.55,131.79H5.21c-1.52,0-2.75-1.23-2.75-2.75c0-1.52,1.23-2.75,2.75-2.75h61.34c1.52,0,2.75,1.23,2.75,2.75
		C69.3,130.56,68.07,131.79,66.55,131.79z"/>
	<g>
		<path class="st0" d="M35.88,186.31c-10.91,0-19.79-8.88-19.79-19.79c0-10.91,8.88-19.79,19.79-19.79
			c10.91,0,19.79,8.88,19.79,19.79C55.67,177.43,46.79,186.31,35.88,186.31z M35.88,152.23c-7.88,0-14.29,6.41-14.29,14.29
			c0,7.88,6.41,14.29,14.29,14.29s14.29-6.41,14.29-14.29C50.17,158.64,43.76,152.23,35.88,152.23z"/>
		<path class="st0" d="M48.66,179.92c-0.62,0-1.24-0.21-1.76-0.64l-12.78-10.65c-0.63-0.52-0.99-1.29-0.99-2.11v-17.04
			c0-1.52,1.23-2.75,2.75-2.75c1.52,0,2.75,1.23,2.75,2.75v15.75l11.79,9.83c1.17,0.97,1.32,2.71,0.35,3.87
			C50.23,179.58,49.45,179.92,48.66,179.92z"/>
	</g>
	<path class="st0" d="M147.53,100.1c-3.93,0-7.41-2.27-9.31-6.28c-1.02-2.25-4.16-6.33-6.01-6.38c-0.84,0-2.36,0.49-5.15,4.72
		c-0.48,0.66-4.2,5.63-9.16,6.06c-2.4,0.16-4.65-0.66-6.55-2.5c-2.65-2.2-6.34-8.24-10.51-15.3c-1.24-2.09-2.31-3.91-3.07-5.06
		c-0.91-1.54-1.98-2.35-3.03-2.36c-0.01,0-0.01,0-0.02,0c-1.03,0-2.1,0.79-2.94,2.16c-4.33,7.14-12.57,19-19.79,19.13h-9.42
		c-1.33-0.1-4.4-0.05-6.45-0.02l-1.78,0.02c-1.52,0-2.75-1.23-2.75-2.75c0-1.52,1.23-2.75,2.75-2.75l1.7-0.02
		c2.23-0.03,5.56-0.07,6.76,0.03l9.14-0.01c3-0.05,9.36-6.95,15.08-16.39c1.95-3.19,4.85-5.12,7.77-4.91
		c3.03,0.03,5.81,1.83,7.64,4.95c0.72,1.07,1.85,2.98,3.14,5.17c2.84,4.81,7.14,12.09,9.45,14.01c1.14,1.09,1.9,1.15,2.39,1.11
		c1.89-0.17,4.14-2.36,5.11-3.71c2.28-3.46,5.27-7.1,9.73-7.1c6.4,0.14,10.9,9.46,10.94,9.56c1.34,2.81,3.76,3.83,6.46,2.67
		c6.69-3.63,12.05-5.37,16.64-5.37h6.88c1.52,0,2.75,1.23,2.75,2.75c0,1.52-1.23,2.75-2.75,2.75h-6.88c-2.29,0-6.26,0.5-14.25,4.81
		C150.52,99.78,149,100.1,147.53,100.1z"/>
	<path class="st0" d="M124.48,145.42H66.55c-1.52,0-2.75-1.23-2.75-2.75c0-1.52,1.23-2.75,2.75-2.75h57.93
		c1.52,0,2.75,1.23,2.75,2.75C127.23,144.19,126,145.42,124.48,145.42z"/>
	<path class="st0" d="M110.85,128.38H80.18c-1.52,0-2.75-1.23-2.75-2.75c0-1.52,1.23-2.75,2.75-2.75h30.67
		c1.52,0,2.75,1.23,2.75,2.75C113.6,127.15,112.37,128.38,110.85,128.38z"/>
	<path class="st0" d="M110.85,114.75H80.18c-1.52,0-2.75-1.23-2.75-2.75c0-1.52,1.23-2.75,2.75-2.75h30.67
		c1.52,0,2.75,1.23,2.75,2.75C113.6,113.52,112.37,114.75,110.85,114.75z"/>
	<path class="st0" d="M148.34,135.2h-6.82c-1.52,0-2.75-1.23-2.75-2.75c0-1.52,1.23-2.75,2.75-2.75h6.82c1.52,0,2.75,1.23,2.75,2.75
		C151.09,133.97,149.86,135.2,148.34,135.2z"/>
	<path class="st0" d="M148.34,152.23h-6.82c-1.52,0-2.75-1.23-2.75-2.75c0-1.52,1.23-2.75,2.75-2.75h6.82
		c1.52,0,2.75,1.23,2.75,2.75C151.09,151,149.86,152.23,148.34,152.23z"/>
	<path class="st0" d="M148.34,169.27h-6.82c-1.52,0-2.75-1.23-2.75-2.75c0-1.52,1.23-2.75,2.75-2.75h6.82
		c1.52,0,2.75,1.23,2.75,2.75C151.09,168.04,149.86,169.27,148.34,169.27z"/>
	<path class="st0" d="M223.3,135.2h-57.93c-1.52,0-2.75-1.23-2.75-2.75c0-1.52,1.23-2.75,2.75-2.75h57.93
		c1.52,0,2.75,1.23,2.75,2.75C226.05,133.97,224.82,135.2,223.3,135.2z"/>
	<path class="st0" d="M206.26,152.23h-40.89c-1.52,0-2.75-1.23-2.75-2.75c0-1.52,1.23-2.75,2.75-2.75h40.89
		c1.52,0,2.75,1.23,2.75,2.75C209.01,151,207.78,152.23,206.26,152.23z"/>
	<path class="st0" d="M185.82,169.27h-20.45c-1.52,0-2.75-1.23-2.75-2.75c0-1.52,1.23-2.75,2.75-2.75h20.45
		c1.52,0,2.75,1.23,2.75,2.75C188.57,168.04,187.34,169.27,185.82,169.27z"/>
</g>
</svg>
