<?xml version="1.0" encoding="utf-8"?>
<!-- Generator: Adobe Illustrator 25.4.1, SVG Export Plug-In . SVG Version: 6.00 Build 0)  -->
<svg version="1.1" id="Layer_1" xmlns="http://www.w3.org/2000/svg" xmlns:xlink="http://www.w3.org/1999/xlink" x="0px" y="0px"
	 viewBox="0 0 256 256" style="enable-background:new 0 0 256 256;" xml:space="preserve">
<style type="text/css">
	.st0{fill:#1C2C59;}
</style>
<g>
	<g>
		<g>
			<path class="st0" d="M47.48,238.34c-20.76,0-43.11-4.47-43.11-14.29c0-9.81,22.35-14.28,43.11-14.28
				c20.77,0,43.12,4.47,43.12,14.28C90.6,233.87,68.25,238.34,47.48,238.34z M47.48,215.27c-23.33,0-37.61,5.69-37.61,8.78
				c0,3.1,14.28,8.79,37.61,8.79c23.34,0,37.62-5.69,37.62-8.79C85.1,220.96,70.82,215.27,47.48,215.27z"/>
			<path class="st0" d="M47.48,252.76c-20.76,0-43.11-4.47-43.11-14.29v-14.42c0-1.52,1.23-2.75,2.75-2.75
				c1.52,0,2.75,1.23,2.75,2.75v14.42c0,3.1,14.28,8.79,37.61,8.79c23.34,0,37.62-5.69,37.62-8.79v-14.42
				c0-1.52,1.23-2.75,2.75-2.75s2.75,1.23,2.75,2.75v14.42C90.6,248.29,68.25,252.76,47.48,252.76z"/>
		</g>
		<g>
			<path class="st0" d="M128.41,238.34c-20.76,0-43.11-4.47-43.11-14.29c0-1.52,1.23-2.75,2.75-2.75c1.52,0,2.75,1.23,2.75,2.75
				c0,3.1,14.28,8.79,37.61,8.79c23.34,0,37.62-5.69,37.62-8.79c0-1.52,1.23-2.75,2.75-2.75c1.52,0,2.75,1.23,2.75,2.75
				C171.53,233.87,149.18,238.34,128.41,238.34z"/>
			<path class="st0" d="M128.41,252.76c-20.76,0-43.11-4.47-43.11-14.29v-14.42c0-1.52,1.23-2.75,2.75-2.75
				c1.52,0,2.75,1.23,2.75,2.75v14.42c0,3.1,14.28,8.79,37.61,8.79c23.34,0,37.62-5.69,37.62-8.79v-14.42
				c0-1.52,1.23-2.75,2.75-2.75c1.52,0,2.75,1.23,2.75,2.75v14.42C171.53,248.29,149.18,252.76,128.41,252.76z"/>
		</g>
		<g>
			<g>
				<path class="st0" d="M128.41,224.29c-20.76,0-43.11-4.47-43.11-14.29c0-1.52,1.23-2.75,2.75-2.75c1.52,0,2.75,1.23,2.75,2.75
					c0,3.1,14.28,8.79,37.61,8.79c23.34,0,37.62-5.69,37.62-8.79c0-1.52,1.23-2.75,2.75-2.75c1.52,0,2.75,1.23,2.75,2.75
					C171.53,219.82,149.18,224.29,128.41,224.29z"/>
				<path class="st0" d="M128.41,238.7c-20.76,0-43.11-4.47-43.11-14.29V210c0-1.52,1.23-2.75,2.75-2.75c1.52,0,2.75,1.23,2.75,2.75
					v14.42c0,3.1,14.28,8.79,37.61,8.79c23.34,0,37.62-5.69,37.62-8.79V210c0-1.52,1.23-2.75,2.75-2.75c1.52,0,2.75,1.23,2.75,2.75
					v14.42C171.53,234.23,149.18,238.7,128.41,238.7z"/>
			</g>
			<g>
				<path class="st0" d="M128.41,210.22c-20.76,0-43.11-4.47-43.11-14.28s22.35-14.28,43.11-14.28c20.77,0,43.12,4.47,43.12,14.28
					S149.18,210.22,128.41,210.22z M128.41,187.16c-23.33,0-37.61,5.69-37.61,8.78s14.28,8.78,37.61,8.78
					c23.34,0,37.62-5.69,37.62-8.78S151.75,187.16,128.41,187.16z"/>
				<path class="st0" d="M128.41,224.65c-20.76,0-43.11-4.47-43.11-14.29v-14.42c0-1.52,1.23-2.75,2.75-2.75
					c1.52,0,2.75,1.23,2.75,2.75v14.42c0,3.1,14.28,8.79,37.61,8.79c23.34,0,37.62-5.69,37.62-8.79v-14.42
					c0-1.52,1.23-2.75,2.75-2.75c1.52,0,2.75,1.23,2.75,2.75v14.42C171.53,220.18,149.18,224.65,128.41,224.65z"/>
			</g>
		</g>
		<g>
			<path class="st0" d="M209.34,238.34c-20.76,0-43.11-4.47-43.11-14.29c0-1.52,1.23-2.75,2.75-2.75s2.75,1.23,2.75,2.75
				c0,3.1,14.28,8.79,37.61,8.79c23.34,0,37.62-5.69,37.62-8.79c0-1.52,1.23-2.75,2.75-2.75c1.52,0,2.75,1.23,2.75,2.75
				C252.46,233.87,230.11,238.34,209.34,238.34z"/>
			<path class="st0" d="M209.34,252.76c-20.76,0-43.11-4.47-43.11-14.29v-14.42c0-1.52,1.23-2.75,2.75-2.75s2.75,1.23,2.75,2.75
				v14.42c0,3.1,14.28,8.79,37.61,8.79c23.34,0,37.62-5.69,37.62-8.79v-14.42c0-1.52,1.23-2.75,2.75-2.75
				c1.52,0,2.75,1.23,2.75,2.75v14.42C252.46,248.29,230.11,252.76,209.34,252.76z"/>
		</g>
		<g>
			<g>
				<path class="st0" d="M209.34,224.29c-20.76,0-43.11-4.47-43.11-14.29c0-1.52,1.23-2.75,2.75-2.75s2.75,1.23,2.75,2.75
					c0,3.1,14.28,8.79,37.61,8.79c23.34,0,37.62-5.69,37.62-8.79c0-1.52,1.23-2.75,2.75-2.75c1.52,0,2.75,1.23,2.75,2.75
					C252.46,219.82,230.11,224.29,209.34,224.29z"/>
				<path class="st0" d="M209.34,238.7c-20.76,0-43.11-4.47-43.11-14.29V210c0-1.52,1.23-2.75,2.75-2.75s2.75,1.23,2.75,2.75v14.42
					c0,3.1,14.28,8.79,37.61,8.79c23.34,0,37.62-5.69,37.62-8.79V210c0-1.52,1.23-2.75,2.75-2.75c1.52,0,2.75,1.23,2.75,2.75v14.42
					C252.46,234.23,230.11,238.7,209.34,238.7z"/>
			</g>
			<g>
				<path class="st0" d="M209.34,210.22c-20.76,0-43.11-4.47-43.11-14.28c0-1.52,1.23-2.75,2.75-2.75s2.75,1.23,2.75,2.75
					c0,3.09,14.28,8.78,37.61,8.78c23.34,0,37.62-5.69,37.62-8.78c0-1.52,1.23-2.75,2.75-2.75c1.52,0,2.75,1.23,2.75,2.75
					C252.46,205.76,230.11,210.22,209.34,210.22z"/>
				<path class="st0" d="M209.34,224.65c-20.76,0-43.11-4.47-43.11-14.29v-14.42c0-1.52,1.23-2.75,2.75-2.75s2.75,1.23,2.75,2.75
					v14.42c0,3.1,14.28,8.79,37.61,8.79c23.34,0,37.62-5.69,37.62-8.79v-14.42c0-1.52,1.23-2.75,2.75-2.75
					c1.52,0,2.75,1.23,2.75,2.75v14.42C252.46,220.18,230.11,224.65,209.34,224.65z"/>
			</g>
		</g>
		<g>
			<g>
				<path class="st0" d="M209.34,195.96c-20.76,0-43.11-4.47-43.11-14.29c0-1.52,1.23-2.75,2.75-2.75s2.75,1.23,2.75,2.75
					c0,3.1,14.28,8.79,37.61,8.79c23.34,0,37.62-5.69,37.62-8.79c0-1.52,1.23-2.75,2.75-2.75c1.52,0,2.75,1.23,2.75,2.75
					C252.46,191.49,230.11,195.96,209.34,195.96z"/>
				<path class="st0" d="M209.34,210.37c-20.76,0-43.11-4.47-43.11-14.28v-14.42c0-1.52,1.23-2.75,2.75-2.75s2.75,1.23,2.75,2.75
					v14.42c0,3.09,14.28,8.78,37.61,8.78c23.34,0,37.62-5.69,37.62-8.78v-14.42c0-1.52,1.23-2.75,2.75-2.75
					c1.52,0,2.75,1.23,2.75,2.75v14.42C252.46,205.91,230.11,210.37,209.34,210.37z"/>
			</g>
			<g>
				<path class="st0" d="M209.34,181.9c-20.76,0-43.11-4.47-43.11-14.29c0-9.81,22.35-14.28,43.11-14.28
					c20.77,0,43.12,4.47,43.12,14.28C252.46,177.43,230.11,181.9,209.34,181.9z M209.34,158.83c-23.33,0-37.61,5.69-37.61,8.78
					c0,3.1,14.28,8.79,37.61,8.79c23.34,0,37.62-5.69,37.62-8.79C246.96,164.52,232.68,158.83,209.34,158.83z"/>
				<path class="st0" d="M209.34,196.32c-20.76,0-43.11-4.47-43.11-14.28v-14.42c0-1.52,1.23-2.75,2.75-2.75s2.75,1.23,2.75,2.75
					v14.42c0,3.09,14.28,8.78,37.61,8.78c23.34,0,37.62-5.69,37.62-8.78v-14.42c0-1.52,1.23-2.75,2.75-2.75
					c1.52,0,2.75,1.23,2.75,2.75v14.42C252.46,191.85,230.11,196.32,209.34,196.32z"/>
			</g>
		</g>
	</g>
	<g>
		<path class="st0" d="M250.56,123.27c-1.52,0-2.75-1.23-2.75-2.75c0-9.76-7.94-17.7-17.69-17.7c-9.76,0-17.7,7.94-17.7,17.7
			c0,1.52-1.23,2.75-2.75,2.75c-1.52,0-2.85-1.23-2.85-2.75c0-9.76-7.94-17.7-17.7-17.7c-9.45,0-17.21,7.4-17.65,16.86
			c-0.06,1.47-1.27,2.62-2.74,2.62c-1.47,0-2.68-1.15-2.74-2.62c-0.45-9.45-8.2-16.86-17.65-16.86c-9.75,0-17.69,7.94-17.69,17.7
			c0,1.52-1.23,2.75-2.75,2.75c-1.52,0-2.75-1.23-2.75-2.75c0-9.76-7.94-17.7-17.7-17.7c-9.76,0-17.7,7.94-17.7,17.7
			c0,1.52-1.23,2.75-2.75,2.75s-2.85-1.23-2.85-2.75c0-9.76-7.94-17.7-17.69-17.7c-9.45,0-17.21,7.41-17.65,16.86
			c-0.06,1.47-1.28,2.62-2.74,2.62l0,0c-1.47,0-2.68-1.15-2.74-2.62c-0.44-9.46-8.2-16.86-17.65-16.86c-9.76,0-17.7,7.94-17.7,17.7
			c0,1.52-1.23,2.75-2.75,2.75c-1.52,0-2.75-1.23-2.75-2.75C2.47,62.01,62.25,8.72,127.89,8.72c65.64,0,125.42,53.28,125.42,111.79
			C253.31,122.04,252.08,123.27,250.56,123.27z M189.13,97.32c8.87,0,16.6,5.01,20.5,12.34c3.9-7.33,11.62-12.34,20.5-12.34
			c6.11,0,11.68,2.37,15.82,6.25c-9.8-45.06-57.08-89.35-118.05-89.35c-60.98,0-108.26,44.28-118.06,89.35
			c4.15-3.88,9.72-6.25,15.83-6.25c8.8,0,16.48,4.89,20.39,12.16c3.93-7.27,11.6-12.16,20.4-12.16c8.87,0,16.59,5,20.49,12.34
			c3.9-7.33,11.62-12.34,20.5-12.34c8.84,0,16.53,4.96,20.45,12.25c3.92-7.28,11.61-12.25,20.44-12.25c8.8,0,16.47,4.89,20.4,12.16
			C172.65,102.21,180.32,97.32,189.13,97.32z"/>
		<path class="st0" d="M127.89,10.82c-1.52,0-2.75-1.23-2.75-2.75V4.66c0-1.52,1.23-2.75,2.75-2.75c1.52,0,2.75,1.23,2.75,2.75v3.41
			C130.64,9.59,129.41,10.82,127.89,10.82z"/>
		<path class="st0" d="M127.89,143.71c-1.52,0-2.75-1.23-2.75-2.75V113.7c0-1.52,1.23-2.75,2.75-2.75c1.52,0,2.75,1.23,2.75,2.75
			v27.26C130.64,142.48,129.41,143.71,127.89,143.71z"/>
	</g>
	<path class="st0" d="M127.89,164.16c-1.52,0-2.75-1.23-2.75-2.75V158c0-1.52,1.23-2.75,2.75-2.75c1.52,0,2.75,1.23,2.75,2.75v3.41
		C130.64,162.93,129.41,164.16,127.89,164.16z"/>
</g>
</svg>
