<?xml version="1.0" encoding="utf-8"?>
<!-- Generator: Adobe Illustrator 25.4.1, SVG Export Plug-In . SVG Version: 6.00 Build 0)  -->
<svg version="1.1" id="Layer_1" xmlns="http://www.w3.org/2000/svg" xmlns:xlink="http://www.w3.org/1999/xlink" x="0px" y="0px"
	 viewBox="0 0 256 256" style="enable-background:new 0 0 256 256;" xml:space="preserve">
<style type="text/css">
	.st0{fill:#1C2C59;}
	.st1{fill:#1C2C59;stroke:#20211E;stroke-width:2;stroke-linecap:round;stroke-miterlimit:10;}
</style>
<g>
	<g>
		<g>
			<g>
				<path class="st0" d="M177.39,140.53c-1.82,0-3.3-1.48-3.3-3.3v-9.9c0-21.03-13.88-36.3-33-36.3h-26.4c-19.12,0-33,15.27-33,36.3
					v9.9c0,1.82-1.48,3.3-3.3,3.3c-1.82,0-3.3-1.48-3.3-3.3v-9.9c0-24.46,17.02-42.9,39.6-42.9h26.4c22.58,0,39.6,18.44,39.6,42.9
					v9.9C180.69,139.05,179.21,140.53,177.39,140.53z"/>
				<path class="st1" d="M78.39,137.23"/>
				<path class="st0" d="M127.89,77.83c-13.82,0-23.1-10.61-23.1-26.4s9.28-26.4,23.1-26.4s23.1,10.61,23.1,26.4
					S141.71,77.83,127.89,77.83z M127.89,31.63c-12.18,0-16.5,10.67-16.5,19.8s4.32,19.8,16.5,19.8s16.5-10.67,16.5-19.8
					S140.07,31.63,127.89,31.63z"/>
				<path class="st0" d="M249.99,140.53h-59.4c-1.82,0-3.3-1.48-3.3-3.3c0-1.82,1.48-3.3,3.3-3.3h52.61
					c-1.68-14.61-14.31-26.4-29.08-26.4h-20.66c-2.97,0-4.12,0.27-6.87,1.1c-1.75,0.53-3.59-0.46-4.11-2.21
					c-0.53-1.75,0.46-3.59,2.21-4.11c3.18-0.96,4.97-1.38,8.77-1.38h20.66c19.44,0,35.87,16.62,35.87,36.3V140.53z"/>
				<path class="st0" d="M203.79,94.33c-11.84,0-19.8-9.28-19.8-23.1s7.96-23.1,19.8-23.1c11.84,0,19.8,9.28,19.8,23.1
					S215.63,94.33,203.79,94.33z M203.79,54.73c-9.73,0-13.2,8.52-13.2,16.5s3.47,16.5,13.2,16.5c9.73,0,13.2-8.52,13.2-16.5
					S213.52,54.73,203.79,54.73z"/>
				<path class="st0" d="M61.89,140.53H5.79v-3.3c0-19.67,16.43-36.3,35.87-36.3h20.66c3.72,0,4.53,0.2,7.74,1.17
					c1.75,0.53,2.73,2.37,2.21,4.11c-0.53,1.75-2.37,2.73-4.11,2.21c-2.85-0.86-2.96-0.89-5.84-0.89H41.66
					c-14.77,0-27.41,11.78-29.08,26.4h49.31c1.82,0,3.3,1.48,3.3,3.3C65.19,139.05,63.71,140.53,61.89,140.53z"/>
				<path class="st0" d="M51.99,94.33c-11.84,0-19.8-9.28-19.8-23.1s7.96-23.1,19.8-23.1s19.8,9.28,19.8,23.1
					S63.83,94.33,51.99,94.33z M51.99,54.73c-9.73,0-13.2,8.52-13.2,16.5s3.47,16.5,13.2,16.5s13.2-8.52,13.2-16.5
					S61.72,54.73,51.99,54.73z"/>
			</g>
		</g>
		<path class="st1" d="M78.39,137.23"/>
	</g>
	<g>
		<g>
			<path class="st0" d="M127.49,229.63c-17.23,0-33.75-7.32-45.34-20.07c-1.22-1.35-1.12-3.44,0.22-4.66
				c1.35-1.22,3.44-1.12,4.66,0.22c10.34,11.38,25.09,17.91,40.46,17.91c30.13,0,54.65-24.52,54.65-54.65
				c0-30.13-24.51-54.65-54.65-54.65s-54.65,24.52-54.65,54.65c0,9.56,2.5,18.96,7.24,27.2c0.91,1.58,0.36,3.6-1.21,4.51
				c-1.58,0.91-3.6,0.36-4.51-1.21c-5.31-9.23-8.12-19.78-8.12-30.49c0-33.77,27.48-61.25,61.25-61.25
				c33.77,0,61.25,27.48,61.25,61.25S161.27,229.63,127.49,229.63z"/>
			<path class="st0" d="M127.49,190.23c-3.07,0-6.05-0.63-8.83-1.86c-1.67-0.74-2.42-2.69-1.68-4.35c0.74-1.67,2.68-2.42,4.35-1.68
				c1.94,0.86,4.01,1.3,6.16,1.3c8.4,0,15.24-6.84,15.24-15.24c0-8.4-6.84-15.24-15.24-15.24c-8.41,0-15.24,6.84-15.24,15.24
				c0,2.54,0.63,5.05,1.84,7.26c0.87,1.6,0.28,3.61-1.32,4.48c-1.6,0.87-3.6,0.28-4.48-1.32c-1.73-3.18-2.64-6.78-2.64-10.42
				c0-12.04,9.8-21.84,21.84-21.84s21.84,9.8,21.84,21.84C149.34,180.43,139.54,190.23,127.49,190.23z"/>
			<path class="st0" d="M127.49,211.09c-10.65,0-20.86-3.94-28.73-11.11c-1.35-1.23-1.45-3.31-0.22-4.66
				c1.23-1.35,3.32-1.45,4.66-0.22c6.65,6.06,15.28,9.39,24.29,9.39c19.91,0,36.11-16.2,36.11-36.11c0-19.91-16.2-36.1-36.11-36.1
				c-19.91,0-36.11,16.2-36.11,36.1c0,6.36,1.68,12.62,4.85,18.09c0.91,1.58,0.38,3.6-1.2,4.51c-1.58,0.91-3.6,0.38-4.51-1.2
				c-3.76-6.48-5.74-13.88-5.74-21.4c0-23.55,19.16-42.71,42.71-42.71s42.71,19.16,42.71,42.71
				C170.2,191.93,151.04,211.09,127.49,211.09z"/>
			<g>
				<path class="st0" d="M57.21,212.26c-0.55,0-1.1-0.14-1.6-0.41l-11.82-6.56c-1.04-0.58-1.69-1.67-1.7-2.86
					c-0.01-1.19,0.62-2.29,1.65-2.89l14.05-8.11c1.01-0.58,2.24-0.59,3.25-0.03l11.82,6.56c1.04,0.58,1.69,1.67,1.7,2.86
					c0.01,1.19-0.62,2.29-1.65,2.89l-14.05,8.11C58.35,212.11,57.78,212.26,57.21,212.26z M52.09,202.34l5.09,2.83l7.39-4.27
					l-5.09-2.82L52.09,202.34z"/>
				<path class="st0" d="M56.98,225.77c-0.58,0-1.16-0.15-1.67-0.46c-1.02-0.6-1.65-1.71-1.63-2.9l0.23-13.51
					c0.02-1.16,0.65-2.22,1.65-2.8l14.05-8.11c1.03-0.59,2.3-0.59,3.32,0.01c1.02,0.6,1.65,1.71,1.63,2.9l-0.23,13.51
					c-0.02,1.16-0.65,2.22-1.65,2.8l-14.05,8.11C58.12,225.62,57.55,225.77,56.98,225.77z M60.47,210.88l-0.1,5.82l7.38-4.27
					l0.1-5.82L60.47,210.88z"/>
				<path class="st0" d="M51.19,215.73c-1.14,0-2.25-0.59-2.86-1.65c-0.91-1.58-0.37-3.6,1.21-4.51l76.28-44.04
					c1.58-0.92,3.6-0.37,4.51,1.21c0.91,1.58,0.37,3.6-1.21,4.51l-76.28,44.04C52.31,215.59,51.75,215.73,51.19,215.73z"/>
			</g>
		</g>
	</g>
</g>
</svg>
