<?xml version="1.0" encoding="utf-8"?>
<!-- Generator: Adobe Illustrator 25.4.1, SVG Export Plug-In . SVG Version: 6.00 Build 0)  -->
<svg version="1.1" id="Layer_1" xmlns="http://www.w3.org/2000/svg" xmlns:xlink="http://www.w3.org/1999/xlink" x="0px" y="0px"
	 viewBox="0 0 256 256" style="enable-background:new 0 0 256 256;" xml:space="preserve">
<style type="text/css">
	.st0{fill:#1C2C59;}
</style>
<g>
	<g>
		<path class="st0" d="M118.6,95.46c-0.38,0-0.76-0.06-1.12-0.18L75.7,81.15c-1.04-0.35-1.85-1.17-2.2-2.2
			c-0.35-1.04-0.19-2.18,0.43-3.08l41.78-61.21c0.65-0.95,1.71-1.51,2.85-1.53c1.09,0.15,2.22,0.53,2.89,1.47l43.67,61.21
			c0.65,0.91,0.82,2.07,0.47,3.13c-0.35,1.06-1.18,1.89-2.25,2.23l-43.67,14.12C119.33,95.4,118.96,95.46,118.6,95.46z M82.32,76
			l36.31,12.27l38.03-12.29l-37.98-53.23L82.32,76z"/>
		<path class="st0" d="M118.6,168.91c-0.35,0-0.7-0.05-1.05-0.16l-72.16-22.6c-1.06-0.33-1.9-1.15-2.26-2.19
			c-0.36-1.05-0.21-2.2,0.42-3.12l30.07-43.94c0.87-1.28,2.47-1.82,3.95-1.36l41.31,13.15l44.16-15.01c1.5-0.5,3.15,0.05,4.03,1.36
			l28.8,42.69c0.61,0.9,0.76,2.03,0.42,3.07c-0.34,1.03-1.14,1.85-2.17,2.2l-74.37,25.74C119.38,168.85,118.99,168.91,118.6,168.91z
			 M52,140.89l66.55,20.84l68.98-23.87l-24.76-36.7l-42.73,14.52c-0.71,0.24-1.47,0.25-2.19,0.02l-39.93-12.71L52,140.89z"/>
		<path class="st0" d="M118.6,242.36c-0.37,0-0.73-0.06-1.08-0.17L14.03,208.61c-1.05-0.34-1.87-1.15-2.23-2.19
			c-0.36-1.04-0.21-2.19,0.41-3.1l29.44-43.63c0.86-1.28,2.46-1.83,3.94-1.38l73.01,22.75l73.33-23.06c1.44-0.46,3.02,0.08,3.9,1.31
			l32.92,46.14c0.66,0.92,0.83,2.11,0.46,3.18c-0.37,1.07-1.24,1.9-2.32,2.21l-107.29,31.39
			C119.27,242.31,118.93,242.36,118.6,242.36z M20.61,203.38l98.05,31.82l101.52-29.7l-28.58-40.07l-71.95,22.62
			c-0.68,0.21-1.4,0.22-2.09,0l-71.57-22.3L20.61,203.38z"/>
		<rect x="115.1" y="184.72" class="st0" width="7" height="55.09"/>
		<rect x="115.1" y="112.92" class="st0" width="7" height="51.32"/>
		<path class="st0" d="M118.6,95.46c-1.93,0-3.5-1.57-3.5-3.5V18.51c0-1.93,1.57-3.5,3.5-3.5c1.93,0,3.5,1.57,3.5,3.5v73.45
			C122.1,93.9,120.54,95.46,118.6,95.46z"/>
		<path class="st0" d="M76.51,102.37c-1.35,0-2.64-0.79-3.22-2.11c-0.77-1.77,0.05-3.83,1.82-4.6l14.22-6.16
			c1.79-0.77,3.83,0.05,4.6,1.82c0.77,1.77-0.05,3.83-1.82,4.6l-14.22,6.16C77.45,102.28,76.97,102.37,76.51,102.37z"/>
		<path class="st0" d="M164.17,100.49c-0.4,0-0.81-0.07-1.22-0.22l-15.22-5.64c-1.81-0.67-2.74-2.68-2.06-4.5
			c0.67-1.81,2.68-2.75,4.5-2.06l15.22,5.64c1.81,0.67,2.74,2.68,2.06,4.5C166.93,99.61,165.6,100.49,164.17,100.49z"/>
		<path class="st0" d="M45.42,164.89c-1.34,0-2.62-0.77-3.2-2.08c-0.78-1.77,0.01-3.83,1.78-4.62l12.96-5.77
			c1.77-0.78,3.83,0.01,4.62,1.78c0.78,1.77-0.01,3.83-1.78,4.62l-12.96,5.77C46.37,164.8,45.89,164.89,45.42,164.89z"/>
		<path class="st0" d="M192.97,164.83c-0.45,0-0.91-0.09-1.35-0.27l-15.5-6.49c-1.78-0.75-2.62-2.8-1.88-4.58
			c0.75-1.79,2.8-2.63,4.58-1.88l15.5,6.49c1.78,0.75,2.62,2.8,1.88,4.58C195.64,164.03,194.34,164.83,192.97,164.83z"/>
	</g>
	<path class="st0" d="M15.89,124.3c-7.72,0-14-6.28-14-14c0-7.72,6.28-14,14-14c7.72,0,14,6.28,14,14
		C29.89,118.03,23.61,124.3,15.89,124.3z M15.89,103.3c-3.86,0-7,3.14-7,7c0,3.86,3.14,7,7,7c3.86,0,7-3.14,7-7
		C22.89,106.45,19.75,103.3,15.89,103.3z"/>
	<path class="st0" d="M239.89,152.3c-7.72,0-14-6.28-14-14c0-7.72,6.28-14,14-14c7.72,0,14,6.28,14,14
		C253.89,146.03,247.61,152.3,239.89,152.3z M239.89,131.3c-3.86,0-7,3.14-7,7s3.14,7,7,7c3.86,0,7-3.14,7-7
		S243.75,131.3,239.89,131.3z"/>
	<path class="st0" d="M47.39,113.8h-21c-1.93,0-3.5-1.57-3.5-3.5c0-1.93,1.57-3.5,3.5-3.5h21c1.93,0,3.5,1.57,3.5,3.5
		C50.89,112.24,49.32,113.8,47.39,113.8z"/>
	<path class="st0" d="M239.89,173.3h-21c-1.93,0-3.5-1.57-3.5-3.5s1.57-3.5,3.5-3.5h17.5v-17.5c0-1.93,1.57-3.5,3.5-3.5
		c1.93,0,3.5,1.57,3.5,3.5v21C243.39,171.74,241.82,173.3,239.89,173.3z"/>
	<g>
		<path class="st0" d="M190.89,40.3c-7.72,0-14-6.28-14-14c0-7.72,6.28-14,14-14c7.72,0,14,6.28,14,14
			C204.89,34.03,198.61,40.3,190.89,40.3z M190.89,19.3c-3.86,0-7,3.14-7,7s3.14,7,7,7c3.86,0,7-3.14,7-7S194.75,19.3,190.89,19.3z"
			/>
		<path class="st0" d="M152.39,43.8c-0.73,0-1.47-0.23-2.1-0.7c-1.55-1.16-1.86-3.35-0.7-4.9l10.5-14c0.66-0.88,1.7-1.4,2.8-1.4
			h17.5c1.93,0,3.5,1.57,3.5,3.5s-1.57,3.5-3.5,3.5h-15.75l-9.45,12.6C154.5,43.32,153.45,43.8,152.39,43.8z"/>
	</g>
</g>
</svg>
