<?xml version="1.0" encoding="utf-8"?>
<!-- Generator: Adobe Illustrator 26.0.2, SVG Export Plug-In . SVG Version: 6.00 Build 0)  -->
<svg version="1.1" id="Layer_1" xmlns="http://www.w3.org/2000/svg" xmlns:xlink="http://www.w3.org/1999/xlink" x="0px" y="0px"
	 viewBox="0 0 256 256" style="enable-background:new 0 0 256 256;" xml:space="preserve">
<style type="text/css">
	.st0{fill:#1B2C55;}
</style>
<g>
	<g>
		<path class="st0" d="M188.4,241.4c-0.6,0-1.1-0.1-1.6-0.4c-1-0.6-1.6-1.6-1.6-2.8v-58.5c0-1.1,0.6-2.2,1.6-2.8l58.5-35.8
			c1-0.6,2.3-0.6,3.3-0.1c1,0.6,1.7,1.7,1.7,2.8v61.8c0,1.2-0.6,2.3-1.7,2.8L190,241C189.5,241.3,188.9,241.4,188.4,241.4z
			 M191.6,181.5v51.2l52-28.9v-54L191.6,181.5z"/>
		<path class="st0" d="M188.4,241.4c-0.5,0-1.1-0.1-1.6-0.4l-58.5-32.5c-1-0.6-1.7-1.7-1.7-2.8v-61.8c0-1.2,0.6-2.3,1.7-2.8
			c1-0.6,2.3-0.6,3.3,0.1l58.5,35.8c1,0.6,1.6,1.6,1.6,2.8v58.5c0,1.2-0.6,2.2-1.6,2.8C189.5,241.2,189,241.4,188.4,241.4z
			 M133.1,203.7l52,28.9v-51.2l-52-31.8V203.7z"/>
		<path class="st0" d="M246.9,147.1c-0.6,0-1.1-0.1-1.6-0.4l-58.5-33.8c-1.6-0.9-2.1-2.9-1.2-4.4c0.9-1.6,2.9-2.1,4.4-1.2l58.5,33.8
			c1.6,0.9,2.1,2.9,1.2,4.4C249.1,146.6,248,147.1,246.9,147.1z"/>
	</g>
	<g>
		<path class="st0" d="M129.9,145.9c-0.6,0-1.1-0.1-1.6-0.4c-1-0.6-1.6-1.6-1.6-2.8V84.1c0-1.1,0.6-2.2,1.6-2.8l58.5-35.8
			c1-0.6,2.3-0.6,3.3-0.1c1,0.6,1.7,1.7,1.7,2.8v61.8c0,1.2-0.6,2.3-1.7,2.8l-58.5,32.5C131,145.7,130.4,145.9,129.9,145.9z
			 M133.1,85.9v51.2l52-28.9v-54L133.1,85.9z"/>
		<path class="st0" d="M129.9,145.9c-0.5,0-1.1-0.1-1.6-0.4l-58.5-32.5c-1-0.6-1.7-1.7-1.7-2.8V48.4c0-1.2,0.6-2.3,1.7-2.8
			c1-0.6,2.3-0.6,3.3,0.1l58.5,35.8c1,0.6,1.6,1.6,1.6,2.8v58.5c0,1.2-0.6,2.2-1.6,2.8C131,145.7,130.5,145.9,129.9,145.9z
			 M74.6,108.2l52,28.9V85.9l-52-31.8V108.2z"/>
		<path class="st0" d="M71.4,51.6c-1.1,0-2.2-0.6-2.8-1.6c-0.9-1.6-0.4-3.5,1.2-4.4l58.5-33.8c1-0.6,2.2-0.6,3.3,0L190,45.5
			c1.6,0.9,2.1,2.9,1.2,4.4c-0.9,1.6-2.9,2.1-4.4,1.2l-56.9-32.9L73,51.2C72.5,51.5,71.9,51.6,71.4,51.6z"/>
	</g>
	<g>
		<path class="st0" d="M71.4,241.4c-0.6,0-1.1-0.1-1.6-0.4c-1-0.6-1.6-1.6-1.6-2.8v-58.5c0-1.1,0.6-2.2,1.6-2.8l58.5-35.8
			c1-0.6,2.3-0.6,3.3-0.1c1,0.6,1.7,1.7,1.7,2.8v61.8c0,1.2-0.6,2.3-1.7,2.8L73,241C72.5,241.3,71.9,241.4,71.4,241.4z M74.6,181.5
			v51.2l52-28.9v-54L74.6,181.5z"/>
		<path class="st0" d="M71.4,241.4c-0.5,0-1.1-0.1-1.6-0.4l-58.5-32.5c-1-0.6-1.7-1.7-1.7-2.8v-61.8c0-1.2,0.6-2.3,1.7-2.8
			c1-0.6,2.3-0.6,3.3,0.1l58.5,35.8c1,0.6,1.6,1.6,1.6,2.8v58.5c0,1.2-0.6,2.2-1.6,2.8C72.5,241.2,72,241.4,71.4,241.4z M16.1,203.7
			l52,28.9v-51.2l-52-31.8V203.7z"/>
		<path class="st0" d="M12.9,147.1c-1.1,0-2.2-0.6-2.8-1.6c-0.9-1.6-0.4-3.5,1.2-4.4l58.5-33.8c1.6-0.9,3.5-0.4,4.4,1.2
			c0.9,1.6,0.4,3.5-1.2,4.4l-58.5,33.8C14,147,13.4,147.1,12.9,147.1z"/>
	</g>
</g>
</svg>
