<?xml version="1.0" encoding="utf-8"?>
<!-- Generator: Adobe Illustrator 25.4.1, SVG Export Plug-In . SVG Version: 6.00 Build 0)  -->
<svg version="1.1" id="Layer_1" xmlns="http://www.w3.org/2000/svg" xmlns:xlink="http://www.w3.org/1999/xlink" x="0px" y="0px"
	 viewBox="0 0 256 256" style="enable-background:new 0 0 256 256;" xml:space="preserve">
<style type="text/css">
	.st0{fill:#1C2C59;}
</style>
<g>
	<g>
		<path class="st0" d="M159.25,205.94H29.88c-13.32,0-24.16-10.84-24.16-24.16v-60.43c0-13.32,10.84-24.16,24.16-24.16h115.66
			c2.04,0,3.7,1.66,3.7,3.7c0,2.04-1.66,3.7-3.7,3.7H29.88c-9.24,0-16.76,7.52-16.76,16.76v60.43c0,9.24,7.52,16.76,16.76,16.76
			h129.37c9.24,0,16.76-7.52,16.76-16.76v-64c0-2.04,1.66-3.7,3.7-3.7s3.7,1.66,3.7,3.7v64
			C183.41,195.11,172.57,205.94,159.25,205.94z"/>
		<path class="st0" d="M94.91,104.41c-1.07,0-2.14-0.47-2.87-1.36c-1.29-1.58-1.05-3.92,0.53-5.2l50.74-41.33
			c5.59-4.57,12.65-7.12,19.87-7.17l81.27-0.53c2.02-0.03,3.71,1.63,3.72,3.68c0.01,2.04-1.63,3.71-3.68,3.72l-81.27,0.53
			c-5.54,0.04-10.95,1.99-15.24,5.5l-50.75,41.33C96.56,104.13,95.74,104.41,94.91,104.41z"/>
		<path class="st0" d="M180.29,163.95c-1.97,0-3.62-1.56-3.69-3.55c-0.08-2.04,1.5-3.76,3.55-3.85
			c11.09-0.45,26.29-4.07,35.74-18.77c1.11-1.76,1.12-1.76,30.45-1.4c2.04,0.03,3.68,1.7,3.65,3.75c-0.03,2.03-1.68,3.65-3.7,3.65
			c-0.02,0-0.03,0-0.05,0c-8.52-0.1-20.65-0.25-25.29-0.29c-11.85,16.8-30.34,20.04-40.51,20.45
			C180.4,163.94,180.35,163.95,180.29,163.95z"/>
		<path class="st0" d="M137.24,137.61c-0.82,0-1.65-0.07-2.48-0.2c-4.08-0.65-7.65-2.84-10.05-6.17
			c-4.99-6.89-3.44-16.55,3.45-21.53l39.97-31.27c1.61-1.26,3.93-0.97,5.19,0.63c1.26,1.61,0.98,3.93-0.63,5.19l-40.08,31.35
			c-3.69,2.68-4.5,7.7-1.9,11.28c1.25,1.73,3.11,2.86,5.23,3.2c2.12,0.35,4.25-0.16,5.97-1.41l20.65-15.39
			c0.85-0.63,1.93-0.86,2.96-0.66c9.66,2,32.37,2.59,40.94-8.25c1.27-1.6,3.59-1.88,5.2-0.61c1.6,1.27,1.88,3.59,0.61,5.2
			c-11.01,13.93-35.91,13.02-46.58,11.23l-19.4,14.45C143.6,136.6,140.47,137.61,137.24,137.61z"/>
		<path class="st0" d="M177.78,183.97H11.17c-2.04,0-3.7-1.66-3.7-3.7c0-2.04,1.66-3.7,3.7-3.7h166.6c2.04,0,3.7,1.66,3.7,3.7
			C181.48,182.31,179.82,183.97,177.78,183.97z"/>
	</g>
	<g>
		<path class="st0" d="M83.31,157.7h-51.8c-2.04,0-3.7-1.66-3.7-3.7c0-2.04,1.66-3.7,3.7-3.7h51.8c2.04,0,3.7,1.66,3.7,3.7
			C87.01,156.04,85.35,157.7,83.31,157.7z"/>
		<path class="st0" d="M83.31,139.2h-51.8c-2.04,0-3.7-1.66-3.7-3.7c0-2.04,1.66-3.7,3.7-3.7h51.8c2.04,0,3.7,1.66,3.7,3.7
			C87.01,137.54,85.35,139.2,83.31,139.2z"/>
	</g>
</g>
</svg>
